<ttFont>
    <TTGlyph name=".notdef" xMin="32" yMin="0" xMax="643" yMax="660">
      <contour>
        <pt x="162" y="660" on="1"/>
        <pt x="643" y="660" on="1"/>
        <pt x="513" y="0" on="1"/>
        <pt x="32" y="0" on="1"/>
      </contour>
      <contour>
        <pt x="221" y="554" on="1"/>
        <pt x="136" y="126" on="1"/>
        <pt x="286" y="340" on="1"/>
      </contour>
      <contour>
        <pt x="460" y="126" on="1"/>
        <pt x="548" y="554" on="1"/>
        <pt x="396" y="340" on="1"/>
      </contour>
      <contour>
        <pt x="184" y="72" on="1"/>
        <pt x="389" y="72" on="1"/>
        <pt x="356" y="182" on="1"/>
        <pt x="331" y="281" on="1"/>
        <pt x="327" y="281" on="1"/>
        <pt x="262" y="182" on="1"/>
      </contour>
      <contour>
        <pt x="418" y="491" on="1"/>
        <pt x="485" y="588" on="1"/>
        <pt x="295" y="588" on="1"/>
        <pt x="324" y="491" on="1"/>
        <pt x="350" y="396" on="1"/>
        <pt x="354" y="396" on="1"/>
      </contour>
    </TTGlyph>
    <TTGlyph name="A" xMin="-58" yMin="0" xMax="490" yMax="654">
      <contour>
        <pt x="359" y="266" on="1"/>
        <pt x="352" y="365" on="1"/>
        <pt x="349" y="416" on="0"/>
        <pt x="342" y="514" on="0"/>
        <pt x="340" y="568" on="1"/>
        <pt x="336" y="568" on="1"/>
        <pt x="312" y="514" on="0"/>
        <pt x="267" y="416" on="0"/>
        <pt x="241" y="365" on="1"/>
        <pt x="192" y="266" on="1"/>
      </contour>
      <contour>
        <pt x="365" y="184" on="1"/>
        <pt x="152" y="184" on="1"/>
        <pt x="61" y="0" on="1"/>
        <pt x="-58" y="0" on="1"/>
        <pt x="292" y="654" on="1"/>
        <pt x="420" y="654" on="1"/>
        <pt x="490" y="0" on="1"/>
        <pt x="378" y="0" on="1"/>
      </contour>
    </TTGlyph>
    <TTGlyph name="AE" xMin="-34" yMin="0" xMax="842" yMax="654">
      <contour>
        <pt x="462" y="574" on="1"/>
        <pt x="459" y="574" on="1"/>
        <pt x="425" y="522" on="0"/>
        <pt x="360" y="424" on="0"/>
        <pt x="327" y="373" on="1"/>
        <pt x="254" y="259" on="1"/>
        <pt x="399" y="259" on="1"/>
      </contour>
      <contour>
        <pt x="567" y="563" on="1"/>
        <pt x="532" y="387" on="1"/>
        <pt x="749" y="387" on="1"/>
        <pt x="731" y="296" on="1"/>
        <pt x="515" y="296" on="1"/>
        <pt x="473" y="91" on="1"/>
        <pt x="739" y="91" on="1"/>
        <pt x="721" y="0" on="1"/>
        <pt x="348" y="0" on="1"/>
        <pt x="383" y="174" on="1"/>
        <pt x="199" y="174" on="1"/>
        <pt x="88" y="0" on="1"/>
        <pt x="-34" y="0" on="1"/>
        <pt x="406" y="654" on="1"/>
        <pt x="842" y="654" on="1"/>
        <pt x="824" y="563" on="1"/>
      </contour>
    </TTGlyph>
    <TTGlyph name="Aacute" xMin="-58" yMin="0" xMax="512" yMax="818">
      <component glyphName="A" x="0" y="0" flags="0x204"/>
      <component glyphName="uni0301.cap" x="229" y="0" flags="0x4"/>
    </TTGlyph>
    <TTGlyph name="Abreve" xMin="-58" yMin="0" xMax="496" yMax="818">
      <component glyphName="A" x="0" y="0" flags="0x204"/>
      <component glyphName="uni0306.cap" x="229" y="0" flags="0x4"/>
    </TTGlyph>
    <TTGlyph name="Acircumflex" xMin="-58" yMin="0" xMax="494" yMax="818">
      <component glyphName="A" x="0" y="0" flags="0x204"/>
      <component glyphName="uni0302.cap" x="229" y="0" flags="0x4"/>
    </TTGlyph>
    <TTGlyph name="Adieresis" xMin="-58" yMin="0" xMax="508" yMax="822">
      <component glyphName="A" x="0" y="0" flags="0x204"/>
      <component glyphName="uni0308.cap" x="229" y="0" flags="0x4"/>
    </TTGlyph>
    <TTGlyph name="Agrave" xMin="-58" yMin="0" xMax="490" yMax="818">
      <component glyphName="A" x="0" y="0" flags="0x204"/>
      <component glyphName="uni0300.cap" x="229" y="0" flags="0x4"/>
    </TTGlyph>
    <TTGlyph name="Amacron" xMin="-58" yMin="0" xMax="495" yMax="796">
      <component glyphName="A" x="0" y="0" flags="0x204"/>
      <component glyphName="uni0304.cap" x="229" y="0" flags="0x4"/>
    </TTGlyph>
    <TTGlyph name="Aogonek" xMin="-58" yMin="-216" xMax="490" yMax="654">
      <contour>
        <pt x="359" y="266" on="1"/>
        <pt x="352" y="365" on="1"/>
        <pt x="349" y="416" on="0"/>
        <pt x="342" y="514" on="0"/>
        <pt x="340" y="568" on="1"/>
        <pt x="336" y="568" on="1"/>
        <pt x="312" y="514" on="0"/>
        <pt x="267" y="416" on="0"/>
        <pt x="241" y="365" on="1"/>
        <pt x="192" y="266" on="1"/>
      </contour>
      <contour>
        <pt x="490" y="0" on="1"/>
        <pt x="436" y="-25" on="0"/>
        <pt x="389" y="-84" on="0"/>
        <pt x="389" y="-110" on="1"/>
        <pt x="389" y="-127" on="0"/>
        <pt x="410" y="-145" on="0"/>
        <pt x="424" y="-145" on="1"/>
        <pt x="439" y="-145" on="0"/>
        <pt x="456" y="-135" on="1"/>
        <pt x="478" y="-190" on="1"/>
        <pt x="458" y="-202" on="0"/>
        <pt x="409" y="-216" on="0"/>
        <pt x="388" y="-216" on="1"/>
        <pt x="350" y="-216" on="0"/>
        <pt x="302" y="-179" on="0"/>
        <pt x="302" y="-144" on="1"/>
        <pt x="302" y="-121" on="0"/>
        <pt x="321" y="-78" on="0"/>
        <pt x="349" y="-41" on="0"/>
        <pt x="383" y="-11" on="0"/>
        <pt x="398" y="0" on="1"/>
        <pt x="378" y="0" on="1"/>
        <pt x="365" y="184" on="1"/>
        <pt x="152" y="184" on="1"/>
        <pt x="61" y="0" on="1"/>
        <pt x="-58" y="0" on="1"/>
        <pt x="292" y="654" on="1"/>
        <pt x="420" y="654" on="1"/>
      </contour>
    </TTGlyph>
    <TTGlyph name="Aring" xMin="-58" yMin="0" xMax="490" yMax="884">
      <component glyphName="A" x="0" y="0" flags="0x204"/>
      <component glyphName="uni030A.cap" x="229" y="0" flags="0x4"/>
    </TTGlyph>
    <TTGlyph name="Atilde" xMin="-58" yMin="0" xMax="523" yMax="825">
      <component glyphName="A" x="0" y="0" flags="0x204"/>
      <component glyphName="uni0303.cap" x="229" y="0" flags="0x4"/>
    </TTGlyph>
    <TTGlyph name="B" xMin="32" yMin="0" xMax="561" yMax="654">
      <contour>
        <pt x="162" y="654" on="1"/>
        <pt x="350" y="654" on="1"/>
        <pt x="446" y="654" on="0"/>
        <pt x="561" y="581" on="0"/>
        <pt x="561" y="507" on="1"/>
        <pt x="561" y="476" on="0"/>
        <pt x="538" y="423" on="0"/>
        <pt x="499" y="381" on="0"/>
        <pt x="447" y="351" on="0"/>
        <pt x="417" y="344" on="1"/>
        <pt x="416" y="340" on="1"/>
        <pt x="469" y="327" on="0"/>
        <pt x="532" y="265" on="0"/>
        <pt x="532" y="212" on="1"/>
        <pt x="532" y="156" on="0"/>
        <pt x="489" y="75" on="0"/>
        <pt x="414" y="24" on="0"/>
        <pt x="313" y="0" on="0"/>
        <pt x="255" y="0" on="1"/>
        <pt x="32" y="0" on="1"/>
      </contour>
      <contour>
        <pt x="295" y="380" on="1"/>
        <pt x="376" y="380" on="0"/>
        <pt x="451" y="440" on="0"/>
        <pt x="451" y="490" on="1"/>
        <pt x="451" y="528" on="0"/>
        <pt x="391" y="570" on="0"/>
        <pt x="328" y="570" on="1"/>
        <pt x="254" y="570" on="1"/>
        <pt x="215" y="380" on="1"/>
      </contour>
      <contour>
        <pt x="255" y="84" on="1"/>
        <pt x="336" y="84" on="0"/>
        <pt x="428" y="144" on="0"/>
        <pt x="428" y="207" on="1"/>
        <pt x="428" y="252" on="0"/>
        <pt x="364" y="304" on="0"/>
        <pt x="301" y="304" on="1"/>
        <pt x="200" y="304" on="1"/>
        <pt x="156" y="84" on="1"/>
      </contour>
    </TTGlyph>
    <TTGlyph name="C" xMin="57" yMin="-12" xMax="567" yMax="666">
      <contour>
        <pt x="57" y="257" on="1"/>
        <pt x="57" y="338" on="0"/>
        <pt x="108" y="486" on="0"/>
        <pt x="199" y="599" on="0"/>
        <pt x="325" y="666" on="0"/>
        <pt x="400" y="666" on="1"/>
        <pt x="457" y="666" on="0"/>
        <pt x="541" y="611" on="0"/>
        <pt x="567" y="566" on="1"/>
        <pt x="493" y="509" on="1"/>
        <pt x="474" y="539" on="0"/>
        <pt x="426" y="573" on="0"/>
        <pt x="394" y="573" on="1"/>
        <pt x="344" y="573" on="0"/>
        <pt x="261" y="519" on="0"/>
        <pt x="201" y="432" on="0"/>
        <pt x="167" y="322" on="0"/>
        <pt x="167" y="265" on="1"/>
        <pt x="167" y="224" on="0"/>
        <pt x="184" y="156" on="0"/>
        <pt x="221" y="108" on="0"/>
        <pt x="278" y="81" on="0"/>
        <pt x="318" y="81" on="1"/>
        <pt x="353" y="81" on="0"/>
        <pt x="414" y="111" on="0"/>
        <pt x="443" y="135" on="1"/>
        <pt x="490" y="66" on="1"/>
        <pt x="457" y="37" on="0"/>
        <pt x="360" y="-12" on="0"/>
        <pt x="297" y="-12" on="1"/>
        <pt x="241" y="-12" on="0"/>
        <pt x="152" y="26" on="0"/>
        <pt x="90" y="96" on="0"/>
        <pt x="57" y="195" on="0"/>
      </contour>
    </TTGlyph>
    <TTGlyph name="Cacute" xMin="57" yMin="-12" xMax="579" yMax="818">
      <component glyphName="C" x="0" y="0" flags="0x204"/>
      <component glyphName="uni0301.cap" x="296" y="0" flags="0x4"/>
    </TTGlyph>
    <TTGlyph name="Ccaron" xMin="57" yMin="-12" xMax="584" yMax="818">
      <component glyphName="C" x="0" y="0" flags="0x204"/>
      <component glyphName="uni030C.cap" x="296" y="0" flags="0x4"/>
    </TTGlyph>
    <TTGlyph name="Ccedilla" xMin="57" yMin="-216" xMax="567" yMax="666">
      <component glyphName="C" x="0" y="0" flags="0x204"/>
      <component glyphName="uni0327.cap" x="286" y="0" flags="0x4"/>
    </TTGlyph>
    <TTGlyph name="Ccircumflex" xMin="57" yMin="-12" xMax="567" yMax="818">
      <component glyphName="C" x="0" y="0" flags="0x204"/>
      <component glyphName="uni0302.cap" x="296" y="0" flags="0x4"/>
    </TTGlyph>
    <TTGlyph name="Cdotaccent" xMin="57" yMin="-12" xMax="567" yMax="835">
      <component glyphName="C" x="0" y="0" flags="0x204"/>
      <component glyphName="uni0307.cap" x="296" y="0" flags="0x4"/>
    </TTGlyph>
    <TTGlyph name="D" xMin="32" yMin="0" xMax="578" yMax="654">
      <contour>
        <pt x="162" y="654" on="1"/>
        <pt x="295" y="654" on="1"/>
        <pt x="432" y="654" on="0"/>
        <pt x="578" y="523" on="0"/>
        <pt x="578" y="398" on="1"/>
        <pt x="578" y="305" on="0"/>
        <pt x="527" y="157" on="0"/>
        <pt x="434" y="55" on="0"/>
        <pt x="303" y="0" on="0"/>
        <pt x="222" y="0" on="1"/>
        <pt x="32" y="0" on="1"/>
      </contour>
      <contour>
        <pt x="220" y="87" on="1"/>
        <pt x="275" y="87" on="0"/>
        <pt x="366" y="128" on="0"/>
        <pt x="432" y="206" on="0"/>
        <pt x="468" y="319" on="0"/>
        <pt x="468" y="391" on="1"/>
        <pt x="468" y="479" on="0"/>
        <pt x="376" y="567" on="0"/>
        <pt x="292" y="567" on="1"/>
        <pt x="252" y="567" on="1"/>
        <pt x="157" y="87" on="1"/>
      </contour>
    </TTGlyph>
    <TTGlyph name="Dcaron" xMin="32" yMin="0" xMax="578" yMax="818">
      <component glyphName="D" x="0" y="0" flags="0x204"/>
      <component glyphName="uni030C.cap" x="258" y="0" flags="0x4"/>
    </TTGlyph>
    <TTGlyph name="Dcroat" xMin="42" yMin="0" xMax="596" yMax="654">
      <component glyphName="Eth" x="0" y="0" flags="0x204"/>
    </TTGlyph>
    <TTGlyph name="E" xMin="32" yMin="0" xMax="537" yMax="654">
      <contour>
        <pt x="162" y="654" on="1"/>
        <pt x="537" y="654" on="1"/>
        <pt x="519" y="563" on="1"/>
        <pt x="251" y="563" on="1"/>
        <pt x="216" y="387" on="1"/>
        <pt x="443" y="387" on="1"/>
        <pt x="425" y="296" on="1"/>
        <pt x="199" y="296" on="1"/>
        <pt x="157" y="91" on="1"/>
        <pt x="433" y="91" on="1"/>
        <pt x="415" y="0" on="1"/>
        <pt x="32" y="0" on="1"/>
      </contour>
    </TTGlyph>
    <TTGlyph name="Eacute" xMin="32" yMin="0" xMax="537" yMax="818">
      <component glyphName="E" x="0" y="0" flags="0x204"/>
      <component glyphName="uni0301.cap" x="236" y="0" flags="0x4"/>
    </TTGlyph>
    <TTGlyph name="Ebreve" xMin="32" yMin="0" xMax="537" yMax="818">
      <component glyphName="E" x="0" y="0" flags="0x204"/>
      <component glyphName="uni0306.cap" x="236" y="0" flags="0x4"/>
    </TTGlyph>
    <TTGlyph name="Ecaron" xMin="32" yMin="0" xMax="537" yMax="818">
      <component glyphName="E" x="0" y="0" flags="0x204"/>
      <component glyphName="uni030C.cap" x="236" y="0" flags="0x4"/>
    </TTGlyph>
    <TTGlyph name="Ecircumflex" xMin="32" yMin="0" xMax="537" yMax="818">
      <component glyphName="E" x="0" y="0" flags="0x204"/>
      <component glyphName="uni0302.cap" x="236" y="0" flags="0x4"/>
    </TTGlyph>
    <TTGlyph name="Edieresis" xMin="32" yMin="0" xMax="537" yMax="822">
      <component glyphName="E" x="0" y="0" flags="0x204"/>
      <component glyphName="uni0308.cap" x="236" y="0" flags="0x4"/>
    </TTGlyph>
    <TTGlyph name="Edotaccent" xMin="32" yMin="0" xMax="537" yMax="835">
      <component glyphName="E" x="0" y="0" flags="0x204"/>
      <component glyphName="uni0307.cap" x="236" y="0" flags="0x4"/>
    </TTGlyph>
    <TTGlyph name="Egrave" xMin="32" yMin="0" xMax="537" yMax="818">
      <component glyphName="E" x="0" y="0" flags="0x204"/>
      <component glyphName="uni0300.cap" x="236" y="0" flags="0x4"/>
    </TTGlyph>
    <TTGlyph name="Emacron" xMin="32" yMin="0" xMax="537" yMax="796">
      <component glyphName="E" x="0" y="0" flags="0x204"/>
      <component glyphName="uni0304.cap" x="236" y="0" flags="0x4"/>
    </TTGlyph>
    <TTGlyph name="Eogonek" xMin="32" yMin="-216" xMax="537" yMax="654">
      <contour>
        <pt x="162" y="654" on="1"/>
        <pt x="537" y="654" on="1"/>
        <pt x="519" y="563" on="1"/>
        <pt x="251" y="563" on="1"/>
        <pt x="216" y="387" on="1"/>
        <pt x="443" y="387" on="1"/>
        <pt x="425" y="296" on="1"/>
        <pt x="199" y="296" on="1"/>
        <pt x="157" y="91" on="1"/>
        <pt x="433" y="91" on="1"/>
        <pt x="415" y="0" on="1"/>
        <pt x="392" y="-3" on="0"/>
        <pt x="353" y="-28" on="0"/>
        <pt x="325" y="-61" on="0"/>
        <pt x="309" y="-96" on="0"/>
        <pt x="309" y="-110" on="1"/>
        <pt x="309" y="-127" on="0"/>
        <pt x="330" y="-145" on="0"/>
        <pt x="344" y="-145" on="1"/>
        <pt x="359" y="-145" on="0"/>
        <pt x="376" y="-135" on="1"/>
        <pt x="398" y="-190" on="1"/>
        <pt x="378" y="-202" on="0"/>
        <pt x="329" y="-216" on="0"/>
        <pt x="308" y="-216" on="1"/>
        <pt x="270" y="-216" on="0"/>
        <pt x="222" y="-179" on="0"/>
        <pt x="222" y="-144" on="1"/>
        <pt x="222" y="-120" on="0"/>
        <pt x="242" y="-76" on="0"/>
        <pt x="271" y="-38" on="0"/>
        <pt x="304" y="-9" on="0"/>
        <pt x="317" y="0" on="1"/>
        <pt x="32" y="0" on="1"/>
      </contour>
    </TTGlyph>
    <TTGlyph name="Eth" xMin="42" yMin="0" xMax="596" yMax="654">
      <contour>
        <pt x="238" y="87" on="1"/>
        <pt x="293" y="87" on="0"/>
        <pt x="384" y="128" on="0"/>
        <pt x="450" y="206" on="0"/>
        <pt x="486" y="319" on="0"/>
        <pt x="486" y="391" on="1"/>
        <pt x="486" y="479" on="0"/>
        <pt x="394" y="567" on="0"/>
        <pt x="310" y="567" on="1"/>
        <pt x="270" y="567" on="1"/>
        <pt x="231" y="371" on="1"/>
        <pt x="368" y="371" on="1"/>
        <pt x="356" y="315" on="1"/>
        <pt x="220" y="315" on="1"/>
        <pt x="175" y="87" on="1"/>
      </contour>
      <contour>
        <pt x="313" y="654" on="1"/>
        <pt x="450" y="654" on="0"/>
        <pt x="596" y="523" on="0"/>
        <pt x="596" y="398" on="1"/>
        <pt x="596" y="305" on="0"/>
        <pt x="545" y="157" on="0"/>
        <pt x="452" y="55" on="0"/>
        <pt x="321" y="0" on="0"/>
        <pt x="240" y="0" on="1"/>
        <pt x="50" y="0" on="1"/>
        <pt x="113" y="315" on="1"/>
        <pt x="42" y="315" on="1"/>
        <pt x="53" y="367" on="1"/>
        <pt x="124" y="371" on="1"/>
        <pt x="180" y="654" on="1"/>
      </contour>
    </TTGlyph>
    <TTGlyph name="Euro" xMin="18" yMin="-12" xMax="534" yMax="654">
      <contour>
        <pt x="187" y="232" on="1"/>
        <pt x="190" y="157" on="0"/>
        <pt x="249" y="75" on="0"/>
        <pt x="301" y="75" on="1"/>
        <pt x="331" y="75" on="0"/>
        <pt x="383" y="105" on="0"/>
        <pt x="406" y="128" on="1"/>
        <pt x="458" y="64" on="1"/>
        <pt x="373" y="-12" on="0"/>
        <pt x="280" y="-12" on="1"/>
        <pt x="189" y="-12" on="0"/>
        <pt x="82" y="113" on="0"/>
        <pt x="80" y="232" on="1"/>
        <pt x="18" y="232" on="1"/>
        <pt x="30" y="284" on="1"/>
        <pt x="82" y="289" on="1"/>
        <pt x="85" y="323" on="0"/>
        <pt x="91" y="352" on="1"/>
        <pt x="42" y="352" on="1"/>
        <pt x="54" y="404" on="1"/>
        <pt x="105" y="408" on="1"/>
        <pt x="123" y="464" on="0"/>
        <pt x="182" y="555" on="0"/>
        <pt x="255" y="619" on="0"/>
        <pt x="341" y="654" on="0"/>
        <pt x="388" y="654" on="1"/>
        <pt x="443" y="654" on="0"/>
        <pt x="511" y="599" on="0"/>
        <pt x="534" y="557" on="1"/>
        <pt x="456" y="506" on="1"/>
        <pt x="442" y="534" on="0"/>
        <pt x="407" y="567" on="0"/>
        <pt x="377" y="567" on="1"/>
        <pt x="321" y="567" on="0"/>
        <pt x="236" y="480" on="0"/>
        <pt x="213" y="409" on="1"/>
        <pt x="442" y="409" on="1"/>
        <pt x="430" y="352" on="1"/>
        <pt x="197" y="352" on="1"/>
        <pt x="194" y="337" on="0"/>
        <pt x="190" y="306" on="0"/>
        <pt x="189" y="290" on="1"/>
        <pt x="380" y="290" on="1"/>
        <pt x="368" y="232" on="1"/>
      </contour>
    </TTGlyph>
    <TTGlyph name="F" xMin="32" yMin="0" xMax="537" yMax="654">
      <contour>
        <pt x="162" y="654" on="1"/>
        <pt x="537" y="654" on="1"/>
        <pt x="519" y="563" on="1"/>
        <pt x="251" y="563" on="1"/>
        <pt x="213" y="370" on="1"/>
        <pt x="440" y="370" on="1"/>
        <pt x="422" y="279" on="1"/>
        <pt x="196" y="279" on="1"/>
        <pt x="140" y="0" on="1"/>
        <pt x="32" y="0" on="1"/>
      </contour>
    </TTGlyph>
    <TTGlyph name="G" xMin="57" yMin="-12" xMax="583" yMax="666">
      <contour>
        <pt x="57" y="257" on="1"/>
        <pt x="57" y="338" on="0"/>
        <pt x="108" y="487" on="0"/>
        <pt x="201" y="599" on="0"/>
        <pt x="331" y="666" on="0"/>
        <pt x="410" y="666" on="1"/>
        <pt x="471" y="666" on="0"/>
        <pt x="557" y="611" on="0"/>
        <pt x="583" y="566" on="1"/>
        <pt x="509" y="509" on="1"/>
        <pt x="490" y="539" on="0"/>
        <pt x="440" y="573" on="0"/>
        <pt x="404" y="573" on="1"/>
        <pt x="351" y="573" on="0"/>
        <pt x="263" y="519" on="0"/>
        <pt x="201" y="432" on="0"/>
        <pt x="167" y="322" on="0"/>
        <pt x="167" y="265" on="1"/>
        <pt x="167" y="224" on="0"/>
        <pt x="184" y="157" on="0"/>
        <pt x="222" y="107" on="0"/>
        <pt x="282" y="80" on="0"/>
        <pt x="325" y="80" on="1"/>
        <pt x="353" y="80" on="0"/>
        <pt x="399" y="97" on="0"/>
        <pt x="416" y="111" on="1"/>
        <pt x="448" y="265" on="1"/>
        <pt x="327" y="265" on="1"/>
        <pt x="344" y="353" on="1"/>
        <pt x="561" y="353" on="1"/>
        <pt x="502" y="55" on="1"/>
        <pt x="466" y="26" on="0"/>
        <pt x="367" y="-12" on="0"/>
        <pt x="307" y="-12" on="1"/>
        <pt x="187" y="-12" on="0"/>
        <pt x="57" y="132" on="0"/>
      </contour>
    </TTGlyph>
    <TTGlyph name="Gbreve" xMin="57" yMin="-12" xMax="583" yMax="818">
      <component glyphName="G" x="0" y="0" flags="0x204"/>
      <component glyphName="uni0306.cap" x="293" y="0" flags="0x4"/>
    </TTGlyph>
    <TTGlyph name="Gcaron" xMin="57" yMin="-12" xMax="583" yMax="818">
      <component glyphName="G" x="0" y="0" flags="0x204"/>
      <component glyphName="uni030C.cap" x="293" y="0" flags="0x4"/>
    </TTGlyph>
    <TTGlyph name="Gcircumflex" xMin="57" yMin="-12" xMax="583" yMax="818">
      <component glyphName="G" x="0" y="0" flags="0x204"/>
      <component glyphName="uni0302.cap" x="293" y="0" flags="0x4"/>
    </TTGlyph>
    <TTGlyph name="Gdotaccent" xMin="57" yMin="-12" xMax="583" yMax="835">
      <component glyphName="G" x="0" y="0" flags="0x204"/>
      <component glyphName="uni0307.cap" x="293" y="0" flags="0x4"/>
    </TTGlyph>
    <TTGlyph name="H" xMin="32" yMin="0" xMax="636" yMax="654">
      <contour>
        <pt x="162" y="654" on="1"/>
        <pt x="270" y="654" on="1"/>
        <pt x="216" y="389" on="1"/>
        <pt x="475" y="389" on="1"/>
        <pt x="528" y="654" on="1"/>
        <pt x="636" y="654" on="1"/>
        <pt x="505" y="0" on="1"/>
        <pt x="397" y="0" on="1"/>
        <pt x="457" y="295" on="1"/>
        <pt x="198" y="295" on="1"/>
        <pt x="140" y="0" on="1"/>
        <pt x="32" y="0" on="1"/>
      </contour>
    </TTGlyph>
    <TTGlyph name="Hbar" xMin="37" yMin="0" xMax="709" yMax="654">
      <contour>
        <pt x="501" y="491" on="1"/>
        <pt x="243" y="491" on="1"/>
        <pt x="222" y="389" on="1"/>
        <pt x="481" y="389" on="1"/>
      </contour>
      <contour>
        <pt x="698" y="491" on="1"/>
        <pt x="609" y="491" on="1"/>
        <pt x="511" y="0" on="1"/>
        <pt x="403" y="0" on="1"/>
        <pt x="462" y="295" on="1"/>
        <pt x="204" y="295" on="1"/>
        <pt x="145" y="0" on="1"/>
        <pt x="37" y="0" on="1"/>
        <pt x="135" y="491" on="1"/>
        <pt x="73" y="491" on="1"/>
        <pt x="84" y="543" on="1"/>
        <pt x="146" y="546" on="1"/>
        <pt x="168" y="654" on="1"/>
        <pt x="276" y="654" on="1"/>
        <pt x="254" y="547" on="1"/>
        <pt x="513" y="547" on="1"/>
        <pt x="534" y="654" on="1"/>
        <pt x="642" y="654" on="1"/>
        <pt x="621" y="547" on="1"/>
        <pt x="709" y="547" on="1"/>
      </contour>
    </TTGlyph>
    <TTGlyph name="Hcircumflex" xMin="32" yMin="0" xMax="636" yMax="818">
      <component glyphName="H" x="0" y="0" flags="0x204"/>
      <component glyphName="uni0302.cap" x="271" y="0" flags="0x4"/>
    </TTGlyph>
    <TTGlyph name="I" xMin="32" yMin="0" xMax="270" yMax="654">
      <contour>
        <pt x="162" y="654" on="1"/>
        <pt x="270" y="654" on="1"/>
        <pt x="140" y="0" on="1"/>
        <pt x="32" y="0" on="1"/>
      </contour>
    </TTGlyph>
    <TTGlyph name="I.a" xMin="-7" yMin="0" xMax="382" yMax="654">
      <contour>
        <pt x="12" y="91" on="1"/>
        <pt x="85" y="91" on="1"/>
        <pt x="181" y="563" on="1"/>
        <pt x="106" y="563" on="1"/>
        <pt x="125" y="654" on="1"/>
        <pt x="382" y="654" on="1"/>
        <pt x="363" y="563" on="1"/>
        <pt x="289" y="563" on="1"/>
        <pt x="193" y="91" on="1"/>
        <pt x="270" y="91" on="1"/>
        <pt x="251" y="0" on="1"/>
        <pt x="-7" y="0" on="1"/>
      </contour>
    </TTGlyph>
    <TTGlyph name="Iacute" xMin="32" yMin="0" xMax="376" yMax="818">
      <component glyphName="I" x="0" y="0" flags="0x204"/>
      <component glyphName="uni0301.cap" x="93" y="0" flags="0x4"/>
    </TTGlyph>
    <TTGlyph name="Iacute.a" xMin="-7" yMin="0" xMax="411" yMax="818">
      <component glyphName="I.a" x="0" y="0" flags="0x204"/>
      <component glyphName="uni0301.cap" x="128" y="0" flags="0x4"/>
    </TTGlyph>
    <TTGlyph name="Icircumflex" xMin="32" yMin="0" xMax="358" yMax="818">
      <component glyphName="I" x="0" y="0" flags="0x204"/>
      <component glyphName="uni0302.cap" x="93" y="0" flags="0x4"/>
    </TTGlyph>
    <TTGlyph name="Icircumflex.a" xMin="-7" yMin="0" xMax="393" yMax="818">
      <component glyphName="I.a" x="0" y="0" flags="0x204"/>
      <component glyphName="uni0302.cap" x="128" y="0" flags="0x4"/>
    </TTGlyph>
    <TTGlyph name="Idieresis" xMin="32" yMin="0" xMax="372" yMax="822">
      <component glyphName="I" x="0" y="0" flags="0x204"/>
      <component glyphName="uni0308.cap" x="93" y="0" flags="0x4"/>
    </TTGlyph>
    <TTGlyph name="Idieresis.a" xMin="-7" yMin="0" xMax="407" yMax="822">
      <component glyphName="I.a" x="0" y="0" flags="0x204"/>
      <component glyphName="uni0308.cap" x="128" y="0" flags="0x4"/>
    </TTGlyph>
    <TTGlyph name="Idotaccent" xMin="32" yMin="0" xMax="295" yMax="835">
      <component glyphName="I" x="0" y="0" flags="0x204"/>
      <component glyphName="uni0307.cap" x="93" y="0" flags="0x4"/>
    </TTGlyph>
    <TTGlyph name="Idotaccent.a" xMin="-7" yMin="0" xMax="382" yMax="835">
      <component glyphName="I.a" x="0" y="0" flags="0x204"/>
      <component glyphName="uni0307.cap" x="128" y="0" flags="0x4"/>
    </TTGlyph>
    <TTGlyph name="Igrave" xMin="32" yMin="0" xMax="272" yMax="818">
      <component glyphName="I" x="0" y="0" flags="0x204"/>
      <component glyphName="uni0300.cap" x="93" y="0" flags="0x4"/>
    </TTGlyph>
    <TTGlyph name="Igrave.a" xMin="-7" yMin="0" xMax="382" yMax="818">
      <component glyphName="I.a" x="0" y="0" flags="0x204"/>
      <component glyphName="uni0300.cap" x="128" y="0" flags="0x4"/>
    </TTGlyph>
    <TTGlyph name="Imacron" xMin="32" yMin="0" xMax="359" yMax="796">
      <component glyphName="I" x="0" y="0" flags="0x204"/>
      <component glyphName="uni0304.cap" x="93" y="0" flags="0x4"/>
    </TTGlyph>
    <TTGlyph name="Imacron.a" xMin="-7" yMin="0" xMax="394" yMax="796">
      <component glyphName="I.a" x="0" y="0" flags="0x204"/>
      <component glyphName="uni0304.cap" x="128" y="0" flags="0x4"/>
    </TTGlyph>
    <TTGlyph name="Iogonek" xMin="-37" yMin="-216" xMax="270" yMax="654">
      <contour>
        <pt x="49" y="-110" on="1"/>
        <pt x="49" y="-127" on="0"/>
        <pt x="70" y="-145" on="0"/>
        <pt x="85" y="-145" on="1"/>
        <pt x="99" y="-145" on="0"/>
        <pt x="116" y="-135" on="1"/>
        <pt x="138" y="-188" on="1"/>
        <pt x="120" y="-201" on="0"/>
        <pt x="67" y="-216" on="0"/>
        <pt x="47" y="-216" on="1"/>
        <pt x="10" y="-216" on="0"/>
        <pt x="-37" y="-179" on="0"/>
        <pt x="-37" y="-144" on="1"/>
        <pt x="-37" y="-120" on="0"/>
        <pt x="-17" y="-76" on="0"/>
        <pt x="11" y="-38" on="0"/>
        <pt x="43" y="-9" on="0"/>
        <pt x="55" y="0" on="1"/>
        <pt x="32" y="0" on="1"/>
        <pt x="162" y="654" on="1"/>
        <pt x="270" y="654" on="1"/>
        <pt x="140" y="0" on="1"/>
        <pt x="97" y="-21" on="0"/>
        <pt x="49" y="-84" on="0"/>
      </contour>
    </TTGlyph>
    <TTGlyph name="Iogonek.a" xMin="-7" yMin="-216" xMax="382" yMax="654">
      <contour>
        <pt x="12" y="91" on="1"/>
        <pt x="85" y="91" on="1"/>
        <pt x="181" y="563" on="1"/>
        <pt x="106" y="563" on="1"/>
        <pt x="125" y="654" on="1"/>
        <pt x="382" y="654" on="1"/>
        <pt x="363" y="563" on="1"/>
        <pt x="289" y="563" on="1"/>
        <pt x="193" y="91" on="1"/>
        <pt x="270" y="91" on="1"/>
        <pt x="251" y="0" on="1"/>
        <pt x="176" y="0" on="1"/>
        <pt x="133" y="-21" on="0"/>
        <pt x="86" y="-84" on="0"/>
        <pt x="86" y="-110" on="1"/>
        <pt x="86" y="-127" on="0"/>
        <pt x="107" y="-145" on="0"/>
        <pt x="121" y="-145" on="1"/>
        <pt x="136" y="-145" on="0"/>
        <pt x="152" y="-135" on="1"/>
        <pt x="174" y="-188" on="1"/>
        <pt x="156" y="-201" on="0"/>
        <pt x="104" y="-216" on="0"/>
        <pt x="84" y="-216" on="1"/>
        <pt x="46" y="-216" on="0"/>
        <pt x="-1" y="-179" on="0"/>
        <pt x="-1" y="-144" on="1"/>
        <pt x="-1" y="-120" on="0"/>
        <pt x="19" y="-76" on="0"/>
        <pt x="47" y="-38" on="0"/>
        <pt x="80" y="-9" on="0"/>
        <pt x="92" y="0" on="1"/>
        <pt x="-7" y="0" on="1"/>
      </contour>
    </TTGlyph>
    <TTGlyph name="Itilde" xMin="32" yMin="0" xMax="387" yMax="825">
      <component glyphName="I" x="0" y="0" flags="0x204"/>
      <component glyphName="uni0303.cap" x="93" y="0" flags="0x4"/>
    </TTGlyph>
    <TTGlyph name="Itilde.a" xMin="-7" yMin="0" xMax="422" yMax="825">
      <component glyphName="I.a" x="0" y="0" flags="0x204"/>
      <component glyphName="uni0303.cap" x="128" y="0" flags="0x4"/>
    </TTGlyph>
    <TTGlyph name="J" xMin="-5" yMin="-12" xMax="477" yMax="654">
      <contour>
        <pt x="385" y="194" on="1"/>
        <pt x="377" y="150" on="0"/>
        <pt x="342" y="75" on="0"/>
        <pt x="289" y="20" on="0"/>
        <pt x="215" y="-12" on="0"/>
        <pt x="168" y="-12" on="1"/>
        <pt x="110" y="-12" on="0"/>
        <pt x="20" y="41" on="0"/>
        <pt x="-5" y="88" on="1"/>
        <pt x="63" y="151" on="1"/>
        <pt x="77" y="120" on="0"/>
        <pt x="130" y="81" on="0"/>
        <pt x="168" y="81" on="1"/>
        <pt x="213" y="81" on="0"/>
        <pt x="268" y="148" on="0"/>
        <pt x="281" y="211" on="1"/>
        <pt x="369" y="654" on="1"/>
        <pt x="477" y="654" on="1"/>
        <pt x="385" y="194" on="1"/>
      </contour>
    </TTGlyph>
    <TTGlyph name="Jcircumflex" xMin="-5" yMin="-12" xMax="564" yMax="818">
      <component glyphName="J" x="0" y="0" flags="0x204"/>
      <component glyphName="uni0302.cap" x="299" y="0" flags="0x4"/>
    </TTGlyph>
    <TTGlyph name="K" xMin="32" yMin="0" xMax="620" yMax="654">
      <contour>
        <pt x="162" y="654" on="1"/>
        <pt x="270" y="654" on="1"/>
        <pt x="211" y="358" on="1"/>
        <pt x="215" y="358" on="1"/>
        <pt x="501" y="654" on="1"/>
        <pt x="620" y="654" on="1"/>
        <pt x="379" y="394" on="1"/>
        <pt x="526" y="0" on="1"/>
        <pt x="414" y="0" on="1"/>
        <pt x="299" y="326" on="1"/>
        <pt x="181" y="206" on="1"/>
        <pt x="140" y="0" on="1"/>
        <pt x="32" y="0" on="1"/>
      </contour>
    </TTGlyph>
    <TTGlyph name="L" xMin="32" yMin="0" xMax="419" yMax="654">
      <contour>
        <pt x="162" y="654" on="1"/>
        <pt x="270" y="654" on="1"/>
        <pt x="158" y="91" on="1"/>
        <pt x="419" y="91" on="1"/>
        <pt x="401" y="0" on="1"/>
        <pt x="32" y="0" on="1"/>
      </contour>
    </TTGlyph>
    <TTGlyph name="Lacute" xMin="32" yMin="0" xMax="419" yMax="818">
      <component glyphName="L" x="0" y="0" flags="0x204"/>
      <component glyphName="uni0301.cap" x="104" y="0" flags="0x4"/>
    </TTGlyph>
    <TTGlyph name="Lcaron" xMin="32" yMin="0" xMax="491" yMax="728">
      <component glyphName="L" x="0" y="0" flags="0x204"/>
      <component glyphName="uni030C.a" x="359" y="-37" flags="0x4"/>
    </TTGlyph>
    <TTGlyph name="Ldot" xMin="32" yMin="0" xMax="465" yMax="654">
      <component glyphName="L" x="0" y="0" flags="0x204"/>
      <component glyphName="period" x="301" y="266" flags="0x4"/>
    </TTGlyph>
    <TTGlyph name="Lslash" xMin="-6" yMin="0" xMax="419" yMax="654">
      <contour>
        <pt x="419" y="91" on="1"/>
        <pt x="401" y="0" on="1"/>
        <pt x="32" y="0" on="1"/>
        <pt x="76" y="219" on="1"/>
        <pt x="-6" y="179" on="1"/>
        <pt x="12" y="271" on="1"/>
        <pt x="94" y="311" on="1"/>
        <pt x="162" y="654" on="1"/>
        <pt x="270" y="654" on="1"/>
        <pt x="213" y="366" on="1"/>
        <pt x="406" y="462" on="1"/>
        <pt x="388" y="370" on="1"/>
        <pt x="194" y="274" on="1"/>
        <pt x="158" y="91" on="1"/>
      </contour>
    </TTGlyph>
    <TTGlyph name="M" xMin="32" yMin="0" xMax="721" yMax="654">
      <contour>
        <pt x="162" y="654" on="1"/>
        <pt x="282" y="654" on="1"/>
        <pt x="334" y="327" on="1"/>
        <pt x="353" y="201" on="1"/>
        <pt x="357" y="201" on="1"/>
        <pt x="422" y="327" on="1"/>
        <pt x="602" y="654" on="1"/>
        <pt x="721" y="654" on="1"/>
        <pt x="590" y="0" on="1"/>
        <pt x="488" y="0" on="1"/>
        <pt x="553" y="314" on="1"/>
        <pt x="558" y="337" on="0"/>
        <pt x="571" y="390" on="0"/>
        <pt x="585" y="444" on="0"/>
        <pt x="599" y="496" on="0"/>
        <pt x="606" y="519" on="1"/>
        <pt x="603" y="519" on="1"/>
        <pt x="523" y="371" on="1"/>
        <pt x="350" y="64" on="1"/>
        <pt x="300" y="64" on="1"/>
        <pt x="246" y="371" on="1"/>
        <pt x="225" y="519" on="1"/>
        <pt x="221" y="519" on="1"/>
        <pt x="216" y="473" on="0"/>
        <pt x="203" y="360" on="0"/>
        <pt x="194" y="314" on="1"/>
        <pt x="131" y="0" on="1"/>
        <pt x="32" y="0" on="1"/>
      </contour>
    </TTGlyph>
    <TTGlyph name="N" xMin="32" yMin="0" xMax="630" yMax="654">
      <contour>
        <pt x="162" y="654" on="1"/>
        <pt x="268" y="654" on="1"/>
        <pt x="396" y="275" on="1"/>
        <pt x="434" y="134" on="1"/>
        <pt x="438" y="134" on="1"/>
        <pt x="444" y="185" on="0"/>
        <pt x="456" y="303" on="0"/>
        <pt x="467" y="357" on="1"/>
        <pt x="526" y="654" on="1"/>
        <pt x="630" y="654" on="1"/>
        <pt x="499" y="0" on="1"/>
        <pt x="394" y="0" on="1"/>
        <pt x="267" y="378" on="1"/>
        <pt x="229" y="521" on="1"/>
        <pt x="225" y="521" on="1"/>
        <pt x="219" y="468" on="0"/>
        <pt x="205" y="354" on="0"/>
        <pt x="194" y="300" on="1"/>
        <pt x="135" y="0" on="1"/>
        <pt x="32" y="0" on="1"/>
      </contour>
    </TTGlyph>
    <TTGlyph name="Nacute" xMin="32" yMin="0" xMax="630" yMax="818">
      <component glyphName="N" x="0" y="0" flags="0x204"/>
      <component glyphName="uni0301.cap" x="281" y="0" flags="0x4"/>
    </TTGlyph>
    <TTGlyph name="Ncaron" xMin="32" yMin="0" xMax="630" yMax="818">
      <component glyphName="N" x="0" y="0" flags="0x204"/>
      <component glyphName="uni030C.cap" x="281" y="0" flags="0x4"/>
    </TTGlyph>
    <TTGlyph name="Ntilde" xMin="32" yMin="0" xMax="630" yMax="825">
      <component glyphName="N" x="0" y="0" flags="0x204"/>
      <component glyphName="uni0303.cap" x="281" y="0" flags="0x4"/>
    </TTGlyph>
    <TTGlyph name="O" xMin="58" yMin="-12" xMax="620" yMax="666">
      <contour>
        <pt x="294" y="-12" on="1"/>
        <pt x="239" y="-12" on="0"/>
        <pt x="151" y="26" on="0"/>
        <pt x="90" y="98" on="0"/>
        <pt x="58" y="200" on="0"/>
        <pt x="58" y="263" on="1"/>
        <pt x="58" y="344" on="0"/>
        <pt x="109" y="490" on="0"/>
        <pt x="197" y="601" on="0"/>
        <pt x="316" y="666" on="0"/>
        <pt x="384" y="666" on="1"/>
        <pt x="439" y="666" on="0"/>
        <pt x="527" y="628" on="0"/>
        <pt x="588" y="556" on="0"/>
        <pt x="620" y="454" on="0"/>
        <pt x="620" y="391" on="1"/>
        <pt x="620" y="310" on="0"/>
        <pt x="570" y="164" on="0"/>
        <pt x="482" y="53" on="0"/>
        <pt x="363" y="-12" on="0"/>
      </contour>
      <contour>
        <pt x="378" y="573" on="1"/>
        <pt x="334" y="573" on="0"/>
        <pt x="258" y="521" on="0"/>
        <pt x="202" y="437" on="0"/>
        <pt x="169" y="328" on="0"/>
        <pt x="169" y="271" on="1"/>
        <pt x="169" y="183" on="0"/>
        <pt x="234" y="81" on="0"/>
        <pt x="300" y="81" on="1"/>
        <pt x="343" y="81" on="0"/>
        <pt x="420" y="133" on="0"/>
        <pt x="477" y="217" on="0"/>
        <pt x="510" y="326" on="0"/>
        <pt x="510" y="383" on="1"/>
        <pt x="510" y="471" on="0"/>
        <pt x="444" y="573" on="0"/>
      </contour>
    </TTGlyph>
    <TTGlyph name="OE" xMin="58" yMin="0" xMax="846" yMax="654">
      <contour>
        <pt x="58" y="256" on="1"/>
        <pt x="58" y="349" on="0"/>
        <pt x="109" y="497" on="0"/>
        <pt x="203" y="599" on="0"/>
        <pt x="334" y="654" on="0"/>
        <pt x="415" y="654" on="1"/>
        <pt x="846" y="654" on="1"/>
        <pt x="828" y="563" on="1"/>
        <pt x="576" y="563" on="1"/>
        <pt x="542" y="387" on="1"/>
        <pt x="753" y="387" on="1"/>
        <pt x="735" y="296" on="1"/>
        <pt x="524" y="296" on="1"/>
        <pt x="482" y="91" on="1"/>
        <pt x="743" y="91" on="1"/>
        <pt x="725" y="0" on="1"/>
        <pt x="342" y="0" on="1"/>
        <pt x="205" y="0" on="0"/>
        <pt x="58" y="131" on="0"/>
      </contour>
      <contour>
        <pt x="417" y="567" on="1"/>
        <pt x="362" y="567" on="0"/>
        <pt x="271" y="526" on="0"/>
        <pt x="205" y="448" on="0"/>
        <pt x="169" y="335" on="0"/>
        <pt x="169" y="263" on="1"/>
        <pt x="169" y="175" on="0"/>
        <pt x="261" y="87" on="0"/>
        <pt x="345" y="87" on="1"/>
        <pt x="375" y="87" on="1"/>
        <pt x="470" y="567" on="1"/>
      </contour>
    </TTGlyph>
    <TTGlyph name="Oacute" xMin="58" yMin="-12" xMax="620" yMax="818">
      <component glyphName="O" x="0" y="0" flags="0x204"/>
      <component glyphName="uni0301.cap" x="286" y="0" flags="0x4"/>
    </TTGlyph>
    <TTGlyph name="Ocircumflex" xMin="58" yMin="-12" xMax="620" yMax="818">
      <component glyphName="O" x="0" y="0" flags="0x204"/>
      <component glyphName="uni0302.cap" x="286" y="0" flags="0x4"/>
    </TTGlyph>
    <TTGlyph name="Odieresis" xMin="58" yMin="-12" xMax="620" yMax="822">
      <component glyphName="O" x="0" y="0" flags="0x204"/>
      <component glyphName="uni0308.cap" x="286" y="0" flags="0x4"/>
    </TTGlyph>
    <TTGlyph name="Ograve" xMin="58" yMin="-12" xMax="620" yMax="818">
      <component glyphName="O" x="0" y="0" flags="0x204"/>
      <component glyphName="uni0300.cap" x="286" y="0" flags="0x4"/>
    </TTGlyph>
    <TTGlyph name="Ohorn" xMin="58" yMin="-12" xMax="680" yMax="770">
      <contour>
        <pt x="300" y="81" on="1"/>
        <pt x="343" y="81" on="0"/>
        <pt x="420" y="133" on="0"/>
        <pt x="477" y="217" on="0"/>
        <pt x="510" y="326" on="0"/>
        <pt x="510" y="383" on="1"/>
        <pt x="510" y="471" on="0"/>
        <pt x="444" y="573" on="0"/>
        <pt x="378" y="573" on="1"/>
        <pt x="334" y="573" on="0"/>
        <pt x="258" y="521" on="0"/>
        <pt x="202" y="437" on="0"/>
        <pt x="169" y="328" on="0"/>
        <pt x="169" y="271" on="1"/>
        <pt x="169" y="183" on="0"/>
        <pt x="234" y="81" on="0"/>
      </contour>
      <contour>
        <pt x="668" y="770" on="1"/>
        <pt x="680" y="741" on="0"/>
        <pt x="680" y="716" on="1"/>
        <pt x="680" y="671" on="0"/>
        <pt x="614" y="605" on="0"/>
        <pt x="556" y="594" on="1"/>
        <pt x="587" y="558" on="0"/>
        <pt x="620" y="456" on="0"/>
        <pt x="620" y="391" on="1"/>
        <pt x="620" y="310" on="0"/>
        <pt x="570" y="164" on="0"/>
        <pt x="482" y="53" on="0"/>
        <pt x="363" y="-12" on="0"/>
        <pt x="294" y="-12" on="1"/>
        <pt x="239" y="-12" on="0"/>
        <pt x="151" y="26" on="0"/>
        <pt x="90" y="98" on="0"/>
        <pt x="58" y="200" on="0"/>
        <pt x="58" y="263" on="1"/>
        <pt x="58" y="344" on="0"/>
        <pt x="109" y="490" on="0"/>
        <pt x="197" y="601" on="0"/>
        <pt x="316" y="666" on="0"/>
        <pt x="384" y="666" on="1"/>
        <pt x="454" y="666" on="0"/>
        <pt x="504" y="636" on="1"/>
        <pt x="545" y="640" on="0"/>
        <pt x="593" y="680" on="0"/>
        <pt x="593" y="709" on="1"/>
        <pt x="593" y="724" on="0"/>
        <pt x="587" y="744" on="1"/>
      </contour>
    </TTGlyph>
    <TTGlyph name="Ohungarumlaut" xMin="58" yMin="-12" xMax="631" yMax="819">
      <component glyphName="O" x="0" y="0" flags="0x204"/>
      <component glyphName="uni030B.cap" x="286" y="0" flags="0x4"/>
    </TTGlyph>
    <TTGlyph name="Omacron" xMin="58" yMin="-12" xMax="620" yMax="796">
      <component glyphName="O" x="0" y="0" flags="0x204"/>
      <component glyphName="uni0304.cap" x="286" y="0" flags="0x4"/>
    </TTGlyph>
    <TTGlyph name="Oslash" xMin="-6" yMin="-35" xMax="692" yMax="692">
      <contour>
        <pt x="202" y="131" on="1"/>
        <pt x="236" y="81" on="0"/>
        <pt x="300" y="81" on="1"/>
        <pt x="343" y="81" on="0"/>
        <pt x="420" y="133" on="0"/>
        <pt x="477" y="217" on="0"/>
        <pt x="510" y="326" on="0"/>
        <pt x="510" y="383" on="1"/>
        <pt x="510" y="419" on="0"/>
        <pt x="504" y="449" on="1"/>
      </contour>
      <contour>
        <pt x="479" y="519" on="1"/>
        <pt x="462" y="545" on="0"/>
        <pt x="412" y="573" on="0"/>
        <pt x="378" y="573" on="1"/>
        <pt x="334" y="573" on="0"/>
        <pt x="258" y="521" on="0"/>
        <pt x="202" y="437" on="0"/>
        <pt x="169" y="328" on="0"/>
        <pt x="169" y="271" on="1"/>
        <pt x="169" y="233" on="0"/>
        <pt x="175" y="200" on="1"/>
      </contour>
      <contour>
        <pt x="590" y="540" on="1"/>
        <pt x="620" y="478" on="0"/>
        <pt x="620" y="391" on="1"/>
        <pt x="620" y="310" on="0"/>
        <pt x="570" y="164" on="0"/>
        <pt x="482" y="53" on="0"/>
        <pt x="363" y="-12" on="0"/>
        <pt x="294" y="-12" on="1"/>
        <pt x="191" y="-12" on="0"/>
        <pt x="128" y="54" on="1"/>
        <pt x="44" y="-35" on="1"/>
        <pt x="-6" y="10" on="1"/>
        <pt x="90" y="110" on="1"/>
        <pt x="58" y="174" on="0"/>
        <pt x="58" y="263" on="1"/>
        <pt x="58" y="344" on="0"/>
        <pt x="109" y="490" on="0"/>
        <pt x="197" y="601" on="0"/>
        <pt x="316" y="666" on="0"/>
        <pt x="384" y="666" on="1"/>
        <pt x="438" y="666" on="0"/>
        <pt x="523" y="630" on="0"/>
        <pt x="553" y="597" on="1"/>
        <pt x="644" y="692" on="1"/>
        <pt x="692" y="647" on="1"/>
      </contour>
    </TTGlyph>
    <TTGlyph name="Otilde" xMin="58" yMin="-12" xMax="620" yMax="825">
      <component glyphName="O" x="0" y="0" flags="0x204"/>
      <component glyphName="uni0303.cap" x="286" y="0" flags="0x4"/>
    </TTGlyph>
    <TTGlyph name="P" xMin="32" yMin="0" xMax="573" yMax="654">
      <contour>
        <pt x="162" y="654" on="1"/>
        <pt x="358" y="654" on="1"/>
        <pt x="405" y="654" on="0"/>
        <pt x="484" y="636" on="0"/>
        <pt x="541" y="595" on="0"/>
        <pt x="573" y="532" on="0"/>
        <pt x="573" y="487" on="1"/>
        <pt x="573" y="423" on="0"/>
        <pt x="528" y="331" on="0"/>
        <pt x="449" y="273" on="0"/>
        <pt x="341" y="245" on="0"/>
        <pt x="279" y="245" on="1"/>
        <pt x="188" y="245" on="1"/>
        <pt x="140" y="0" on="1"/>
        <pt x="32" y="0" on="1"/>
      </contour>
      <contour>
        <pt x="288" y="331" on="1"/>
        <pt x="375" y="331" on="0"/>
        <pt x="466" y="402" on="0"/>
        <pt x="466" y="472" on="1"/>
        <pt x="466" y="523" on="0"/>
        <pt x="400" y="568" on="0"/>
        <pt x="338" y="568" on="1"/>
        <pt x="252" y="568" on="1"/>
        <pt x="206" y="331" on="1"/>
      </contour>
    </TTGlyph>
    <TTGlyph name="Q" xMin="58" yMin="-169" xMax="620" yMax="666">
      <contour>
        <pt x="378" y="573" on="1"/>
        <pt x="334" y="573" on="0"/>
        <pt x="258" y="521" on="0"/>
        <pt x="202" y="437" on="0"/>
        <pt x="169" y="328" on="0"/>
        <pt x="169" y="271" on="1"/>
        <pt x="169" y="183" on="0"/>
        <pt x="234" y="81" on="0"/>
        <pt x="300" y="81" on="1"/>
        <pt x="343" y="81" on="0"/>
        <pt x="420" y="133" on="0"/>
        <pt x="477" y="217" on="0"/>
        <pt x="510" y="326" on="0"/>
        <pt x="510" y="383" on="1"/>
        <pt x="510" y="471" on="0"/>
        <pt x="444" y="573" on="0"/>
      </contour>
      <contour>
        <pt x="544" y="-156" on="1"/>
        <pt x="527" y="-162" on="0"/>
        <pt x="488" y="-169" on="0"/>
        <pt x="471" y="-169" on="1"/>
        <pt x="379" y="-169" on="0"/>
        <pt x="250" y="-87" on="0"/>
        <pt x="220" y="-2" on="1"/>
        <pt x="143" y="21" on="0"/>
        <pt x="58" y="158" on="0"/>
        <pt x="58" y="263" on="1"/>
        <pt x="58" y="344" on="0"/>
        <pt x="109" y="490" on="0"/>
        <pt x="197" y="601" on="0"/>
        <pt x="316" y="666" on="0"/>
        <pt x="384" y="666" on="1"/>
        <pt x="439" y="666" on="0"/>
        <pt x="527" y="628" on="0"/>
        <pt x="588" y="556" on="0"/>
        <pt x="620" y="454" on="0"/>
        <pt x="620" y="391" on="1"/>
        <pt x="620" y="316" on="0"/>
        <pt x="576" y="179" on="0"/>
        <pt x="499" y="71" on="0"/>
        <pt x="394" y="0" on="0"/>
        <pt x="332" y="-9" on="1"/>
        <pt x="352" y="-47" on="0"/>
        <pt x="430" y="-81" on="0"/>
        <pt x="478" y="-81" on="1"/>
        <pt x="495" y="-81" on="0"/>
        <pt x="524" y="-77" on="0"/>
        <pt x="538" y="-73" on="1"/>
      </contour>
    </TTGlyph>
    <TTGlyph name="R" xMin="32" yMin="0" xMax="569" yMax="654">
      <contour>
        <pt x="292" y="344" on="1"/>
        <pt x="376" y="344" on="0"/>
        <pt x="462" y="417" on="0"/>
        <pt x="462" y="479" on="1"/>
        <pt x="462" y="527" on="0"/>
        <pt x="397" y="568" on="0"/>
        <pt x="334" y="568" on="1"/>
        <pt x="252" y="568" on="1"/>
        <pt x="209" y="344" on="1"/>
      </contour>
      <contour>
        <pt x="355" y="654" on="1"/>
        <pt x="402" y="654" on="0"/>
        <pt x="480" y="637" on="0"/>
        <pt x="537" y="598" on="0"/>
        <pt x="569" y="537" on="0"/>
        <pt x="569" y="494" on="1"/>
        <pt x="569" y="448" on="0"/>
        <pt x="542" y="375" on="0"/>
        <pt x="494" y="319" on="0"/>
        <pt x="429" y="281" on="0"/>
        <pt x="390" y="271" on="1"/>
        <pt x="498" y="0" on="1"/>
        <pt x="383" y="0" on="1"/>
        <pt x="288" y="258" on="1"/>
        <pt x="191" y="258" on="1"/>
        <pt x="140" y="0" on="1"/>
        <pt x="32" y="0" on="1"/>
        <pt x="162" y="654" on="1"/>
      </contour>
    </TTGlyph>
    <TTGlyph name="Racute" xMin="32" yMin="0" xMax="569" yMax="818">
      <component glyphName="R" x="0" y="0" flags="0x204"/>
      <component glyphName="uni0301.cap" x="249" y="0" flags="0x4"/>
    </TTGlyph>
    <TTGlyph name="Rcaron" xMin="32" yMin="0" xMax="569" yMax="818">
      <component glyphName="R" x="0" y="0" flags="0x204"/>
      <component glyphName="uni030C.cap" x="249" y="0" flags="0x4"/>
    </TTGlyph>
    <TTGlyph name="S" xMin="8" yMin="-12" xMax="522" yMax="666">
      <contour>
        <pt x="86" y="167" on="1"/>
        <pt x="115" y="127" on="0"/>
        <pt x="195" y="80" on="0"/>
        <pt x="243" y="80" on="1"/>
        <pt x="294" y="80" on="0"/>
        <pt x="360" y="133" on="0"/>
        <pt x="360" y="179" on="1"/>
        <pt x="360" y="210" on="0"/>
        <pt x="317" y="251" on="0"/>
        <pt x="281" y="273" on="1"/>
        <pt x="212" y="315" on="1"/>
        <pt x="169" y="341" on="0"/>
        <pt x="113" y="416" on="0"/>
        <pt x="113" y="474" on="1"/>
        <pt x="113" y="513" on="0"/>
        <pt x="146" y="583" on="0"/>
        <pt x="205" y="636" on="0"/>
        <pt x="284" y="666" on="0"/>
        <pt x="330" y="666" on="1"/>
        <pt x="389" y="666" on="0"/>
        <pt x="487" y="613" on="0"/>
        <pt x="522" y="570" on="1"/>
        <pt x="453" y="507" on="1"/>
        <pt x="428" y="535" on="0"/>
        <pt x="365" y="573" on="0"/>
        <pt x="324" y="573" on="1"/>
        <pt x="276" y="573" on="0"/>
        <pt x="224" y="519" on="0"/>
        <pt x="224" y="485" on="1"/>
        <pt x="224" y="453" on="0"/>
        <pt x="269" y="414" on="0"/>
        <pt x="307" y="391" on="1"/>
        <pt x="377" y="349" on="1"/>
        <pt x="425" y="321" on="0"/>
        <pt x="472" y="251" on="0"/>
        <pt x="472" y="194" on="1"/>
        <pt x="472" y="150" on="0"/>
        <pt x="438" y="75" on="0"/>
        <pt x="375" y="19" on="0"/>
        <pt x="287" y="-12" on="0"/>
        <pt x="234" y="-12" on="1"/>
        <pt x="168" y="-12" on="0"/>
        <pt x="53" y="44" on="0"/>
        <pt x="8" y="107" on="1"/>
      </contour>
    </TTGlyph>
    <TTGlyph name="Sacute" xMin="8" yMin="-12" xMax="522" yMax="822">
      <component glyphName="S" x="0" y="0" flags="0x204"/>
      <component glyphName="uni0301.cap" x="230" y="4" flags="0x4"/>
    </TTGlyph>
    <TTGlyph name="Scaron" xMin="8" yMin="-12" xMax="522" yMax="822">
      <component glyphName="S" x="0" y="0" flags="0x204"/>
      <component glyphName="uni030C.cap" x="230" y="4" flags="0x4"/>
    </TTGlyph>
    <TTGlyph name="Scircumflex" xMin="8" yMin="-12" xMax="522" yMax="822">
      <component glyphName="S" x="0" y="0" flags="0x204"/>
      <component glyphName="uni0302.cap" x="230" y="4" flags="0x4"/>
    </TTGlyph>
    <TTGlyph name="T" xMin="88" yMin="0" xMax="576" yMax="654">
      <contour>
        <pt x="269" y="562" on="1"/>
        <pt x="88" y="562" on="1"/>
        <pt x="106" y="654" on="1"/>
        <pt x="576" y="654" on="1"/>
        <pt x="558" y="562" on="1"/>
        <pt x="377" y="562" on="1"/>
        <pt x="265" y="0" on="1"/>
        <pt x="157" y="0" on="1"/>
      </contour>
    </TTGlyph>
    <TTGlyph name="Tcaron" xMin="88" yMin="0" xMax="576" yMax="818">
      <component glyphName="T" x="0" y="0" flags="0x204"/>
      <component glyphName="uni030C.cap" x="218" y="0" flags="0x4"/>
    </TTGlyph>
    <TTGlyph name="Thorn" xMin="32" yMin="0" xMax="554" yMax="660">
      <contour>
        <pt x="162" y="660" on="1"/>
        <pt x="270" y="660" on="1"/>
        <pt x="249" y="550" on="1"/>
        <pt x="350" y="550" on="1"/>
        <pt x="395" y="550" on="0"/>
        <pt x="470" y="532" on="0"/>
        <pt x="524" y="492" on="0"/>
        <pt x="554" y="429" on="0"/>
        <pt x="554" y="384" on="1"/>
        <pt x="554" y="319" on="0"/>
        <pt x="508" y="227" on="0"/>
        <pt x="429" y="169" on="0"/>
        <pt x="321" y="141" on="0"/>
        <pt x="259" y="141" on="1"/>
        <pt x="166" y="141" on="1"/>
        <pt x="138" y="0" on="1"/>
        <pt x="32" y="0" on="1"/>
      </contour>
      <contour>
        <pt x="267" y="227" on="1"/>
        <pt x="355" y="227" on="0"/>
        <pt x="447" y="299" on="0"/>
        <pt x="447" y="368" on="1"/>
        <pt x="447" y="419" on="0"/>
        <pt x="384" y="464" on="0"/>
        <pt x="324" y="464" on="1"/>
        <pt x="231" y="464" on="1"/>
        <pt x="184" y="227" on="1"/>
      </contour>
    </TTGlyph>
    <TTGlyph name="U" xMin="77" yMin="-12" xMax="632" yMax="654">
      <contour>
        <pt x="159" y="654" on="1"/>
        <pt x="267" y="654" on="1"/>
        <pt x="194" y="288" on="1"/>
        <pt x="185" y="246" on="0"/>
        <pt x="185" y="211" on="1"/>
        <pt x="185" y="148" on="0"/>
        <pt x="239" y="81" on="0"/>
        <pt x="301" y="81" on="1"/>
        <pt x="353" y="81" on="0"/>
        <pt x="428" y="165" on="0"/>
        <pt x="448" y="264" on="1"/>
        <pt x="526" y="654" on="1"/>
        <pt x="632" y="654" on="1"/>
        <pt x="553" y="264" on="1"/>
        <pt x="524" y="118" on="0"/>
        <pt x="394" y="-12" on="0"/>
        <pt x="297" y="-12" on="1"/>
        <pt x="188" y="-12" on="0"/>
        <pt x="77" y="96" on="0"/>
        <pt x="77" y="205" on="1"/>
        <pt x="77" y="227" on="0"/>
        <pt x="84" y="279" on="0"/>
        <pt x="89" y="304" on="1"/>
      </contour>
    </TTGlyph>
    <TTGlyph name="Uacute" xMin="77" yMin="-12" xMax="632" yMax="818">
      <component glyphName="U" x="0" y="0" flags="0x204"/>
      <component glyphName="uni0301.cap" x="278" y="0" flags="0x4"/>
    </TTGlyph>
    <TTGlyph name="Ubreve" xMin="77" yMin="-12" xMax="632" yMax="818">
      <component glyphName="U" x="0" y="0" flags="0x204"/>
      <component glyphName="uni0306.cap" x="278" y="0" flags="0x4"/>
    </TTGlyph>
    <TTGlyph name="Ucircumflex" xMin="77" yMin="-12" xMax="632" yMax="818">
      <component glyphName="U" x="0" y="0" flags="0x204"/>
      <component glyphName="uni0302.cap" x="278" y="0" flags="0x4"/>
    </TTGlyph>
    <TTGlyph name="Udieresis" xMin="77" yMin="-12" xMax="632" yMax="822">
      <component glyphName="U" x="0" y="0" flags="0x204"/>
      <component glyphName="uni0308.cap" x="278" y="0" flags="0x4"/>
    </TTGlyph>
    <TTGlyph name="Ugrave" xMin="77" yMin="-12" xMax="632" yMax="818">
      <component glyphName="U" x="0" y="0" flags="0x204"/>
      <component glyphName="uni0300.cap" x="278" y="0" flags="0x4"/>
    </TTGlyph>
    <TTGlyph name="Uhorn" xMin="77" yMin="-12" xMax="758" yMax="788">
      <contour>
        <pt x="746" y="788" on="1"/>
        <pt x="753" y="774" on="0"/>
        <pt x="758" y="748" on="0"/>
        <pt x="758" y="734" on="1"/>
        <pt x="758" y="690" on="0"/>
        <pt x="694" y="622" on="0"/>
        <pt x="623" y="609" on="1"/>
        <pt x="553" y="264" on="1"/>
        <pt x="524" y="118" on="0"/>
        <pt x="394" y="-12" on="0"/>
        <pt x="297" y="-12" on="1"/>
        <pt x="188" y="-12" on="0"/>
        <pt x="77" y="96" on="0"/>
        <pt x="77" y="205" on="1"/>
        <pt x="77" y="227" on="0"/>
        <pt x="84" y="279" on="0"/>
        <pt x="89" y="304" on="1"/>
        <pt x="159" y="654" on="1"/>
        <pt x="267" y="654" on="1"/>
        <pt x="194" y="288" on="1"/>
        <pt x="185" y="246" on="0"/>
        <pt x="185" y="211" on="1"/>
        <pt x="185" y="148" on="0"/>
        <pt x="239" y="81" on="0"/>
        <pt x="301" y="81" on="1"/>
        <pt x="353" y="81" on="0"/>
        <pt x="428" y="165" on="0"/>
        <pt x="448" y="264" on="1"/>
        <pt x="526" y="654" on="1"/>
        <pt x="583" y="654" on="1"/>
        <pt x="622" y="657" on="0"/>
        <pt x="672" y="698" on="0"/>
        <pt x="672" y="726" on="1"/>
        <pt x="672" y="743" on="0"/>
        <pt x="665" y="761" on="1"/>
      </contour>
    </TTGlyph>
    <TTGlyph name="Uhungarumlaut" xMin="77" yMin="-12" xMax="632" yMax="819">
      <component glyphName="U" x="0" y="0" flags="0x204"/>
      <component glyphName="uni030B.cap" x="278" y="0" flags="0x4"/>
    </TTGlyph>
    <TTGlyph name="Umacron" xMin="77" yMin="-12" xMax="632" yMax="796">
      <component glyphName="U" x="0" y="0" flags="0x204"/>
      <component glyphName="uni0304.cap" x="278" y="0" flags="0x4"/>
    </TTGlyph>
    <TTGlyph name="Uogonek" xMin="77" yMin="-216" xMax="632" yMax="654">
      <contour>
        <pt x="553" y="264" on="1"/>
        <pt x="541" y="202" on="0"/>
        <pt x="506" y="112" on="0"/>
        <pt x="457" y="49" on="0"/>
        <pt x="393" y="8" on="0"/>
        <pt x="353" y="-7" on="1"/>
        <pt x="298" y="-26" on="0"/>
        <pt x="250" y="-85" on="0"/>
        <pt x="250" y="-110" on="1"/>
        <pt x="250" y="-127" on="0"/>
        <pt x="271" y="-145" on="0"/>
        <pt x="285" y="-145" on="1"/>
        <pt x="300" y="-145" on="0"/>
        <pt x="316" y="-135" on="1"/>
        <pt x="338" y="-190" on="1"/>
        <pt x="319" y="-202" on="0"/>
        <pt x="269" y="-216" on="0"/>
        <pt x="248" y="-216" on="1"/>
        <pt x="210" y="-216" on="0"/>
        <pt x="163" y="-179" on="0"/>
        <pt x="163" y="-144" on="1"/>
        <pt x="163" y="-124" on="0"/>
        <pt x="179" y="-85" on="0"/>
        <pt x="204" y="-49" on="0"/>
        <pt x="234" y="-19" on="0"/>
        <pt x="249" y="-8" on="1"/>
        <pt x="164" y="4" on="0"/>
        <pt x="77" y="110" on="0"/>
        <pt x="77" y="205" on="1"/>
        <pt x="77" y="227" on="0"/>
        <pt x="84" y="279" on="0"/>
        <pt x="89" y="304" on="1"/>
        <pt x="159" y="654" on="1"/>
        <pt x="267" y="654" on="1"/>
        <pt x="194" y="288" on="1"/>
        <pt x="185" y="246" on="0"/>
        <pt x="185" y="211" on="1"/>
        <pt x="185" y="148" on="0"/>
        <pt x="239" y="81" on="0"/>
        <pt x="301" y="81" on="1"/>
        <pt x="353" y="81" on="0"/>
        <pt x="428" y="165" on="0"/>
        <pt x="448" y="264" on="1"/>
        <pt x="526" y="654" on="1"/>
        <pt x="632" y="654" on="1"/>
      </contour>
    </TTGlyph>
    <TTGlyph name="Uring" xMin="77" yMin="-12" xMax="632" yMax="884">
      <component glyphName="U" x="0" y="0" flags="0x204"/>
      <component glyphName="uni030A.cap" x="278" y="0" flags="0x4"/>
    </TTGlyph>
    <TTGlyph name="Utilde" xMin="77" yMin="-12" xMax="632" yMax="825">
      <component glyphName="U" x="0" y="0" flags="0x204"/>
      <component glyphName="uni0303.cap" x="278" y="0" flags="0x4"/>
    </TTGlyph>
    <TTGlyph name="V" xMin="80" yMin="0" xMax="607" yMax="654">
      <contour>
        <pt x="80" y="654" on="1"/>
        <pt x="192" y="654" on="1"/>
        <pt x="214" y="312" on="1"/>
        <pt x="217" y="259" on="0"/>
        <pt x="223" y="153" on="0"/>
        <pt x="225" y="99" on="1"/>
        <pt x="229" y="99" on="1"/>
        <pt x="253" y="152" on="0"/>
        <pt x="302" y="259" on="0"/>
        <pt x="326" y="312" on="1"/>
        <pt x="490" y="654" on="1"/>
        <pt x="607" y="654" on="1"/>
        <pt x="268" y="0" on="1"/>
        <pt x="138" y="0" on="1"/>
      </contour>
    </TTGlyph>
    <TTGlyph name="W" xMin="86" yMin="0" xMax="832" yMax="654">
      <contour>
        <pt x="102" y="654" on="1"/>
        <pt x="212" y="654" on="1"/>
        <pt x="197" y="318" on="1"/>
        <pt x="193" y="265" on="0"/>
        <pt x="187" y="160" on="0"/>
        <pt x="182" y="106" on="1"/>
        <pt x="186" y="106" on="1"/>
        <pt x="208" y="160" on="0"/>
        <pt x="254" y="266" on="0"/>
        <pt x="275" y="318" on="1"/>
        <pt x="424" y="654" on="1"/>
        <pt x="517" y="654" on="1"/>
        <pt x="523" y="318" on="1"/>
        <pt x="523" y="212" on="0"/>
        <pt x="520" y="106" on="1"/>
        <pt x="524" y="106" on="1"/>
        <pt x="543" y="160" on="0"/>
        <pt x="583" y="266" on="0"/>
        <pt x="602" y="318" on="1"/>
        <pt x="728" y="654" on="1"/>
        <pt x="832" y="654" on="1"/>
        <pt x="570" y="0" on="1"/>
        <pt x="434" y="0" on="1"/>
        <pt x="432" y="356" on="1"/>
        <pt x="432" y="390" on="0"/>
        <pt x="436" y="471" on="0"/>
        <pt x="438" y="509" on="1"/>
        <pt x="434" y="509" on="1"/>
        <pt x="420" y="471" on="0"/>
        <pt x="389" y="394" on="0"/>
        <pt x="373" y="356" on="1"/>
        <pt x="220" y="0" on="1"/>
        <pt x="86" y="0" on="1"/>
      </contour>
    </TTGlyph>
    <TTGlyph name="Wacute" xMin="86" yMin="0" xMax="832" yMax="818">
      <component glyphName="W" x="0" y="0" flags="0x204"/>
      <component glyphName="uni0301.cap" x="345" y="0" flags="0x4"/>
    </TTGlyph>
    <TTGlyph name="Wcircumflex" xMin="86" yMin="0" xMax="832" yMax="818">
      <component glyphName="W" x="0" y="0" flags="0x204"/>
      <component glyphName="uni0302.cap" x="345" y="0" flags="0x4"/>
    </TTGlyph>
    <TTGlyph name="Wdieresis" xMin="86" yMin="0" xMax="832" yMax="822">
      <component glyphName="W" x="0" y="0" flags="0x204"/>
      <component glyphName="uni0308.cap" x="345" y="0" flags="0x4"/>
    </TTGlyph>
    <TTGlyph name="Wgrave" xMin="86" yMin="0" xMax="832" yMax="818">
      <component glyphName="W" x="0" y="0" flags="0x204"/>
      <component glyphName="uni0300.cap" x="345" y="0" flags="0x4"/>
    </TTGlyph>
    <TTGlyph name="X" xMin="-36" yMin="0" xMax="576" yMax="654">
      <contour>
        <pt x="211" y="338" on="1"/>
        <pt x="106" y="654" on="1"/>
        <pt x="225" y="654" on="1"/>
        <pt x="269" y="502" on="1"/>
        <pt x="275" y="479" on="0"/>
        <pt x="286" y="432" on="0"/>
        <pt x="294" y="404" on="1"/>
        <pt x="298" y="404" on="1"/>
        <pt x="315" y="431" on="0"/>
        <pt x="348" y="481" on="0"/>
        <pt x="362" y="504" on="1"/>
        <pt x="461" y="654" on="1"/>
        <pt x="576" y="654" on="1"/>
        <pt x="342" y="332" on="1"/>
        <pt x="456" y="0" on="1"/>
        <pt x="337" y="0" on="1"/>
        <pt x="289" y="163" on="1"/>
        <pt x="281" y="188" on="0"/>
        <pt x="268" y="238" on="0"/>
        <pt x="260" y="266" on="1"/>
        <pt x="257" y="266" on="1"/>
        <pt x="238" y="238" on="0"/>
        <pt x="204" y="186" on="0"/>
        <pt x="188" y="160" on="1"/>
        <pt x="79" y="0" on="1"/>
        <pt x="-36" y="0" on="1"/>
      </contour>
    </TTGlyph>
    <TTGlyph name="Y" xMin="82" yMin="0" xMax="570" yMax="654">
      <contour>
        <pt x="187" y="246" on="1"/>
        <pt x="82" y="654" on="1"/>
        <pt x="193" y="654" on="1"/>
        <pt x="230" y="482" on="1"/>
        <pt x="238" y="444" on="0"/>
        <pt x="250" y="376" on="0"/>
        <pt x="258" y="338" on="1"/>
        <pt x="262" y="338" on="1"/>
        <pt x="284" y="376" on="0"/>
        <pt x="324" y="446" on="0"/>
        <pt x="347" y="483" on="1"/>
        <pt x="454" y="654" on="1"/>
        <pt x="570" y="654" on="1"/>
        <pt x="295" y="246" on="1"/>
        <pt x="246" y="0" on="1"/>
        <pt x="138" y="0" on="1"/>
      </contour>
    </TTGlyph>
    <TTGlyph name="Yacute" xMin="82" yMin="0" xMax="570" yMax="818">
      <component glyphName="Y" x="0" y="0" flags="0x204"/>
      <component glyphName="uni0301.cap" x="198" y="0" flags="0x4"/>
    </TTGlyph>
    <TTGlyph name="Ycircumflex" xMin="82" yMin="0" xMax="570" yMax="818">
      <component glyphName="Y" x="0" y="0" flags="0x204"/>
      <component glyphName="uni0302.cap" x="198" y="0" flags="0x4"/>
    </TTGlyph>
    <TTGlyph name="Ydieresis" xMin="82" yMin="0" xMax="570" yMax="822">
      <component glyphName="Y" x="0" y="0" flags="0x204"/>
      <component glyphName="uni0308.cap" x="198" y="0" flags="0x4"/>
    </TTGlyph>
    <TTGlyph name="Ygrave" xMin="82" yMin="0" xMax="570" yMax="818">
      <component glyphName="Y" x="0" y="0" flags="0x204"/>
      <component glyphName="uni0300.cap" x="198" y="0" flags="0x4"/>
    </TTGlyph>
    <TTGlyph name="Z" xMin="-3" yMin="0" xMax="548" yMax="654">
      <contour>
        <pt x="11" y="65" on="1"/>
        <pt x="401" y="563" on="1"/>
        <pt x="123" y="563" on="1"/>
        <pt x="141" y="654" on="1"/>
        <pt x="548" y="654" on="1"/>
        <pt x="535" y="589" on="1"/>
        <pt x="148" y="91" on="1"/>
        <pt x="454" y="91" on="1"/>
        <pt x="435" y="0" on="1"/>
        <pt x="-3" y="0" on="1"/>
      </contour>
    </TTGlyph>
    <TTGlyph name="Zacute" xMin="-3" yMin="0" xMax="548" yMax="818">
      <component glyphName="Z" x="0" y="0" flags="0x204"/>
      <component glyphName="uni0301.cap" x="225" y="0" flags="0x4"/>
    </TTGlyph>
    <TTGlyph name="Zcaron" xMin="-3" yMin="0" xMax="548" yMax="818">
      <component glyphName="Z" x="0" y="0" flags="0x204"/>
      <component glyphName="uni030C.cap" x="225" y="0" flags="0x4"/>
    </TTGlyph>
    <TTGlyph name="Zdotaccent" xMin="-3" yMin="0" xMax="548" yMax="835">
      <component glyphName="Z" x="0" y="0" flags="0x204"/>
      <component glyphName="uni0307.cap" x="225" y="0" flags="0x4"/>
    </TTGlyph>
    <TTGlyph name="a" xMin="35" yMin="-12" xMax="521" yMax="503">
      <contour>
        <pt x="35" y="167" on="1"/>
        <pt x="35" y="237" on="0"/>
        <pt x="79" y="360" on="0"/>
        <pt x="153" y="451" on="0"/>
        <pt x="248" y="503" on="0"/>
        <pt x="299" y="503" on="1"/>
        <pt x="335" y="503" on="0"/>
        <pt x="395" y="466" on="0"/>
        <pt x="412" y="434" on="1"/>
        <pt x="414" y="434" on="1"/>
        <pt x="435" y="491" on="1"/>
        <pt x="521" y="491" on="1"/>
        <pt x="423" y="0" on="1"/>
        <pt x="335" y="0" on="1"/>
        <pt x="340" y="68" on="1"/>
        <pt x="337" y="68" on="1"/>
        <pt x="302" y="32" on="0"/>
        <pt x="217" y="-12" on="0"/>
        <pt x="175" y="-12" on="1"/>
        <pt x="110" y="-12" on="0"/>
        <pt x="35" y="80" on="0"/>
      </contour>
      <contour>
        <pt x="219" y="76" on="1"/>
        <pt x="251" y="76" on="0"/>
        <pt x="318" y="114" on="0"/>
        <pt x="348" y="159" on="1"/>
        <pt x="388" y="355" on="1"/>
        <pt x="371" y="387" on="0"/>
        <pt x="328" y="415" on="0"/>
        <pt x="305" y="415" on="1"/>
        <pt x="274" y="415" on="0"/>
        <pt x="216" y="378" on="0"/>
        <pt x="172" y="314" on="0"/>
        <pt x="146" y="229" on="0"/>
        <pt x="146" y="182" on="1"/>
        <pt x="146" y="128" on="0"/>
        <pt x="185" y="76" on="0"/>
      </contour>
    </TTGlyph>
    <TTGlyph name="a.a" xMin="27" yMin="-12" xMax="451" yMax="503">
      <contour>
        <pt x="27" y="109" on="1"/>
        <pt x="27" y="162" on="0"/>
        <pt x="74" y="236" on="0"/>
        <pt x="158" y="282" on="0"/>
        <pt x="273" y="304" on="0"/>
        <pt x="341" y="306" on="1"/>
        <pt x="345" y="325" on="0"/>
        <pt x="345" y="339" on="1"/>
        <pt x="345" y="384" on="0"/>
        <pt x="306" y="418" on="0"/>
        <pt x="268" y="418" on="1"/>
        <pt x="236" y="418" on="0"/>
        <pt x="175" y="397" on="0"/>
        <pt x="140" y="378" on="1"/>
        <pt x="106" y="453" on="1"/>
        <pt x="148" y="475" on="0"/>
        <pt x="243" y="503" on="0"/>
        <pt x="290" y="503" on="1"/>
        <pt x="367" y="503" on="0"/>
        <pt x="451" y="430" on="0"/>
        <pt x="451" y="350" on="1"/>
        <pt x="451" y="318" on="0"/>
        <pt x="443" y="280" on="1"/>
        <pt x="388" y="0" on="1"/>
        <pt x="301" y="0" on="1"/>
        <pt x="302" y="54" on="1"/>
        <pt x="299" y="54" on="1"/>
        <pt x="270" y="27" on="0"/>
        <pt x="190" y="-12" on="0"/>
        <pt x="150" y="-12" on="1"/>
        <pt x="125" y="-12" on="0"/>
        <pt x="80" y="4" on="0"/>
        <pt x="47" y="36" on="0"/>
        <pt x="27" y="80" on="0"/>
      </contour>
      <contour>
        <pt x="328" y="238" on="1"/>
        <pt x="231" y="236" on="0"/>
        <pt x="132" y="180" on="0"/>
        <pt x="132" y="131" on="1"/>
        <pt x="132" y="101" on="0"/>
        <pt x="169" y="72" on="0"/>
        <pt x="198" y="72" on="1"/>
        <pt x="224" y="72" on="0"/>
        <pt x="276" y="99" on="0"/>
        <pt x="305" y="125" on="1"/>
      </contour>
    </TTGlyph>
    <TTGlyph name="a.supa" xMin="56" yMin="256" xMax="342" yMax="597">
      <contour>
        <pt x="56" y="337" on="1"/>
        <pt x="56" y="372" on="0"/>
        <pt x="88" y="420" on="0"/>
        <pt x="143" y="451" on="0"/>
        <pt x="219" y="466" on="0"/>
        <pt x="263" y="468" on="1"/>
        <pt x="264" y="474" on="0"/>
        <pt x="265" y="481" on="0"/>
        <pt x="265" y="486" on="1"/>
        <pt x="265" y="536" on="0"/>
        <pt x="215" y="536" on="1"/>
        <pt x="195" y="536" on="0"/>
        <pt x="156" y="522" on="0"/>
        <pt x="132" y="511" on="1"/>
        <pt x="108" y="564" on="1"/>
        <pt x="137" y="578" on="0"/>
        <pt x="200" y="597" on="0"/>
        <pt x="232" y="597" on="1"/>
        <pt x="285" y="597" on="0"/>
        <pt x="342" y="548" on="0"/>
        <pt x="342" y="494" on="1"/>
        <pt x="342" y="484" on="0"/>
        <pt x="338" y="460" on="0"/>
        <pt x="336" y="448" on="1"/>
        <pt x="300" y="264" on="1"/>
        <pt x="238" y="264" on="1"/>
        <pt x="239" y="300" on="1"/>
        <pt x="235" y="300" on="1"/>
        <pt x="217" y="282" on="0"/>
        <pt x="164" y="256" on="0"/>
        <pt x="138" y="256" on="1"/>
        <pt x="103" y="256" on="0"/>
        <pt x="56" y="299" on="0"/>
      </contour>
      <contour>
        <pt x="254" y="420" on="1"/>
        <pt x="194" y="418" on="0"/>
        <pt x="131" y="383" on="0"/>
        <pt x="131" y="352" on="1"/>
        <pt x="131" y="333" on="0"/>
        <pt x="153" y="315" on="0"/>
        <pt x="170" y="315" on="1"/>
        <pt x="188" y="315" on="0"/>
        <pt x="223" y="335" on="0"/>
        <pt x="240" y="351" on="1"/>
      </contour>
    </TTGlyph>
    <TTGlyph name="a.sups" xMin="57" yMin="256" xMax="385" yMax="598">
      <contour>
        <pt x="57" y="376" on="1"/>
        <pt x="57" y="422" on="0"/>
        <pt x="87" y="503" on="0"/>
        <pt x="136" y="563" on="0"/>
        <pt x="200" y="598" on="0"/>
        <pt x="234" y="598" on="1"/>
        <pt x="257" y="598" on="0"/>
        <pt x="293" y="574" on="0"/>
        <pt x="304" y="552" on="1"/>
        <pt x="308" y="552" on="1"/>
        <pt x="323" y="590" on="1"/>
        <pt x="385" y="590" on="1"/>
        <pt x="320" y="264" on="1"/>
        <pt x="258" y="264" on="1"/>
        <pt x="262" y="309" on="1"/>
        <pt x="258" y="309" on="1"/>
        <pt x="235" y="284" on="0"/>
        <pt x="179" y="256" on="0"/>
        <pt x="151" y="256" on="1"/>
        <pt x="108" y="256" on="0"/>
        <pt x="57" y="317" on="0"/>
      </contour>
      <contour>
        <pt x="180" y="320" on="1"/>
        <pt x="200" y="320" on="0"/>
        <pt x="246" y="346" on="0"/>
        <pt x="266" y="374" on="1"/>
        <pt x="288" y="496" on="1"/>
        <pt x="278" y="517" on="0"/>
        <pt x="252" y="534" on="0"/>
        <pt x="238" y="534" on="1"/>
        <pt x="219" y="534" on="0"/>
        <pt x="182" y="510" on="0"/>
        <pt x="154" y="470" on="0"/>
        <pt x="136" y="416" on="0"/>
        <pt x="136" y="386" on="1"/>
        <pt x="136" y="351" on="0"/>
        <pt x="161" y="320" on="0"/>
      </contour>
    </TTGlyph>
    <TTGlyph name="aacute" xMin="35" yMin="-12" xMax="521" yMax="717">
      <component glyphName="a" x="0" y="0" flags="0x204"/>
      <component glyphName="uni0301" x="216" y="0" flags="0x4"/>
    </TTGlyph>
    <TTGlyph name="aacute.a" xMin="27" yMin="-12" xMax="459" yMax="717">
      <component glyphName="a.a" x="0" y="0" flags="0x204"/>
      <component glyphName="uni0301" x="195" y="0" flags="0x4"/>
    </TTGlyph>
    <TTGlyph name="abreve" xMin="35" yMin="-12" xMax="521" yMax="706">
      <component glyphName="a" x="0" y="0" flags="0x204"/>
      <component glyphName="uni0306" x="216" y="0" flags="0x4"/>
    </TTGlyph>
    <TTGlyph name="abreve.a" xMin="27" yMin="-12" xMax="461" yMax="706">
      <component glyphName="a.a" x="0" y="0" flags="0x204"/>
      <component glyphName="uni0306" x="195" y="0" flags="0x4"/>
    </TTGlyph>
    <TTGlyph name="acircumflex" xMin="35" yMin="-12" xMax="521" yMax="717">
      <component glyphName="a" x="0" y="0" flags="0x204"/>
      <component glyphName="uni0302" x="216" y="0" flags="0x4"/>
    </TTGlyph>
    <TTGlyph name="acircumflex.a" xMin="27" yMin="-12" xMax="451" yMax="717">
      <component glyphName="a.a" x="0" y="0" flags="0x204"/>
      <component glyphName="uni0302" x="195" y="0" flags="0x4"/>
    </TTGlyph>
    <TTGlyph name="acute" xMin="256" yMin="572" xMax="482" yMax="717">
      <component glyphName="uni0301" x="218" y="0" flags="0x4"/>
    </TTGlyph>
    <TTGlyph name="adieresis" xMin="35" yMin="-12" xMax="521" yMax="695">
      <component glyphName="a" x="0" y="0" flags="0x204"/>
      <component glyphName="uni0308" x="216" y="0" flags="0x4"/>
    </TTGlyph>
    <TTGlyph name="adieresis.a" xMin="27" yMin="-12" xMax="466" yMax="695">
      <component glyphName="a.a" x="0" y="0" flags="0x204"/>
      <component glyphName="uni0308" x="195" y="0" flags="0x4"/>
    </TTGlyph>
    <TTGlyph name="ae" xMin="27" yMin="-12" xMax="726" yMax="503">
      <contour>
        <pt x="27" y="109" on="1"/>
        <pt x="27" y="162" on="0"/>
        <pt x="74" y="235" on="0"/>
        <pt x="157" y="282" on="0"/>
        <pt x="271" y="304" on="0"/>
        <pt x="338" y="306" on="1"/>
        <pt x="341" y="325" on="0"/>
        <pt x="341" y="338" on="1"/>
        <pt x="341" y="418" on="0"/>
        <pt x="266" y="418" on="1"/>
        <pt x="236" y="418" on="0"/>
        <pt x="169" y="396" on="0"/>
        <pt x="134" y="378" on="1"/>
        <pt x="108" y="453" on="1"/>
        <pt x="150" y="475" on="0"/>
        <pt x="243" y="503" on="0"/>
        <pt x="290" y="503" on="1"/>
        <pt x="338" y="503" on="0"/>
        <pt x="401" y="464" on="0"/>
        <pt x="413" y="422" on="1"/>
        <pt x="446" y="460" on="0"/>
        <pt x="528" y="503" on="0"/>
        <pt x="570" y="503" on="1"/>
        <pt x="613" y="503" on="0"/>
        <pt x="672" y="475" on="0"/>
        <pt x="709" y="426" on="0"/>
        <pt x="726" y="360" on="0"/>
        <pt x="726" y="322" on="1"/>
        <pt x="726" y="290" on="0"/>
        <pt x="710" y="230" on="0"/>
        <pt x="705" y="218" on="1"/>
        <pt x="418" y="218" on="1"/>
        <pt x="409" y="149" on="0"/>
        <pt x="472" y="70" on="0"/>
        <pt x="528" y="70" on="1"/>
        <pt x="554" y="70" on="0"/>
        <pt x="607" y="94" on="0"/>
        <pt x="628" y="109" on="1"/>
        <pt x="667" y="40" on="1"/>
        <pt x="638" y="19" on="0"/>
        <pt x="557" y="-12" on="0"/>
        <pt x="506" y="-12" on="1"/>
        <pt x="453" y="-12" on="0"/>
        <pt x="370" y="39" on="0"/>
        <pt x="350" y="76" on="1"/>
        <pt x="304" y="34" on="0"/>
        <pt x="210" y="-12" on="0"/>
        <pt x="156" y="-12" on="1"/>
        <pt x="102" y="-12" on="0"/>
        <pt x="27" y="52" on="0"/>
      </contour>
      <contour>
        <pt x="632" y="286" on="1"/>
        <pt x="634" y="298" on="0"/>
        <pt x="637" y="317" on="0"/>
        <pt x="637" y="329" on="1"/>
        <pt x="637" y="365" on="0"/>
        <pt x="602" y="420" on="0"/>
        <pt x="557" y="420" on="1"/>
        <pt x="519" y="420" on="0"/>
        <pt x="444" y="349" on="0"/>
        <pt x="427" y="286" on="1"/>
      </contour>
      <contour>
        <pt x="324" y="238" on="1"/>
        <pt x="230" y="236" on="0"/>
        <pt x="132" y="180" on="0"/>
        <pt x="132" y="131" on="1"/>
        <pt x="132" y="102" on="0"/>
        <pt x="169" y="72" on="0"/>
        <pt x="198" y="72" on="1"/>
        <pt x="224" y="72" on="0"/>
        <pt x="290" y="107" on="0"/>
        <pt x="324" y="144" on="1"/>
        <pt x="320" y="169" on="0"/>
        <pt x="320" y="211" on="0"/>
      </contour>
    </TTGlyph>
    <TTGlyph name="agrave" xMin="35" yMin="-12" xMax="521" yMax="717">
      <component glyphName="a" x="0" y="0" flags="0x204"/>
      <component glyphName="uni0300" x="216" y="0" flags="0x4"/>
    </TTGlyph>
    <TTGlyph name="agrave.a" xMin="27" yMin="-12" xMax="451" yMax="717">
      <component glyphName="a.a" x="0" y="0" flags="0x204"/>
      <component glyphName="uni0300" x="195" y="0" flags="0x4"/>
    </TTGlyph>
    <TTGlyph name="amacron" xMin="35" yMin="-12" xMax="521" yMax="668">
      <component glyphName="a" x="0" y="0" flags="0x204"/>
      <component glyphName="uni0304" x="216" y="0" flags="0x4"/>
    </TTGlyph>
    <TTGlyph name="amacron.a" xMin="27" yMin="-12" xMax="451" yMax="668">
      <component glyphName="a.a" x="0" y="0" flags="0x204"/>
      <component glyphName="uni0304" x="195" y="0" flags="0x4"/>
    </TTGlyph>
    <TTGlyph name="ampersand" xMin="15" yMin="-12" xMax="610" yMax="666">
      <contour>
        <pt x="119" y="158" on="1"/>
        <pt x="119" y="119" on="0"/>
        <pt x="168" y="70" on="0"/>
        <pt x="210" y="70" on="1"/>
        <pt x="267" y="70" on="0"/>
        <pt x="325" y="110" on="1"/>
        <pt x="289" y="148" on="0"/>
        <pt x="227" y="235" on="0"/>
        <pt x="204" y="282" on="1"/>
        <pt x="167" y="256" on="0"/>
        <pt x="119" y="196" on="0"/>
      </contour>
      <contour>
        <pt x="245" y="476" on="1"/>
        <pt x="245" y="459" on="0"/>
        <pt x="250" y="424" on="0"/>
        <pt x="255" y="407" on="1"/>
        <pt x="280" y="421" on="0"/>
        <pt x="324" y="451" on="0"/>
        <pt x="357" y="484" on="0"/>
        <pt x="376" y="523" on="0"/>
        <pt x="376" y="546" on="1"/>
        <pt x="376" y="566" on="0"/>
        <pt x="355" y="593" on="0"/>
        <pt x="333" y="593" on="1"/>
        <pt x="297" y="593" on="0"/>
        <pt x="245" y="529" on="0"/>
      </contour>
      <contour>
        <pt x="610" y="360" on="1"/>
        <pt x="580" y="296" on="0"/>
        <pt x="506" y="177" on="0"/>
        <pt x="458" y="123" on="1"/>
        <pt x="484" y="104" on="0"/>
        <pt x="536" y="80" on="0"/>
        <pt x="557" y="73" on="1"/>
        <pt x="514" y="-12" on="1"/>
        <pt x="482" y="-4" on="0"/>
        <pt x="417" y="30" on="0"/>
        <pt x="385" y="55" on="1"/>
        <pt x="342" y="23" on="0"/>
        <pt x="245" y="-12" on="0"/>
        <pt x="190" y="-12" on="1"/>
        <pt x="109" y="-12" on="0"/>
        <pt x="15" y="74" on="0"/>
        <pt x="15" y="146" on="1"/>
        <pt x="15" y="186" on="0"/>
        <pt x="41" y="250" on="0"/>
        <pt x="85" y="302" on="0"/>
        <pt x="142" y="343" on="0"/>
        <pt x="173" y="361" on="1"/>
        <pt x="164" y="390" on="0"/>
        <pt x="154" y="446" on="0"/>
        <pt x="154" y="472" on="1"/>
        <pt x="154" y="513" on="0"/>
        <pt x="183" y="584" on="0"/>
        <pt x="234" y="636" on="0"/>
        <pt x="302" y="666" on="0"/>
        <pt x="340" y="666" on="1"/>
        <pt x="400" y="666" on="0"/>
        <pt x="461" y="600" on="0"/>
        <pt x="461" y="547" on="1"/>
        <pt x="461" y="509" on="0"/>
        <pt x="430" y="448" on="0"/>
        <pt x="380" y="397" on="0"/>
        <pt x="316" y="353" on="0"/>
        <pt x="283" y="333" on="1"/>
        <pt x="304" y="290" on="0"/>
        <pt x="363" y="210" on="0"/>
        <pt x="397" y="176" on="1"/>
        <pt x="434" y="216" on="0"/>
        <pt x="489" y="307" on="0"/>
        <pt x="512" y="360" on="1"/>
      </contour>
    </TTGlyph>
    <TTGlyph name="aogonek" xMin="35" yMin="-208" xMax="521" yMax="503">
      <contour>
        <pt x="35" y="167" on="1"/>
        <pt x="35" y="237" on="0"/>
        <pt x="79" y="360" on="0"/>
        <pt x="153" y="451" on="0"/>
        <pt x="248" y="503" on="0"/>
        <pt x="299" y="503" on="1"/>
        <pt x="335" y="503" on="0"/>
        <pt x="396" y="465" on="0"/>
        <pt x="412" y="433" on="1"/>
        <pt x="414" y="433" on="1"/>
        <pt x="435" y="491" on="1"/>
        <pt x="521" y="491" on="1"/>
        <pt x="423" y="0" on="1"/>
        <pt x="372" y="-20" on="0"/>
        <pt x="315" y="-76" on="0"/>
        <pt x="315" y="-108" on="1"/>
        <pt x="315" y="-124" on="0"/>
        <pt x="336" y="-141" on="0"/>
        <pt x="350" y="-141" on="1"/>
        <pt x="368" y="-141" on="0"/>
        <pt x="385" y="-130" on="1"/>
        <pt x="405" y="-178" on="1"/>
        <pt x="386" y="-191" on="0"/>
        <pt x="336" y="-208" on="0"/>
        <pt x="315" y="-208" on="1"/>
        <pt x="280" y="-208" on="0"/>
        <pt x="234" y="-173" on="0"/>
        <pt x="234" y="-138" on="1"/>
        <pt x="234" y="-115" on="0"/>
        <pt x="254" y="-72" on="0"/>
        <pt x="284" y="-35" on="0"/>
        <pt x="320" y="-6" on="0"/>
        <pt x="336" y="4" on="1"/>
        <pt x="340" y="69" on="1"/>
        <pt x="338" y="69" on="1"/>
        <pt x="303" y="33" on="0"/>
        <pt x="217" y="-12" on="0"/>
        <pt x="175" y="-12" on="1"/>
        <pt x="110" y="-12" on="0"/>
        <pt x="35" y="80" on="0"/>
      </contour>
      <contour>
        <pt x="219" y="76" on="1"/>
        <pt x="248" y="76" on="0"/>
        <pt x="318" y="114" on="0"/>
        <pt x="348" y="159" on="1"/>
        <pt x="388" y="356" on="1"/>
        <pt x="371" y="388" on="0"/>
        <pt x="328" y="415" on="0"/>
        <pt x="305" y="415" on="1"/>
        <pt x="274" y="415" on="0"/>
        <pt x="216" y="378" on="0"/>
        <pt x="172" y="314" on="0"/>
        <pt x="146" y="229" on="0"/>
        <pt x="146" y="182" on="1"/>
        <pt x="146" y="128" on="0"/>
        <pt x="185" y="76" on="0"/>
      </contour>
    </TTGlyph>
    <TTGlyph name="aogonek.a" xMin="27" yMin="-208" xMax="451" yMax="503">
      <contour>
        <pt x="302" y="54" on="1"/>
        <pt x="299" y="54" on="1"/>
        <pt x="270" y="27" on="0"/>
        <pt x="190" y="-12" on="0"/>
        <pt x="150" y="-12" on="1"/>
        <pt x="125" y="-12" on="0"/>
        <pt x="80" y="4" on="0"/>
        <pt x="47" y="36" on="0"/>
        <pt x="27" y="80" on="0"/>
        <pt x="27" y="109" on="1"/>
        <pt x="27" y="162" on="0"/>
        <pt x="74" y="236" on="0"/>
        <pt x="158" y="282" on="0"/>
        <pt x="273" y="304" on="0"/>
        <pt x="341" y="306" on="1"/>
        <pt x="345" y="325" on="0"/>
        <pt x="345" y="339" on="1"/>
        <pt x="345" y="384" on="0"/>
        <pt x="306" y="418" on="0"/>
        <pt x="268" y="418" on="1"/>
        <pt x="236" y="418" on="0"/>
        <pt x="175" y="397" on="0"/>
        <pt x="140" y="378" on="1"/>
        <pt x="106" y="453" on="1"/>
        <pt x="148" y="475" on="0"/>
        <pt x="243" y="503" on="0"/>
        <pt x="290" y="503" on="1"/>
        <pt x="367" y="503" on="0"/>
        <pt x="451" y="430" on="0"/>
        <pt x="451" y="350" on="1"/>
        <pt x="451" y="318" on="0"/>
        <pt x="443" y="280" on="1"/>
        <pt x="388" y="0" on="1"/>
        <pt x="337" y="-20" on="0"/>
        <pt x="280" y="-76" on="0"/>
        <pt x="280" y="-108" on="1"/>
        <pt x="280" y="-124" on="0"/>
        <pt x="301" y="-141" on="0"/>
        <pt x="315" y="-141" on="1"/>
        <pt x="325" y="-141" on="0"/>
        <pt x="341" y="-135" on="0"/>
        <pt x="350" y="-130" on="1"/>
        <pt x="370" y="-178" on="1"/>
        <pt x="350" y="-191" on="0"/>
        <pt x="301" y="-208" on="0"/>
        <pt x="280" y="-208" on="1"/>
        <pt x="245" y="-208" on="0"/>
        <pt x="199" y="-173" on="0"/>
        <pt x="199" y="-138" on="1"/>
        <pt x="199" y="-115" on="0"/>
        <pt x="219" y="-72" on="0"/>
        <pt x="249" y="-35" on="0"/>
        <pt x="285" y="-6" on="0"/>
        <pt x="301" y="4" on="1"/>
      </contour>
      <contour>
        <pt x="328" y="238" on="1"/>
        <pt x="231" y="236" on="0"/>
        <pt x="132" y="180" on="0"/>
        <pt x="132" y="131" on="1"/>
        <pt x="132" y="101" on="0"/>
        <pt x="169" y="72" on="0"/>
        <pt x="198" y="72" on="1"/>
        <pt x="224" y="72" on="0"/>
        <pt x="276" y="99" on="0"/>
        <pt x="305" y="125" on="1"/>
      </contour>
    </TTGlyph>
    <TTGlyph name="approxequal" xMin="42" yMin="142" xMax="468" yMax="520">
      <component glyphName="asciitilde" x="0" y="111" flags="0x204"/>
      <component glyphName="asciitilde" x="0" y="-111" flags="0x4"/>
    </TTGlyph>
    <TTGlyph name="aring" xMin="35" yMin="-12" xMax="521" yMax="736">
      <component glyphName="a" x="0" y="0" flags="0x204"/>
      <component glyphName="uni030A" x="216" y="1" flags="0x4"/>
    </TTGlyph>
    <TTGlyph name="aring.a" xMin="27" yMin="-12" xMax="451" yMax="736">
      <component glyphName="a.a" x="0" y="0" flags="0x204"/>
      <component glyphName="uni030A" x="195" y="1" flags="0x4"/>
    </TTGlyph>
    <TTGlyph name="arrowdown" xMin="28" yMin="-27" xMax="564" yMax="528">
      <contour>
        <pt x="294" y="-27" on="1"/>
        <pt x="28" y="237" on="1"/>
        <pt x="86" y="288" on="1"/>
        <pt x="253" y="118" on="1"/>
        <pt x="253" y="528" on="1"/>
        <pt x="340" y="528" on="1"/>
        <pt x="340" y="118" on="1"/>
        <pt x="507" y="288" on="1"/>
        <pt x="564" y="237" on="1"/>
        <pt x="299" y="-27" on="1"/>
      </contour>
    </TTGlyph>
    <TTGlyph name="arrowup" xMin="28" yMin="-27" xMax="564" yMax="528">
      <contour>
        <pt x="299" y="528" on="1"/>
        <pt x="564" y="264" on="1"/>
        <pt x="507" y="213" on="1"/>
        <pt x="340" y="384" on="1"/>
        <pt x="340" y="-27" on="1"/>
        <pt x="253" y="-27" on="1"/>
        <pt x="253" y="384" on="1"/>
        <pt x="86" y="213" on="1"/>
        <pt x="28" y="264" on="1"/>
        <pt x="294" y="528" on="1"/>
      </contour>
    </TTGlyph>
    <TTGlyph name="asciicircum" xMin="78" yMin="279" xMax="458" yMax="670">
      <contour>
        <pt x="225" y="670" on="1"/>
        <pt x="310" y="670" on="1"/>
        <pt x="458" y="279" on="1"/>
        <pt x="370" y="279" on="1"/>
        <pt x="315" y="435" on="1"/>
        <pt x="270" y="569" on="1"/>
        <pt x="267" y="569" on="1"/>
        <pt x="222" y="435" on="1"/>
        <pt x="167" y="279" on="1"/>
        <pt x="78" y="279" on="1"/>
      </contour>
    </TTGlyph>
    <TTGlyph name="asciitilde" xMin="42" yMin="253" xMax="468" yMax="409">
      <contour>
        <pt x="42" y="313" on="1"/>
        <pt x="71" y="365" on="0"/>
        <pt x="139" y="409" on="0"/>
        <pt x="173" y="409" on="1"/>
        <pt x="201" y="409" on="0"/>
        <pt x="245" y="384" on="0"/>
        <pt x="284" y="353" on="0"/>
        <pt x="321" y="328" on="0"/>
        <pt x="341" y="328" on="1"/>
        <pt x="382" y="328" on="0"/>
        <pt x="412" y="386" on="1"/>
        <pt x="468" y="349" on="1"/>
        <pt x="439" y="297" on="0"/>
        <pt x="371" y="253" on="0"/>
        <pt x="337" y="253" on="1"/>
        <pt x="309" y="253" on="0"/>
        <pt x="265" y="278" on="0"/>
        <pt x="226" y="309" on="0"/>
        <pt x="189" y="334" on="0"/>
        <pt x="169" y="334" on="1"/>
        <pt x="128" y="334" on="0"/>
        <pt x="98" y="276" on="1"/>
      </contour>
    </TTGlyph>
    <TTGlyph name="asterisk" xMin="113" yMin="387" xMax="436" yMax="713">
      <contour>
        <pt x="132" y="438" on="1"/>
        <pt x="204" y="532" on="1"/>
        <pt x="113" y="584" on="1"/>
        <pt x="138" y="636" on="1"/>
        <pt x="240" y="603" on="1"/>
        <pt x="269" y="713" on="1"/>
        <pt x="327" y="709" on="1"/>
        <pt x="319" y="596" on="1"/>
        <pt x="427" y="610" on="1"/>
        <pt x="436" y="554" on="1"/>
        <pt x="329" y="519" on="1"/>
        <pt x="367" y="417" on="1"/>
        <pt x="315" y="387" on="1"/>
        <pt x="258" y="478" on="1"/>
        <pt x="174" y="399" on="1"/>
      </contour>
    </TTGlyph>
    <TTGlyph name="at" xMin="44" yMin="-162" xMax="804" yMax="655">
      <contour>
        <pt x="599" y="112" on="1"/>
        <pt x="621" y="112" on="0"/>
        <pt x="668" y="142" on="0"/>
        <pt x="707" y="200" on="0"/>
        <pt x="732" y="285" on="0"/>
        <pt x="732" y="341" on="1"/>
        <pt x="732" y="392" on="0"/>
        <pt x="704" y="482" on="0"/>
        <pt x="644" y="549" on="0"/>
        <pt x="549" y="589" on="0"/>
        <pt x="482" y="589" on="1"/>
        <pt x="416" y="589" on="0"/>
        <pt x="287" y="526" on="0"/>
        <pt x="184" y="415" on="0"/>
        <pt x="120" y="264" on="0"/>
        <pt x="120" y="176" on="1"/>
        <pt x="120" y="109" on="0"/>
        <pt x="162" y="8" on="0"/>
        <pt x="232" y="-60" on="0"/>
        <pt x="325" y="-94" on="0"/>
        <pt x="375" y="-94" on="1"/>
        <pt x="407" y="-94" on="0"/>
        <pt x="474" y="-76" on="0"/>
        <pt x="502" y="-59" on="1"/>
        <pt x="532" y="-119" on="1"/>
        <pt x="450" y="-162" on="0"/>
        <pt x="366" y="-162" on="1"/>
        <pt x="300" y="-162" on="0"/>
        <pt x="183" y="-120" on="0"/>
        <pt x="95" y="-38" on="0"/>
        <pt x="44" y="83" on="0"/>
        <pt x="44" y="163" on="1"/>
        <pt x="44" y="268" on="0"/>
        <pt x="118" y="448" on="0"/>
        <pt x="242" y="580" on="0"/>
        <pt x="404" y="655" on="0"/>
        <pt x="492" y="655" on="1"/>
        <pt x="566" y="655" on="0"/>
        <pt x="682" y="609" on="0"/>
        <pt x="762" y="528" on="0"/>
        <pt x="804" y="417" on="0"/>
        <pt x="804" y="353" on="1"/>
        <pt x="804" y="277" on="0"/>
        <pt x="767" y="161" on="0"/>
        <pt x="705" y="83" on="0"/>
        <pt x="624" y="43" on="0"/>
        <pt x="579" y="43" on="1"/>
        <pt x="544" y="43" on="0"/>
        <pt x="492" y="82" on="0"/>
        <pt x="484" y="118" on="1"/>
        <pt x="481" y="118" on="1"/>
        <pt x="460" y="89" on="0"/>
        <pt x="400" y="52" on="0"/>
        <pt x="368" y="52" on="1"/>
        <pt x="343" y="52" on="0"/>
        <pt x="300" y="71" on="0"/>
        <pt x="267" y="107" on="0"/>
        <pt x="248" y="159" on="0"/>
        <pt x="248" y="192" on="1"/>
        <pt x="248" y="238" on="0"/>
        <pt x="280" y="325" on="0"/>
        <pt x="334" y="393" on="0"/>
        <pt x="406" y="434" on="0"/>
        <pt x="447" y="434" on="1"/>
        <pt x="494" y="434" on="0"/>
        <pt x="518" y="385" on="1"/>
        <pt x="520" y="385" on="1"/>
        <pt x="535" y="426" on="1"/>
        <pt x="602" y="426" on="1"/>
        <pt x="552" y="207" on="1"/>
        <pt x="541" y="162" on="0"/>
        <pt x="563" y="112" on="0"/>
      </contour>
      <contour>
        <pt x="330" y="200" on="1"/>
        <pt x="330" y="161" on="0"/>
        <pt x="362" y="122" on="0"/>
        <pt x="389" y="122" on="1"/>
        <pt x="408" y="122" on="0"/>
        <pt x="446" y="148" on="0"/>
        <pt x="466" y="177" on="1"/>
        <pt x="500" y="326" on="1"/>
        <pt x="489" y="347" on="0"/>
        <pt x="464" y="364" on="0"/>
        <pt x="449" y="364" on="1"/>
        <pt x="423" y="364" on="0"/>
        <pt x="379" y="333" on="0"/>
        <pt x="348" y="285" on="0"/>
        <pt x="330" y="227" on="0"/>
      </contour>
    </TTGlyph>
    <TTGlyph name="at.case" xMin="92" yMin="-26" xMax="782" yMax="693">
      <contour>
        <pt x="605" y="213" on="1"/>
        <pt x="623" y="213" on="0"/>
        <pt x="661" y="241" on="0"/>
        <pt x="692" y="294" on="0"/>
        <pt x="712" y="372" on="0"/>
        <pt x="712" y="422" on="1"/>
        <pt x="712" y="465" on="0"/>
        <pt x="688" y="541" on="0"/>
        <pt x="635" y="597" on="0"/>
        <pt x="552" y="630" on="0"/>
        <pt x="494" y="630" on="1"/>
        <pt x="434" y="630" on="0"/>
        <pt x="317" y="575" on="0"/>
        <pt x="224" y="477" on="0"/>
        <pt x="166" y="345" on="0"/>
        <pt x="166" y="268" on="1"/>
        <pt x="166" y="212" on="0"/>
        <pt x="198" y="127" on="0"/>
        <pt x="255" y="68" on="0"/>
        <pt x="334" y="38" on="0"/>
        <pt x="382" y="38" on="1"/>
        <pt x="413" y="38" on="0"/>
        <pt x="484" y="54" on="0"/>
        <pt x="510" y="70" on="1"/>
        <pt x="525" y="13" on="1"/>
        <pt x="487" y="-9" on="0"/>
        <pt x="405" y="-26" on="0"/>
        <pt x="367" y="-26" on="1"/>
        <pt x="308" y="-26" on="0"/>
        <pt x="207" y="12" on="0"/>
        <pt x="133" y="84" on="0"/>
        <pt x="92" y="188" on="0"/>
        <pt x="92" y="253" on="1"/>
        <pt x="92" y="350" on="0"/>
        <pt x="162" y="512" on="0"/>
        <pt x="276" y="629" on="0"/>
        <pt x="423" y="693" on="0"/>
        <pt x="501" y="693" on="1"/>
        <pt x="571" y="693" on="0"/>
        <pt x="677" y="652" on="0"/>
        <pt x="747" y="581" on="0"/>
        <pt x="782" y="484" on="0"/>
        <pt x="782" y="428" on="1"/>
        <pt x="782" y="359" on="0"/>
        <pt x="750" y="253" on="0"/>
        <pt x="695" y="181" on="0"/>
        <pt x="623" y="144" on="0"/>
        <pt x="583" y="144" on="1"/>
        <pt x="549" y="144" on="0"/>
        <pt x="501" y="182" on="0"/>
        <pt x="494" y="218" on="1"/>
        <pt x="491" y="218" on="1"/>
        <pt x="471" y="189" on="0"/>
        <pt x="411" y="153" on="0"/>
        <pt x="382" y="153" on="1"/>
        <pt x="337" y="153" on="0"/>
        <pt x="274" y="224" on="0"/>
        <pt x="274" y="288" on="1"/>
        <pt x="274" y="328" on="0"/>
        <pt x="303" y="406" on="0"/>
        <pt x="352" y="467" on="0"/>
        <pt x="420" y="505" on="0"/>
        <pt x="459" y="505" on="1"/>
        <pt x="503" y="505" on="0"/>
        <pt x="525" y="456" on="1"/>
        <pt x="527" y="456" on="1"/>
        <pt x="542" y="498" on="1"/>
        <pt x="609" y="498" on="1"/>
        <pt x="563" y="307" on="1"/>
        <pt x="552" y="262" on="0"/>
        <pt x="572" y="213" on="0"/>
      </contour>
      <contour>
        <pt x="355" y="296" on="1"/>
        <pt x="355" y="259" on="0"/>
        <pt x="383" y="222" on="0"/>
        <pt x="405" y="222" on="1"/>
        <pt x="423" y="222" on="0"/>
        <pt x="458" y="248" on="0"/>
        <pt x="478" y="277" on="1"/>
        <pt x="505" y="398" on="1"/>
        <pt x="495" y="419" on="0"/>
        <pt x="472" y="435" on="0"/>
        <pt x="458" y="435" on="1"/>
        <pt x="435" y="435" on="0"/>
        <pt x="397" y="408" on="0"/>
        <pt x="370" y="368" on="0"/>
        <pt x="355" y="318" on="0"/>
      </contour>
    </TTGlyph>
    <TTGlyph name="atilde" xMin="35" yMin="-12" xMax="521" yMax="694">
      <component glyphName="a" x="0" y="0" flags="0x204"/>
      <component glyphName="uni0303" x="216" y="0" flags="0x4"/>
    </TTGlyph>
    <TTGlyph name="atilde.a" xMin="27" yMin="-12" xMax="483" yMax="694">
      <component glyphName="a.a" x="0" y="0" flags="0x204"/>
      <component glyphName="uni0303" x="195" y="0" flags="0x4"/>
    </TTGlyph>
    <TTGlyph name="b" xMin="22" yMin="-12" xMax="508" yMax="706">
      <contour>
        <pt x="22" y="0" on="1"/>
        <pt x="164" y="706" on="1"/>
        <pt x="271" y="706" on="1"/>
        <pt x="236" y="532" on="1"/>
        <pt x="212" y="438" on="1"/>
        <pt x="214" y="438" on="1"/>
        <pt x="249" y="466" on="0"/>
        <pt x="327" y="503" on="0"/>
        <pt x="368" y="503" on="1"/>
        <pt x="434" y="503" on="0"/>
        <pt x="508" y="412" on="0"/>
        <pt x="508" y="324" on="1"/>
        <pt x="508" y="253" on="0"/>
        <pt x="464" y="131" on="0"/>
        <pt x="390" y="40" on="0"/>
        <pt x="296" y="-12" on="0"/>
        <pt x="245" y="-12" on="1"/>
        <pt x="208" y="-12" on="0"/>
        <pt x="151" y="25" on="0"/>
        <pt x="134" y="57" on="1"/>
        <pt x="132" y="57" on="1"/>
        <pt x="111" y="0" on="1"/>
      </contour>
      <contour>
        <pt x="324" y="415" on="1"/>
        <pt x="295" y="415" on="0"/>
        <pt x="227" y="380" on="0"/>
        <pt x="199" y="344" on="1"/>
        <pt x="157" y="136" on="1"/>
        <pt x="173" y="104" on="0"/>
        <pt x="215" y="76" on="0"/>
        <pt x="238" y="76" on="1"/>
        <pt x="269" y="76" on="0"/>
        <pt x="327" y="113" on="0"/>
        <pt x="371" y="177" on="0"/>
        <pt x="398" y="262" on="0"/>
        <pt x="398" y="310" on="1"/>
        <pt x="398" y="364" on="0"/>
        <pt x="358" y="415" on="0"/>
      </contour>
    </TTGlyph>
    <TTGlyph name="b.sups" xMin="49" yMin="256" xMax="377" yMax="730">
      <contour>
        <pt x="49" y="264" on="1"/>
        <pt x="142" y="730" on="1"/>
        <pt x="220" y="730" on="1"/>
        <pt x="198" y="619" on="1"/>
        <pt x="180" y="554" on="1"/>
        <pt x="183" y="554" on="1"/>
        <pt x="204" y="573" on="0"/>
        <pt x="255" y="598" on="0"/>
        <pt x="283" y="598" on="1"/>
        <pt x="326" y="598" on="0"/>
        <pt x="377" y="536" on="0"/>
        <pt x="377" y="478" on="1"/>
        <pt x="377" y="431" on="0"/>
        <pt x="347" y="350" on="0"/>
        <pt x="298" y="290" on="0"/>
        <pt x="234" y="256" on="0"/>
        <pt x="200" y="256" on="1"/>
        <pt x="177" y="256" on="0"/>
        <pt x="141" y="279" on="0"/>
        <pt x="130" y="301" on="1"/>
        <pt x="126" y="301" on="1"/>
        <pt x="111" y="264" on="1"/>
      </contour>
      <contour>
        <pt x="254" y="534" on="1"/>
        <pt x="234" y="534" on="0"/>
        <pt x="190" y="512" on="0"/>
        <pt x="170" y="486" on="1"/>
        <pt x="146" y="357" on="1"/>
        <pt x="156" y="337" on="0"/>
        <pt x="182" y="320" on="0"/>
        <pt x="196" y="320" on="1"/>
        <pt x="215" y="320" on="0"/>
        <pt x="252" y="343" on="0"/>
        <pt x="280" y="384" on="0"/>
        <pt x="298" y="438" on="0"/>
        <pt x="298" y="468" on="1"/>
        <pt x="298" y="503" on="0"/>
        <pt x="273" y="534" on="0"/>
      </contour>
    </TTGlyph>
    <TTGlyph name="backslash" xMin="86" yMin="-160" xMax="254" yMax="710">
      <contour>
        <pt x="86" y="710" on="1"/>
        <pt x="157" y="710" on="1"/>
        <pt x="254" y="-160" on="1"/>
        <pt x="182" y="-160" on="1"/>
      </contour>
    </TTGlyph>
    <TTGlyph name="bar" xMin="92" yMin="-250" xMax="161" yMax="750">
      <contour>
        <pt x="92" y="750" on="1"/>
        <pt x="161" y="750" on="1"/>
        <pt x="161" y="-250" on="1"/>
        <pt x="92" y="-250" on="1"/>
      </contour>
    </TTGlyph>
    <TTGlyph name="braceleft" xMin="29" yMin="-152" xMax="364" yMax="708">
      <contour>
        <pt x="46" y="-68" on="1"/>
        <pt x="46" y="-40" on="0"/>
        <pt x="63" y="33" on="0"/>
        <pt x="82" y="105" on="0"/>
        <pt x="99" y="168" on="0"/>
        <pt x="99" y="188" on="1"/>
        <pt x="99" y="209" on="0"/>
        <pt x="71" y="244" on="0"/>
        <pt x="29" y="246" on="1"/>
        <pt x="43" y="310" on="1"/>
        <pt x="68" y="311" on="0"/>
        <pt x="104" y="325" on="0"/>
        <pt x="126" y="348" on="0"/>
        <pt x="138" y="375" on="0"/>
        <pt x="141" y="389" on="1"/>
        <pt x="145" y="413" on="0"/>
        <pt x="151" y="455" on="0"/>
        <pt x="157" y="498" on="0"/>
        <pt x="164" y="543" on="0"/>
        <pt x="169" y="569" on="1"/>
        <pt x="177" y="609" on="0"/>
        <pt x="199" y="662" on="0"/>
        <pt x="232" y="694" on="0"/>
        <pt x="277" y="708" on="0"/>
        <pt x="309" y="708" on="1"/>
        <pt x="364" y="708" on="1"/>
        <pt x="351" y="649" on="1"/>
        <pt x="329" y="649" on="1"/>
        <pt x="294" y="649" on="0"/>
        <pt x="262" y="609" on="0"/>
        <pt x="254" y="564" on="1"/>
        <pt x="246" y="522" on="0"/>
        <pt x="233" y="438" on="0"/>
        <pt x="225" y="393" on="1"/>
        <pt x="214" y="339" on="0"/>
        <pt x="171" y="286" on="0"/>
        <pt x="134" y="277" on="1"/>
        <pt x="133" y="273" on="1"/>
        <pt x="183" y="259" on="0"/>
        <pt x="183" y="207" on="1"/>
        <pt x="183" y="181" on="0"/>
        <pt x="168" y="111" on="0"/>
        <pt x="149" y="39" on="0"/>
        <pt x="134" y="-27" on="0"/>
        <pt x="134" y="-49" on="1"/>
        <pt x="134" y="-72" on="0"/>
        <pt x="154" y="-93" on="0"/>
        <pt x="183" y="-93" on="1"/>
        <pt x="203" y="-93" on="1"/>
        <pt x="191" y="-152" on="1"/>
        <pt x="138" y="-152" on="1"/>
        <pt x="88" y="-152" on="0"/>
        <pt x="46" y="-111" on="0"/>
      </contour>
    </TTGlyph>
    <TTGlyph name="braceright" xMin="-45" yMin="-152" xMax="290" yMax="708">
      <contour>
        <pt x="273" y="624" on="1"/>
        <pt x="273" y="595" on="0"/>
        <pt x="256" y="523" on="0"/>
        <pt x="237" y="451" on="0"/>
        <pt x="220" y="387" on="0"/>
        <pt x="220" y="367" on="1"/>
        <pt x="220" y="357" on="0"/>
        <pt x="226" y="337" on="0"/>
        <pt x="242" y="321" on="0"/>
        <pt x="269" y="311" on="0"/>
        <pt x="290" y="310" on="1"/>
        <pt x="276" y="246" on="1"/>
        <pt x="250" y="245" on="0"/>
        <pt x="215" y="231" on="0"/>
        <pt x="193" y="208" on="0"/>
        <pt x="181" y="181" on="0"/>
        <pt x="178" y="167" on="1"/>
        <pt x="169" y="120" on="0"/>
        <pt x="160" y="38" on="0"/>
        <pt x="150" y="-14" on="1"/>
        <pt x="142" y="-54" on="0"/>
        <pt x="120" y="-107" on="0"/>
        <pt x="87" y="-139" on="0"/>
        <pt x="41" y="-152" on="0"/>
        <pt x="10" y="-152" on="1"/>
        <pt x="-45" y="-152" on="1"/>
        <pt x="-32" y="-93" on="1"/>
        <pt x="-10" y="-93" on="1"/>
        <pt x="25" y="-93" on="0"/>
        <pt x="57" y="-54" on="0"/>
        <pt x="65" y="-9" on="1"/>
        <pt x="73" y="33" on="0"/>
        <pt x="86" y="117" on="0"/>
        <pt x="94" y="162" on="1"/>
        <pt x="105" y="216" on="0"/>
        <pt x="148" y="270" on="0"/>
        <pt x="185" y="279" on="1"/>
        <pt x="186" y="283" on="1"/>
        <pt x="159" y="291" on="0"/>
        <pt x="136" y="323" on="0"/>
        <pt x="136" y="349" on="1"/>
        <pt x="136" y="374" on="0"/>
        <pt x="151" y="444" on="0"/>
        <pt x="170" y="516" on="0"/>
        <pt x="185" y="582" on="0"/>
        <pt x="185" y="604" on="1"/>
        <pt x="185" y="627" on="0"/>
        <pt x="165" y="649" on="0"/>
        <pt x="136" y="649" on="1"/>
        <pt x="116" y="649" on="1"/>
        <pt x="128" y="708" on="1"/>
        <pt x="181" y="708" on="1"/>
        <pt x="231" y="708" on="0"/>
        <pt x="273" y="666" on="0"/>
      </contour>
    </TTGlyph>
    <TTGlyph name="bracketleft" xMin="2" yMin="-152" xMax="359" yMax="708">
      <contour>
        <pt x="200" y="-93" on="1"/>
        <pt x="187" y="-152" on="1"/>
        <pt x="2" y="-152" on="1"/>
        <pt x="174" y="708" on="1"/>
        <pt x="359" y="708" on="1"/>
        <pt x="349" y="649" on="1"/>
        <pt x="243" y="649" on="1"/>
        <pt x="95" y="-93" on="1"/>
      </contour>
    </TTGlyph>
    <TTGlyph name="bracketright" xMin="-39" yMin="-152" xMax="319" yMax="708">
      <contour>
        <pt x="78" y="-93" on="1"/>
        <pt x="227" y="649" on="1"/>
        <pt x="122" y="649" on="1"/>
        <pt x="133" y="708" on="1"/>
        <pt x="319" y="708" on="1"/>
        <pt x="147" y="-152" on="1"/>
        <pt x="-39" y="-152" on="1"/>
        <pt x="-26" y="-93" on="1"/>
      </contour>
    </TTGlyph>
    <TTGlyph name="breve" xMin="227" yMin="575" xMax="484" yMax="706">
      <component glyphName="uni0306" x="218" y="0" flags="0x4"/>
    </TTGlyph>
    <TTGlyph name="brokenbar" xMin="92" yMin="-250" xMax="161" yMax="750">
      <contour>
        <pt x="92" y="750" on="1"/>
        <pt x="161" y="750" on="1"/>
        <pt x="161" y="299" on="1"/>
        <pt x="92" y="299" on="1"/>
      </contour>
      <contour>
        <pt x="161" y="209" on="1"/>
        <pt x="161" y="-250" on="1"/>
        <pt x="92" y="-250" on="1"/>
        <pt x="92" y="209" on="1"/>
      </contour>
    </TTGlyph>
    <TTGlyph name="bullet" xMin="40" yMin="136" xMax="276" yMax="390">
      <contour>
        <pt x="146" y="136" on="1"/>
        <pt x="100" y="136" on="0"/>
        <pt x="40" y="198" on="0"/>
        <pt x="40" y="248" on="1"/>
        <pt x="40" y="274" on="0"/>
        <pt x="58" y="325" on="0"/>
        <pt x="92" y="365" on="0"/>
        <pt x="140" y="390" on="0"/>
        <pt x="170" y="390" on="1"/>
        <pt x="215" y="390" on="0"/>
        <pt x="276" y="328" on="0"/>
        <pt x="276" y="278" on="1"/>
        <pt x="276" y="252" on="0"/>
        <pt x="258" y="201" on="0"/>
        <pt x="224" y="161" on="0"/>
        <pt x="176" y="136" on="0"/>
      </contour>
    </TTGlyph>
    <TTGlyph name="c" xMin="33" yMin="-12" xMax="444" yMax="503">
      <contour>
        <pt x="33" y="188" on="1"/>
        <pt x="33" y="254" on="0"/>
        <pt x="78" y="369" on="0"/>
        <pt x="155" y="454" on="0"/>
        <pt x="258" y="503" on="0"/>
        <pt x="315" y="503" on="1"/>
        <pt x="360" y="503" on="0"/>
        <pt x="424" y="467" on="0"/>
        <pt x="444" y="443" on="1"/>
        <pt x="384" y="378" on="1"/>
        <pt x="367" y="398" on="0"/>
        <pt x="333" y="416" on="0"/>
        <pt x="308" y="416" on="1"/>
        <pt x="275" y="416" on="0"/>
        <pt x="215" y="380" on="0"/>
        <pt x="170" y="319" on="0"/>
        <pt x="143" y="238" on="0"/>
        <pt x="143" y="192" on="1"/>
        <pt x="143" y="136" on="0"/>
        <pt x="192" y="75" on="0"/>
        <pt x="242" y="75" on="1"/>
        <pt x="271" y="75" on="0"/>
        <pt x="316" y="98" on="0"/>
        <pt x="335" y="113" on="1"/>
        <pt x="381" y="45" on="1"/>
        <pt x="353" y="25" on="0"/>
        <pt x="276" y="-12" on="0"/>
        <pt x="220" y="-12" on="1"/>
        <pt x="179" y="-12" on="0"/>
        <pt x="111" y="15" on="0"/>
        <pt x="61" y="66" on="0"/>
        <pt x="33" y="140" on="0"/>
      </contour>
    </TTGlyph>
    <TTGlyph name="c.sups" xMin="56" yMin="256" xMax="334" yMax="598">
      <contour>
        <pt x="56" y="386" on="1"/>
        <pt x="56" y="426" on="0"/>
        <pt x="84" y="503" on="0"/>
        <pt x="134" y="562" on="0"/>
        <pt x="203" y="598" on="0"/>
        <pt x="244" y="598" on="1"/>
        <pt x="273" y="598" on="0"/>
        <pt x="319" y="575" on="0"/>
        <pt x="334" y="558" on="1"/>
        <pt x="289" y="511" on="1"/>
        <pt x="269" y="535" on="0"/>
        <pt x="240" y="535" on="1"/>
        <pt x="217" y="535" on="0"/>
        <pt x="178" y="510" on="0"/>
        <pt x="150" y="470" on="0"/>
        <pt x="134" y="420" on="0"/>
        <pt x="134" y="395" on="1"/>
        <pt x="134" y="356" on="0"/>
        <pt x="173" y="318" on="0"/>
        <pt x="200" y="318" on="1"/>
        <pt x="218" y="318" on="0"/>
        <pt x="246" y="331" on="0"/>
        <pt x="259" y="339" on="1"/>
        <pt x="284" y="290" on="1"/>
        <pt x="269" y="277" on="0"/>
        <pt x="216" y="256" on="0"/>
        <pt x="184" y="256" on="1"/>
        <pt x="129" y="256" on="0"/>
        <pt x="56" y="325" on="0"/>
      </contour>
    </TTGlyph>
    <TTGlyph name="cacute" xMin="33" yMin="-12" xMax="469" yMax="717">
      <component glyphName="c" x="0" y="0" flags="0x204"/>
      <component glyphName="uni0301" x="205" y="0" flags="0x4"/>
    </TTGlyph>
    <TTGlyph name="caron" xMin="226" yMin="572" xMax="496" yMax="717">
      <component glyphName="uni030C" x="218" y="0" flags="0x4"/>
    </TTGlyph>
    <TTGlyph name="ccaron" xMin="33" yMin="-12" xMax="483" yMax="717">
      <component glyphName="c" x="0" y="0" flags="0x204"/>
      <component glyphName="uni030C" x="205" y="0" flags="0x4"/>
    </TTGlyph>
    <TTGlyph name="ccedilla" xMin="33" yMin="-216" xMax="444" yMax="503">
      <component glyphName="c" x="0" y="0" flags="0x204"/>
      <component glyphName="uni0327" x="207" y="0" flags="0x4"/>
    </TTGlyph>
    <TTGlyph name="ccircumflex" xMin="33" yMin="-12" xMax="452" yMax="717">
      <component glyphName="c" x="0" y="0" flags="0x204"/>
      <component glyphName="uni0302" x="205" y="0" flags="0x4"/>
    </TTGlyph>
    <TTGlyph name="cdotaccent" xMin="33" yMin="-12" xMax="444" yMax="704">
      <component glyphName="c" x="0" y="0" flags="0x204"/>
      <component glyphName="uni0307" x="205" y="0" flags="0x4"/>
    </TTGlyph>
    <TTGlyph name="cedilla" xMin="90" yMin="-216" xMax="264" yMax="3">
      <component glyphName="uni0327" x="218" y="0" flags="0x4"/>
    </TTGlyph>
    <TTGlyph name="cent" xMin="75" yMin="-16" xMax="498" yMax="673">
      <contour>
        <pt x="307" y="484" on="1"/>
        <pt x="281" y="477" on="0"/>
        <pt x="234" y="445" on="0"/>
        <pt x="200" y="398" on="0"/>
        <pt x="180" y="339" on="0"/>
        <pt x="180" y="304" on="1"/>
        <pt x="180" y="256" on="0"/>
        <pt x="214" y="191" on="0"/>
        <pt x="246" y="177" on="1"/>
      </contour>
      <contour>
        <pt x="436" y="139" on="1"/>
        <pt x="404" y="118" on="0"/>
        <pt x="333" y="89" on="0"/>
        <pt x="291" y="84" on="1"/>
        <pt x="271" y="-16" on="1"/>
        <pt x="208" y="-16" on="1"/>
        <pt x="228" y="86" on="1"/>
        <pt x="158" y="96" on="0"/>
        <pt x="75" y="199" on="0"/>
        <pt x="75" y="287" on="1"/>
        <pt x="75" y="350" on="0"/>
        <pt x="118" y="451" on="0"/>
        <pt x="188" y="524" on="0"/>
        <pt x="277" y="568" on="0"/>
        <pt x="324" y="574" on="1"/>
        <pt x="344" y="673" on="1"/>
        <pt x="407" y="673" on="1"/>
        <pt x="387" y="573" on="1"/>
        <pt x="424" y="567" on="0"/>
        <pt x="477" y="529" on="0"/>
        <pt x="498" y="505" on="1"/>
        <pt x="434" y="445" on="1"/>
        <pt x="419" y="462" on="0"/>
        <pt x="390" y="482" on="0"/>
        <pt x="370" y="487" on="1"/>
        <pt x="308" y="171" on="1"/>
        <pt x="335" y="174" on="0"/>
        <pt x="382" y="195" on="0"/>
        <pt x="402" y="210" on="1"/>
      </contour>
    </TTGlyph>
    <TTGlyph name="circumflex" xMin="196" yMin="572" xMax="465" yMax="717">
      <component glyphName="uni0302" x="218" y="0" flags="0x4"/>
    </TTGlyph>
    <TTGlyph name="colon" xMin="23" yMin="-12" xMax="224" yMax="487">
      <component glyphName="period" x="60" y="351" flags="0x204"/>
      <component glyphName="period" x="0" y="0" flags="0x4"/>
    </TTGlyph>
    <TTGlyph name="colonmonetary" xMin="59" yMin="-110" xMax="536" yMax="752">
      <contour>
        <pt x="210" y="101" on="1"/>
        <pt x="228" y="85" on="0"/>
        <pt x="251" y="79" on="1"/>
        <pt x="401" y="558" on="1"/>
        <pt x="383" y="567" on="0"/>
        <pt x="358" y="567" on="1"/>
        <pt x="355" y="567" on="1"/>
      </contour>
      <contour>
        <pt x="311" y="558" on="1"/>
        <pt x="278" y="546" on="0"/>
        <pt x="223" y="488" on="0"/>
        <pt x="184" y="405" on="0"/>
        <pt x="162" y="300" on="0"/>
        <pt x="162" y="242" on="1"/>
        <pt x="162" y="183" on="0"/>
        <pt x="181" y="142" on="1"/>
      </contour>
      <contour>
        <pt x="461" y="494" on="1"/>
        <pt x="450" y="515" on="0"/>
        <pt x="435" y="533" on="1"/>
        <pt x="292" y="76" on="1"/>
        <pt x="319" y="79" on="0"/>
        <pt x="369" y="108" on="0"/>
        <pt x="391" y="128" on="1"/>
        <pt x="442" y="64" on="1"/>
        <pt x="399" y="26" on="0"/>
        <pt x="311" y="-10" on="0"/>
        <pt x="265" y="-12" on="1"/>
        <pt x="234" y="-110" on="1"/>
        <pt x="192" y="-110" on="1"/>
        <pt x="223" y="-9" on="1"/>
        <pt x="200" y="-6" on="0"/>
        <pt x="179" y="3" on="1"/>
        <pt x="144" y="-110" on="1"/>
        <pt x="102" y="-110" on="1"/>
        <pt x="144" y="23" on="1"/>
        <pt x="102" y="53" on="0"/>
        <pt x="59" y="160" on="0"/>
        <pt x="59" y="234" on="1"/>
        <pt x="59" y="322" on="0"/>
        <pt x="104" y="470" on="0"/>
        <pt x="181" y="580" on="0"/>
        <pt x="283" y="646" on="0"/>
        <pt x="341" y="652" on="1"/>
        <pt x="372" y="752" on="1"/>
        <pt x="413" y="752" on="1"/>
        <pt x="382" y="654" on="1"/>
        <pt x="409" y="651" on="0"/>
        <pt x="428" y="644" on="1"/>
        <pt x="462" y="752" on="1"/>
        <pt x="503" y="752" on="1"/>
        <pt x="464" y="627" on="1"/>
        <pt x="487" y="612" on="0"/>
        <pt x="522" y="569" on="0"/>
        <pt x="536" y="543" on="1"/>
      </contour>
    </TTGlyph>
    <TTGlyph name="comma" xMin="-29" yMin="-176" xMax="174" yMax="136">
      <contour>
        <pt x="-29" y="-115" on="1"/>
        <pt x="23" y="-98" on="0"/>
        <pt x="83" y="-38" on="0"/>
        <pt x="92" y="-2" on="1"/>
        <pt x="63" y="-2" on="0"/>
        <pt x="26" y="30" on="0"/>
        <pt x="26" y="58" on="1"/>
        <pt x="26" y="88" on="0"/>
        <pt x="68" y="136" on="0"/>
        <pt x="104" y="136" on="1"/>
        <pt x="138" y="136" on="0"/>
        <pt x="174" y="92" on="0"/>
        <pt x="174" y="54" on="1"/>
        <pt x="174" y="12" on="0"/>
        <pt x="147" y="-63" on="0"/>
        <pt x="97" y="-123" on="0"/>
        <pt x="27" y="-166" on="0"/>
        <pt x="-16" y="-176" on="1"/>
      </contour>
    </TTGlyph>
    <TTGlyph name="comma.dnom" xMin="-35" yMin="-121" xMax="108" yMax="100">
      <contour>
        <pt x="-35" y="-76" on="1"/>
        <pt x="0" y="-63" on="0"/>
        <pt x="41" y="-28" on="0"/>
        <pt x="46" y="0" on="1"/>
        <pt x="44" y="0" on="1"/>
        <pt x="26" y="0" on="0"/>
        <pt x="0" y="24" on="0"/>
        <pt x="0" y="44" on="1"/>
        <pt x="0" y="71" on="0"/>
        <pt x="35" y="100" on="0"/>
        <pt x="59" y="100" on="1"/>
        <pt x="81" y="100" on="0"/>
        <pt x="108" y="66" on="0"/>
        <pt x="108" y="38" on="1"/>
        <pt x="108" y="-19" on="0"/>
        <pt x="38" y="-101" on="0"/>
        <pt x="-24" y="-121" on="1"/>
      </contour>
    </TTGlyph>
    <TTGlyph name="comma.numr" xMin="15" yMin="149" xMax="158" yMax="370">
      <component glyphName="comma.dnom" x="50" y="270" flags="0x204"/>
    </TTGlyph>
    <TTGlyph name="comma.subs" xMin="-70" yMin="-290" xMax="73" yMax="-69">
      <component glyphName="comma.dnom" x="-35" y="-169" flags="0x204"/>
    </TTGlyph>
    <TTGlyph name="comma.sups" xMin="49" yMin="319" xMax="192" yMax="540">
      <component glyphName="comma.dnom" x="84" y="440" flags="0x204"/>
    </TTGlyph>
    <TTGlyph name="copyright" xMin="33" yMin="-10" xMax="666" yMax="654">
      <contour>
        <pt x="177" y="279" on="1"/>
        <pt x="177" y="333" on="0"/>
        <pt x="216" y="420" on="0"/>
        <pt x="278" y="481" on="0"/>
        <pt x="354" y="514" on="0"/>
        <pt x="392" y="514" on="1"/>
        <pt x="427" y="514" on="0"/>
        <pt x="476" y="482" on="0"/>
        <pt x="492" y="462" on="1"/>
        <pt x="444" y="417" on="1"/>
        <pt x="430" y="433" on="0"/>
        <pt x="402" y="448" on="0"/>
        <pt x="382" y="448" on="1"/>
        <pt x="360" y="448" on="0"/>
        <pt x="315" y="424" on="0"/>
        <pt x="279" y="382" on="0"/>
        <pt x="256" y="324" on="0"/>
        <pt x="256" y="290" on="1"/>
        <pt x="256" y="242" on="0"/>
        <pt x="303" y="192" on="0"/>
        <pt x="344" y="192" on="1"/>
        <pt x="369" y="192" on="0"/>
        <pt x="407" y="211" on="0"/>
        <pt x="430" y="226" on="1"/>
        <pt x="462" y="176" on="1"/>
        <pt x="431" y="152" on="0"/>
        <pt x="366" y="126" on="0"/>
        <pt x="328" y="126" on="1"/>
        <pt x="260" y="126" on="0"/>
        <pt x="177" y="206" on="0"/>
      </contour>
      <contour>
        <pt x="298" y="-10" on="1"/>
        <pt x="240" y="-10" on="0"/>
        <pt x="143" y="31" on="0"/>
        <pt x="72" y="105" on="0"/>
        <pt x="33" y="207" on="0"/>
        <pt x="33" y="268" on="1"/>
        <pt x="33" y="344" on="0"/>
        <pt x="87" y="484" on="0"/>
        <pt x="184" y="591" on="0"/>
        <pt x="319" y="654" on="0"/>
        <pt x="401" y="654" on="1"/>
        <pt x="459" y="654" on="0"/>
        <pt x="556" y="613" on="0"/>
        <pt x="627" y="539" on="0"/>
        <pt x="666" y="438" on="0"/>
        <pt x="666" y="377" on="1"/>
        <pt x="666" y="300" on="0"/>
        <pt x="612" y="160" on="0"/>
        <pt x="515" y="54" on="0"/>
        <pt x="380" y="-10" on="0"/>
      </contour>
      <contour>
        <pt x="397" y="604" on="1"/>
        <pt x="329" y="604" on="0"/>
        <pt x="215" y="549" on="0"/>
        <pt x="133" y="457" on="0"/>
        <pt x="86" y="337" on="0"/>
        <pt x="86" y="273" on="1"/>
        <pt x="86" y="224" on="0"/>
        <pt x="115" y="139" on="0"/>
        <pt x="170" y="77" on="0"/>
        <pt x="250" y="41" on="0"/>
        <pt x="302" y="41" on="1"/>
        <pt x="369" y="41" on="0"/>
        <pt x="484" y="96" on="0"/>
        <pt x="566" y="188" on="0"/>
        <pt x="613" y="308" on="0"/>
        <pt x="613" y="372" on="1"/>
        <pt x="613" y="421" on="0"/>
        <pt x="584" y="506" on="0"/>
        <pt x="529" y="568" on="0"/>
        <pt x="449" y="604" on="0"/>
      </contour>
    </TTGlyph>
    <TTGlyph name="currency" xMin="9" yMin="103" xMax="513" yMax="558">
      <contour>
        <pt x="341" y="170" on="1"/>
        <pt x="289" y="135" on="0"/>
        <pt x="227" y="135" on="1"/>
        <pt x="168" y="135" on="0"/>
        <pt x="128" y="167" on="1"/>
        <pt x="56" y="104" on="1"/>
        <pt x="9" y="160" on="1"/>
        <pt x="77" y="219" on="1"/>
        <pt x="62" y="252" on="0"/>
        <pt x="62" y="295" on="1"/>
        <pt x="62" y="341" on="0"/>
        <pt x="93" y="418" on="0"/>
        <pt x="121" y="448" on="1"/>
        <pt x="74" y="507" on="1"/>
        <pt x="133" y="557" on="1"/>
        <pt x="182" y="494" on="1"/>
        <pt x="208" y="509" on="0"/>
        <pt x="265" y="526" on="0"/>
        <pt x="294" y="526" on="1"/>
        <pt x="353" y="526" on="0"/>
        <pt x="393" y="495" on="1"/>
        <pt x="466" y="558" on="1"/>
        <pt x="513" y="502" on="1"/>
        <pt x="444" y="441" on="1"/>
        <pt x="459" y="409" on="0"/>
        <pt x="459" y="366" on="1"/>
        <pt x="459" y="321" on="0"/>
        <pt x="429" y="245" on="0"/>
        <pt x="403" y="216" on="1"/>
        <pt x="453" y="152" on="1"/>
        <pt x="395" y="103" on="1"/>
      </contour>
      <contour>
        <pt x="282" y="449" on="1"/>
        <pt x="259" y="449" on="0"/>
        <pt x="216" y="427" on="0"/>
        <pt x="181" y="389" on="0"/>
        <pt x="160" y="336" on="0"/>
        <pt x="160" y="305" on="1"/>
        <pt x="160" y="260" on="0"/>
        <pt x="201" y="213" on="0"/>
        <pt x="238" y="213" on="1"/>
        <pt x="261" y="213" on="0"/>
        <pt x="305" y="235" on="0"/>
        <pt x="339" y="273" on="0"/>
        <pt x="360" y="326" on="0"/>
        <pt x="360" y="357" on="1"/>
        <pt x="360" y="402" on="0"/>
        <pt x="320" y="449" on="0"/>
      </contour>
    </TTGlyph>
    <TTGlyph name="d" xMin="35" yMin="-12" xMax="565" yMax="706">
      <contour>
        <pt x="424" y="532" on="1"/>
        <pt x="458" y="706" on="1"/>
        <pt x="565" y="706" on="1"/>
        <pt x="423" y="0" on="1"/>
        <pt x="335" y="0" on="1"/>
        <pt x="340" y="68" on="1"/>
        <pt x="337" y="68" on="1"/>
        <pt x="302" y="32" on="0"/>
        <pt x="217" y="-12" on="0"/>
        <pt x="175" y="-12" on="1"/>
        <pt x="110" y="-12" on="0"/>
        <pt x="35" y="80" on="0"/>
        <pt x="35" y="167" on="1"/>
        <pt x="35" y="237" on="0"/>
        <pt x="79" y="360" on="0"/>
        <pt x="153" y="451" on="0"/>
        <pt x="248" y="503" on="0"/>
        <pt x="299" y="503" on="1"/>
        <pt x="335" y="503" on="0"/>
        <pt x="391" y="467" on="0"/>
        <pt x="407" y="438" on="1"/>
        <pt x="410" y="438" on="1"/>
      </contour>
      <contour>
        <pt x="219" y="76" on="1"/>
        <pt x="251" y="76" on="0"/>
        <pt x="317" y="114" on="0"/>
        <pt x="348" y="159" on="1"/>
        <pt x="388" y="355" on="1"/>
        <pt x="371" y="387" on="0"/>
        <pt x="328" y="415" on="0"/>
        <pt x="305" y="415" on="1"/>
        <pt x="274" y="415" on="0"/>
        <pt x="216" y="378" on="0"/>
        <pt x="172" y="314" on="0"/>
        <pt x="146" y="229" on="0"/>
        <pt x="146" y="182" on="1"/>
        <pt x="146" y="128" on="0"/>
        <pt x="185" y="76" on="0"/>
      </contour>
    </TTGlyph>
    <TTGlyph name="d.sups" xMin="57" yMin="256" xMax="412" yMax="727">
      <contour>
        <pt x="314" y="620" on="1"/>
        <pt x="335" y="727" on="1"/>
        <pt x="412" y="727" on="1"/>
        <pt x="320" y="264" on="1"/>
        <pt x="258" y="264" on="1"/>
        <pt x="262" y="309" on="1"/>
        <pt x="258" y="309" on="1"/>
        <pt x="235" y="284" on="0"/>
        <pt x="179" y="256" on="0"/>
        <pt x="151" y="256" on="1"/>
        <pt x="108" y="256" on="0"/>
        <pt x="57" y="317" on="0"/>
        <pt x="57" y="376" on="1"/>
        <pt x="57" y="422" on="0"/>
        <pt x="87" y="503" on="0"/>
        <pt x="136" y="563" on="0"/>
        <pt x="200" y="598" on="0"/>
        <pt x="234" y="598" on="1"/>
        <pt x="257" y="598" on="0"/>
        <pt x="293" y="575" on="0"/>
        <pt x="303" y="555" on="1"/>
        <pt x="307" y="555" on="1"/>
      </contour>
      <contour>
        <pt x="180" y="320" on="1"/>
        <pt x="200" y="320" on="0"/>
        <pt x="246" y="346" on="0"/>
        <pt x="266" y="374" on="1"/>
        <pt x="288" y="496" on="1"/>
        <pt x="278" y="517" on="0"/>
        <pt x="252" y="534" on="0"/>
        <pt x="238" y="534" on="1"/>
        <pt x="219" y="534" on="0"/>
        <pt x="182" y="510" on="0"/>
        <pt x="154" y="470" on="0"/>
        <pt x="136" y="416" on="0"/>
        <pt x="136" y="386" on="1"/>
        <pt x="136" y="351" on="0"/>
        <pt x="161" y="320" on="0"/>
      </contour>
    </TTGlyph>
    <TTGlyph name="dagger" xMin="91" yMin="-80" xMax="473" yMax="712">
      <contour>
        <pt x="238" y="471" on="1"/>
        <pt x="91" y="464" on="1"/>
        <pt x="109" y="553" on="1"/>
        <pt x="251" y="546" on="1"/>
        <pt x="278" y="712" on="1"/>
        <pt x="367" y="712" on="1"/>
        <pt x="327" y="546" on="1"/>
        <pt x="473" y="553" on="1"/>
        <pt x="456" y="464" on="1"/>
        <pt x="313" y="471" on="1"/>
        <pt x="209" y="-80" on="1"/>
        <pt x="120" y="-80" on="1"/>
      </contour>
    </TTGlyph>
    <TTGlyph name="daggerdbl" xMin="14" yMin="-80" xMax="473" yMax="712">
      <contour>
        <pt x="31" y="166" on="1"/>
        <pt x="175" y="158" on="1"/>
        <pt x="199" y="316" on="1"/>
        <pt x="238" y="474" on="1"/>
        <pt x="91" y="464" on="1"/>
        <pt x="108" y="553" on="1"/>
        <pt x="251" y="546" on="1"/>
        <pt x="278" y="712" on="1"/>
        <pt x="366" y="712" on="1"/>
        <pt x="327" y="546" on="1"/>
        <pt x="473" y="553" on="1"/>
        <pt x="456" y="464" on="1"/>
        <pt x="313" y="474" on="1"/>
        <pt x="288" y="316" on="1"/>
        <pt x="250" y="158" on="1"/>
        <pt x="397" y="166" on="1"/>
        <pt x="379" y="78" on="1"/>
        <pt x="235" y="84" on="1"/>
        <pt x="210" y="-80" on="1"/>
        <pt x="121" y="-80" on="1"/>
        <pt x="159" y="84" on="1"/>
        <pt x="14" y="78" on="1"/>
      </contour>
    </TTGlyph>
    <TTGlyph name="dcaron" xMin="35" yMin="-12" xMax="688" yMax="765">
      <component glyphName="d" x="0" y="0" flags="0x4"/>
      <component glyphName="uni030C.a" x="556" y="0" flags="0x4"/>
    </TTGlyph>
    <TTGlyph name="dcroat" xMin="35" yMin="-12" xMax="617" yMax="706">
      <contour>
        <pt x="384" y="335" on="1"/>
        <pt x="369" y="367" on="0"/>
        <pt x="327" y="395" on="0"/>
        <pt x="304" y="395" on="1"/>
        <pt x="273" y="395" on="0"/>
        <pt x="216" y="358" on="0"/>
        <pt x="172" y="298" on="0"/>
        <pt x="146" y="222" on="0"/>
        <pt x="146" y="182" on="1"/>
        <pt x="146" y="128" on="0"/>
        <pt x="185" y="76" on="0"/>
        <pt x="219" y="76" on="1"/>
        <pt x="251" y="76" on="0"/>
        <pt x="317" y="114" on="0"/>
        <pt x="348" y="159" on="1"/>
      </contour>
      <contour>
        <pt x="605" y="570" on="1"/>
        <pt x="537" y="565" on="1"/>
        <pt x="423" y="0" on="1"/>
        <pt x="335" y="0" on="1"/>
        <pt x="340" y="68" on="1"/>
        <pt x="337" y="68" on="1"/>
        <pt x="302" y="32" on="0"/>
        <pt x="217" y="-12" on="0"/>
        <pt x="175" y="-12" on="1"/>
        <pt x="110" y="-12" on="0"/>
        <pt x="35" y="80" on="0"/>
        <pt x="35" y="167" on="1"/>
        <pt x="35" y="230" on="0"/>
        <pt x="79" y="344" on="0"/>
        <pt x="152" y="431" on="0"/>
        <pt x="247" y="483" on="0"/>
        <pt x="298" y="483" on="1"/>
        <pt x="334" y="483" on="0"/>
        <pt x="389" y="447" on="0"/>
        <pt x="403" y="418" on="1"/>
        <pt x="406" y="418" on="1"/>
        <pt x="420" y="512" on="1"/>
        <pt x="430" y="565" on="1"/>
        <pt x="281" y="565" on="1"/>
        <pt x="292" y="621" on="1"/>
        <pt x="441" y="621" on="1"/>
        <pt x="458" y="706" on="1"/>
        <pt x="565" y="706" on="1"/>
        <pt x="548" y="621" on="1"/>
        <pt x="617" y="621" on="1"/>
      </contour>
    </TTGlyph>
    <TTGlyph name="degree" xMin="98" yMin="418" xMax="355" yMax="685">
      <contour>
        <pt x="214" y="418" on="1"/>
        <pt x="163" y="418" on="0"/>
        <pt x="98" y="482" on="0"/>
        <pt x="98" y="536" on="1"/>
        <pt x="98" y="567" on="0"/>
        <pt x="121" y="621" on="0"/>
        <pt x="159" y="661" on="0"/>
        <pt x="210" y="685" on="0"/>
        <pt x="239" y="685" on="1"/>
        <pt x="290" y="685" on="0"/>
        <pt x="355" y="621" on="0"/>
        <pt x="355" y="567" on="1"/>
        <pt x="355" y="536" on="0"/>
        <pt x="332" y="482" on="0"/>
        <pt x="294" y="441" on="0"/>
        <pt x="242" y="418" on="0"/>
      </contour>
      <contour>
        <pt x="235" y="630" on="1"/>
        <pt x="218" y="630" on="0"/>
        <pt x="189" y="614" on="0"/>
        <pt x="169" y="589" on="0"/>
        <pt x="158" y="556" on="0"/>
        <pt x="158" y="538" on="1"/>
        <pt x="158" y="511" on="0"/>
        <pt x="189" y="473" on="0"/>
        <pt x="218" y="473" on="1"/>
        <pt x="235" y="473" on="0"/>
        <pt x="263" y="489" on="0"/>
        <pt x="283" y="514" on="0"/>
        <pt x="294" y="547" on="0"/>
        <pt x="294" y="565" on="1"/>
        <pt x="294" y="592" on="0"/>
        <pt x="264" y="630" on="0"/>
      </contour>
    </TTGlyph>
    <TTGlyph name="dieresis" xMin="198" yMin="580" xMax="489" yMax="695">
      <component glyphName="uni0308" x="218" y="0" flags="0x4"/>
    </TTGlyph>
    <TTGlyph name="divide" xMin="48" yMin="86" xMax="472" yMax="573">
      <contour>
        <pt x="260" y="449" on="1"/>
        <pt x="233" y="449" on="0"/>
        <pt x="196" y="485" on="0"/>
        <pt x="196" y="512" on="1"/>
        <pt x="196" y="538" on="0"/>
        <pt x="233" y="573" on="0"/>
        <pt x="260" y="573" on="1"/>
        <pt x="287" y="573" on="0"/>
        <pt x="324" y="538" on="0"/>
        <pt x="324" y="512" on="1"/>
        <pt x="324" y="485" on="0"/>
        <pt x="287" y="449" on="0"/>
      </contour>
      <contour>
        <pt x="260" y="86" on="1"/>
        <pt x="233" y="86" on="0"/>
        <pt x="196" y="121" on="0"/>
        <pt x="196" y="148" on="1"/>
        <pt x="196" y="174" on="0"/>
        <pt x="233" y="210" on="0"/>
        <pt x="260" y="210" on="1"/>
        <pt x="287" y="210" on="0"/>
        <pt x="324" y="174" on="0"/>
        <pt x="324" y="148" on="1"/>
        <pt x="324" y="121" on="0"/>
        <pt x="287" y="86" on="0"/>
      </contour>
      <contour>
        <pt x="48" y="292" on="1"/>
        <pt x="48" y="369" on="1"/>
        <pt x="472" y="369" on="1"/>
        <pt x="472" y="292" on="1"/>
      </contour>
    </TTGlyph>
    <TTGlyph name="dollar" xMin="11" yMin="-110" xMax="481" yMax="752">
      <contour>
        <pt x="412" y="503" on="1"/>
        <pt x="392" y="531" on="0"/>
        <pt x="337" y="567" on="0"/>
        <pt x="306" y="567" on="1"/>
        <pt x="264" y="567" on="0"/>
        <pt x="214" y="520" on="0"/>
        <pt x="214" y="482" on="1"/>
        <pt x="214" y="455" on="0"/>
        <pt x="245" y="413" on="0"/>
        <pt x="291" y="375" on="0"/>
        <pt x="344" y="337" on="0"/>
        <pt x="390" y="289" on="0"/>
        <pt x="421" y="228" on="0"/>
        <pt x="421" y="186" on="1"/>
        <pt x="421" y="146" on="0"/>
        <pt x="394" y="78" on="0"/>
        <pt x="345" y="25" on="0"/>
        <pt x="275" y="-7" on="0"/>
        <pt x="232" y="-11" on="1"/>
        <pt x="212" y="-110" on="1"/>
        <pt x="138" y="-110" on="1"/>
        <pt x="159" y="-7" on="1"/>
        <pt x="115" y="3" on="0"/>
        <pt x="39" y="52" on="0"/>
        <pt x="11" y="85" on="1"/>
        <pt x="78" y="151" on="1"/>
        <pt x="101" y="121" on="0"/>
        <pt x="168" y="75" on="0"/>
        <pt x="210" y="75" on="1"/>
        <pt x="258" y="75" on="0"/>
        <pt x="315" y="127" on="0"/>
        <pt x="315" y="171" on="1"/>
        <pt x="315" y="203" on="0"/>
        <pt x="284" y="251" on="0"/>
        <pt x="238" y="292" on="0"/>
        <pt x="185" y="330" on="0"/>
        <pt x="139" y="375" on="0"/>
        <pt x="108" y="431" on="0"/>
        <pt x="108" y="469" on="1"/>
        <pt x="108" y="507" on="0"/>
        <pt x="134" y="572" on="0"/>
        <pt x="182" y="620" on="0"/>
        <pt x="248" y="650" on="0"/>
        <pt x="289" y="653" on="1"/>
        <pt x="308" y="752" on="1"/>
        <pt x="382" y="752" on="1"/>
        <pt x="362" y="647" on="1"/>
        <pt x="397" y="637" on="0"/>
        <pt x="457" y="594" on="0"/>
        <pt x="481" y="564" on="1"/>
      </contour>
    </TTGlyph>
    <TTGlyph name="dong" xMin="29" yMin="0" xMax="555" yMax="675">
      <contour>
        <pt x="41" y="57" on="1"/>
        <pt x="403" y="57" on="1"/>
        <pt x="391" y="0" on="1"/>
        <pt x="29" y="0" on="1"/>
      </contour>
      <contour>
        <pt x="344" y="367" on="1"/>
        <pt x="318" y="406" on="0"/>
        <pt x="280" y="406" on="1"/>
        <pt x="260" y="406" on="0"/>
        <pt x="219" y="385" on="0"/>
        <pt x="185" y="348" on="0"/>
        <pt x="164" y="295" on="0"/>
        <pt x="164" y="263" on="1"/>
        <pt x="164" y="226" on="0"/>
        <pt x="194" y="186" on="0"/>
        <pt x="223" y="186" on="1"/>
        <pt x="247" y="186" on="0"/>
        <pt x="291" y="208" on="0"/>
        <pt x="317" y="232" on="1"/>
      </contour>
      <contour>
        <pt x="544" y="558" on="1"/>
        <pt x="471" y="553" on="1"/>
        <pt x="384" y="122" on="1"/>
        <pt x="309" y="122" on="1"/>
        <pt x="311" y="164" on="1"/>
        <pt x="309" y="164" on="1"/>
        <pt x="284" y="141" on="0"/>
        <pt x="222" y="112" on="0"/>
        <pt x="190" y="112" on="1"/>
        <pt x="133" y="112" on="0"/>
        <pt x="71" y="185" on="0"/>
        <pt x="71" y="248" on="1"/>
        <pt x="71" y="301" on="0"/>
        <pt x="108" y="386" on="0"/>
        <pt x="167" y="446" on="0"/>
        <pt x="239" y="479" on="0"/>
        <pt x="274" y="479" on="1"/>
        <pt x="307" y="479" on="0"/>
        <pt x="345" y="455" on="0"/>
        <pt x="360" y="435" on="1"/>
        <pt x="373" y="512" on="1"/>
        <pt x="381" y="553" on="1"/>
        <pt x="246" y="553" on="1"/>
        <pt x="258" y="611" on="1"/>
        <pt x="393" y="611" on="1"/>
        <pt x="406" y="675" on="1"/>
        <pt x="495" y="675" on="1"/>
        <pt x="482" y="611" on="1"/>
        <pt x="555" y="611" on="1"/>
      </contour>
    </TTGlyph>
    <TTGlyph name="dotaccent" xMin="276" yMin="578" xMax="410" yMax="704">
      <component glyphName="uni0307" x="218" y="0" flags="0x4"/>
    </TTGlyph>
    <TTGlyph name="dotlessi" xMin="22" yMin="0" xMax="228" yMax="491">
      <contour>
        <pt x="121" y="491" on="1"/>
        <pt x="228" y="491" on="1"/>
        <pt x="130" y="0" on="1"/>
        <pt x="22" y="0" on="1"/>
      </contour>
    </TTGlyph>
    <TTGlyph name="e" xMin="33" yMin="-12" xMax="457" yMax="503">
      <contour>
        <pt x="33" y="196" on="1"/>
        <pt x="33" y="265" on="0"/>
        <pt x="80" y="378" on="0"/>
        <pt x="157" y="459" on="0"/>
        <pt x="253" y="503" on="0"/>
        <pt x="301" y="503" on="1"/>
        <pt x="344" y="503" on="0"/>
        <pt x="403" y="475" on="0"/>
        <pt x="440" y="426" on="0"/>
        <pt x="457" y="360" on="0"/>
        <pt x="457" y="322" on="1"/>
        <pt x="457" y="290" on="0"/>
        <pt x="441" y="230" on="0"/>
        <pt x="436" y="218" on="1"/>
        <pt x="137" y="218" on="1"/>
        <pt x="133" y="179" on="0"/>
        <pt x="149" y="123" on="0"/>
        <pt x="182" y="87" on="0"/>
        <pt x="230" y="70" on="0"/>
        <pt x="258" y="70" on="1"/>
        <pt x="284" y="70" on="0"/>
        <pt x="338" y="94" on="0"/>
        <pt x="358" y="109" on="1"/>
        <pt x="398" y="40" on="1"/>
        <pt x="368" y="19" on="0"/>
        <pt x="283" y="-12" on="0"/>
        <pt x="230" y="-12" on="1"/>
        <pt x="186" y="-12" on="0"/>
        <pt x="114" y="16" on="0"/>
        <pt x="62" y="69" on="0"/>
        <pt x="33" y="146" on="0"/>
      </contour>
      <contour>
        <pt x="363" y="286" on="1"/>
        <pt x="365" y="296" on="0"/>
        <pt x="368" y="317" on="0"/>
        <pt x="368" y="329" on="1"/>
        <pt x="368" y="365" on="0"/>
        <pt x="333" y="420" on="0"/>
        <pt x="288" y="420" on="1"/>
        <pt x="243" y="420" on="0"/>
        <pt x="164" y="349" on="0"/>
        <pt x="146" y="286" on="1"/>
      </contour>
    </TTGlyph>
    <TTGlyph name="e.sups" xMin="56" yMin="256" xMax="343" yMax="598">
      <contour>
        <pt x="56" y="395" on="1"/>
        <pt x="56" y="440" on="0"/>
        <pt x="88" y="515" on="0"/>
        <pt x="139" y="568" on="0"/>
        <pt x="203" y="598" on="0"/>
        <pt x="236" y="598" on="1"/>
        <pt x="266" y="598" on="0"/>
        <pt x="307" y="578" on="0"/>
        <pt x="332" y="544" on="0"/>
        <pt x="343" y="500" on="0"/>
        <pt x="343" y="476" on="1"/>
        <pt x="343" y="454" on="0"/>
        <pt x="332" y="415" on="0"/>
        <pt x="327" y="406" on="1"/>
        <pt x="129" y="406" on="1"/>
        <pt x="126" y="361" on="0"/>
        <pt x="170" y="315" on="0"/>
        <pt x="209" y="315" on="1"/>
        <pt x="227" y="315" on="0"/>
        <pt x="259" y="328" on="0"/>
        <pt x="275" y="338" on="1"/>
        <pt x="299" y="287" on="1"/>
        <pt x="275" y="273" on="0"/>
        <pt x="218" y="256" on="0"/>
        <pt x="189" y="256" on="1"/>
        <pt x="129" y="256" on="0"/>
        <pt x="56" y="329" on="0"/>
      </contour>
      <contour>
        <pt x="275" y="455" on="1"/>
        <pt x="277" y="462" on="0"/>
        <pt x="278" y="474" on="0"/>
        <pt x="278" y="480" on="1"/>
        <pt x="278" y="503" on="0"/>
        <pt x="256" y="538" on="0"/>
        <pt x="227" y="538" on="1"/>
        <pt x="201" y="538" on="0"/>
        <pt x="148" y="494" on="0"/>
        <pt x="137" y="455" on="1"/>
      </contour>
    </TTGlyph>
    <TTGlyph name="eacute" xMin="33" yMin="-12" xMax="467" yMax="717">
      <component glyphName="e" x="0" y="0" flags="0x204"/>
      <component glyphName="uni0301" x="203" y="0" flags="0x4"/>
    </TTGlyph>
    <TTGlyph name="eacute.sups" xMin="56" yMin="260" xMax="350" yMax="738">
      <contour>
        <pt x="271" y="738" on="1"/>
        <pt x="350" y="738" on="1"/>
        <pt x="254" y="642" on="1"/>
        <pt x="194" y="642" on="1"/>
      </contour>
      <contour>
        <pt x="56" y="399" on="1"/>
        <pt x="56" y="444" on="0"/>
        <pt x="88" y="519" on="0"/>
        <pt x="140" y="572" on="0"/>
        <pt x="204" y="602" on="0"/>
        <pt x="237" y="602" on="1"/>
        <pt x="267" y="602" on="0"/>
        <pt x="308" y="582" on="0"/>
        <pt x="332" y="548" on="0"/>
        <pt x="343" y="504" on="0"/>
        <pt x="343" y="480" on="1"/>
        <pt x="343" y="458" on="0"/>
        <pt x="333" y="419" on="0"/>
        <pt x="328" y="410" on="1"/>
        <pt x="130" y="410" on="1"/>
        <pt x="127" y="365" on="0"/>
        <pt x="170" y="319" on="0"/>
        <pt x="210" y="319" on="1"/>
        <pt x="228" y="319" on="0"/>
        <pt x="259" y="332" on="0"/>
        <pt x="276" y="342" on="1"/>
        <pt x="300" y="291" on="1"/>
        <pt x="275" y="277" on="0"/>
        <pt x="219" y="260" on="0"/>
        <pt x="190" y="260" on="1"/>
        <pt x="130" y="260" on="0"/>
        <pt x="56" y="333" on="0"/>
      </contour>
      <contour>
        <pt x="276" y="459" on="1"/>
        <pt x="279" y="472" on="0"/>
        <pt x="279" y="484" on="1"/>
        <pt x="279" y="507" on="0"/>
        <pt x="256" y="542" on="0"/>
        <pt x="228" y="542" on="1"/>
        <pt x="201" y="542" on="0"/>
        <pt x="149" y="498" on="0"/>
        <pt x="137" y="459" on="1"/>
      </contour>
    </TTGlyph>
    <TTGlyph name="ebreve" xMin="33" yMin="-12" xMax="469" yMax="706">
      <component glyphName="e" x="0" y="0" flags="0x204"/>
      <component glyphName="uni0306" x="203" y="0" flags="0x4"/>
    </TTGlyph>
    <TTGlyph name="ecaron" xMin="33" yMin="-12" xMax="481" yMax="717">
      <component glyphName="e" x="0" y="0" flags="0x204"/>
      <component glyphName="uni030C" x="203" y="0" flags="0x4"/>
    </TTGlyph>
    <TTGlyph name="ecircumflex" xMin="33" yMin="-12" xMax="457" yMax="717">
      <component glyphName="e" x="0" y="0" flags="0x204"/>
      <component glyphName="uni0302" x="203" y="0" flags="0x4"/>
    </TTGlyph>
    <TTGlyph name="edieresis" xMin="33" yMin="-12" xMax="474" yMax="695">
      <component glyphName="e" x="0" y="0" flags="0x204"/>
      <component glyphName="uni0308" x="203" y="0" flags="0x4"/>
    </TTGlyph>
    <TTGlyph name="edotaccent" xMin="33" yMin="-12" xMax="457" yMax="704">
      <component glyphName="e" x="0" y="0" flags="0x204"/>
      <component glyphName="uni0307" x="203" y="0" flags="0x4"/>
    </TTGlyph>
    <TTGlyph name="egrave" xMin="33" yMin="-12" xMax="457" yMax="717">
      <component glyphName="e" x="0" y="0" flags="0x204"/>
      <component glyphName="uni0300" x="203" y="0" flags="0x4"/>
    </TTGlyph>
    <TTGlyph name="egrave.sups" xMin="56" yMin="260" xMax="343" yMax="738">
      <contour>
        <pt x="179" y="738" on="1"/>
        <pt x="251" y="738" on="1"/>
        <pt x="290" y="642" on="1"/>
        <pt x="235" y="642" on="1"/>
      </contour>
      <contour>
        <pt x="56" y="399" on="1"/>
        <pt x="56" y="444" on="0"/>
        <pt x="88" y="519" on="0"/>
        <pt x="140" y="572" on="0"/>
        <pt x="204" y="602" on="0"/>
        <pt x="237" y="602" on="1"/>
        <pt x="267" y="602" on="0"/>
        <pt x="308" y="582" on="0"/>
        <pt x="332" y="548" on="0"/>
        <pt x="343" y="504" on="0"/>
        <pt x="343" y="480" on="1"/>
        <pt x="343" y="458" on="0"/>
        <pt x="333" y="419" on="0"/>
        <pt x="328" y="410" on="1"/>
        <pt x="130" y="410" on="1"/>
        <pt x="127" y="365" on="0"/>
        <pt x="170" y="319" on="0"/>
        <pt x="210" y="319" on="1"/>
        <pt x="228" y="319" on="0"/>
        <pt x="259" y="332" on="0"/>
        <pt x="276" y="342" on="1"/>
        <pt x="300" y="291" on="1"/>
        <pt x="275" y="277" on="0"/>
        <pt x="219" y="260" on="0"/>
        <pt x="190" y="260" on="1"/>
        <pt x="130" y="260" on="0"/>
        <pt x="56" y="333" on="0"/>
      </contour>
      <contour>
        <pt x="276" y="459" on="1"/>
        <pt x="279" y="472" on="0"/>
        <pt x="279" y="484" on="1"/>
        <pt x="279" y="507" on="0"/>
        <pt x="256" y="542" on="0"/>
        <pt x="228" y="542" on="1"/>
        <pt x="201" y="542" on="0"/>
        <pt x="149" y="498" on="0"/>
        <pt x="137" y="459" on="1"/>
      </contour>
    </TTGlyph>
    <TTGlyph name="eight" xMin="36" yMin="-12" xMax="485" yMax="648">
      <contour>
        <pt x="225" y="306" on="1"/>
        <pt x="185" y="281" on="0"/>
        <pt x="133" y="214" on="0"/>
        <pt x="133" y="166" on="1"/>
        <pt x="133" y="120" on="0"/>
        <pt x="190" y="64" on="0"/>
        <pt x="235" y="64" on="1"/>
        <pt x="257" y="64" on="0"/>
        <pt x="299" y="78" on="0"/>
        <pt x="331" y="106" on="0"/>
        <pt x="350" y="146" on="0"/>
        <pt x="350" y="173" on="1"/>
        <pt x="350" y="196" on="0"/>
        <pt x="331" y="233" on="0"/>
        <pt x="297" y="264" on="0"/>
        <pt x="251" y="291" on="0"/>
      </contour>
      <contour>
        <pt x="315" y="355" on="1"/>
        <pt x="345" y="377" on="0"/>
        <pt x="392" y="440" on="0"/>
        <pt x="392" y="485" on="1"/>
        <pt x="392" y="524" on="0"/>
        <pt x="349" y="571" on="0"/>
        <pt x="312" y="571" on="1"/>
        <pt x="274" y="571" on="0"/>
        <pt x="218" y="521" on="0"/>
        <pt x="218" y="475" on="1"/>
        <pt x="218" y="431" on="0"/>
        <pt x="269" y="379" on="0"/>
      </contour>
      <contour>
        <pt x="36" y="154" on="1"/>
        <pt x="36" y="188" on="0"/>
        <pt x="59" y="246" on="0"/>
        <pt x="98" y="292" on="0"/>
        <pt x="150" y="327" on="0"/>
        <pt x="179" y="339" on="1"/>
        <pt x="179" y="343" on="1"/>
        <pt x="151" y="371" on="0"/>
        <pt x="123" y="432" on="0"/>
        <pt x="123" y="470" on="1"/>
        <pt x="123" y="512" on="0"/>
        <pt x="155" y="578" on="0"/>
        <pt x="209" y="624" on="0"/>
        <pt x="280" y="648" on="0"/>
        <pt x="320" y="648" on="1"/>
        <pt x="351" y="648" on="0"/>
        <pt x="410" y="630" on="0"/>
        <pt x="456" y="594" on="0"/>
        <pt x="485" y="538" on="0"/>
        <pt x="485" y="500" on="1"/>
        <pt x="485" y="438" on="0"/>
        <pt x="420" y="353" on="0"/>
        <pt x="367" y="324" on="1"/>
        <pt x="367" y="320" on="1"/>
        <pt x="398" y="299" on="0"/>
        <pt x="449" y="226" on="0"/>
        <pt x="449" y="176" on="1"/>
        <pt x="449" y="132" on="0"/>
        <pt x="413" y="63" on="0"/>
        <pt x="352" y="14" on="0"/>
        <pt x="272" y="-12" on="0"/>
        <pt x="228" y="-12" on="1"/>
        <pt x="194" y="-12" on="0"/>
        <pt x="125" y="8" on="0"/>
        <pt x="70" y="48" on="0"/>
        <pt x="36" y="111" on="0"/>
      </contour>
    </TTGlyph>
    <TTGlyph name="eight.dnom" xMin="10" yMin="-12" xMax="312" yMax="402">
      <contour>
        <pt x="86" y="101" on="1"/>
        <pt x="86" y="76" on="0"/>
        <pt x="119" y="44" on="0"/>
        <pt x="143" y="44" on="1"/>
        <pt x="172" y="44" on="0"/>
        <pt x="213" y="78" on="0"/>
        <pt x="213" y="106" on="1"/>
        <pt x="213" y="134" on="0"/>
        <pt x="173" y="163" on="0"/>
        <pt x="145" y="177" on="1"/>
        <pt x="86" y="147" on="0"/>
      </contour>
      <contour>
        <pt x="193" y="227" on="1"/>
        <pt x="241" y="261" on="0"/>
        <pt x="241" y="296" on="1"/>
        <pt x="241" y="319" on="0"/>
        <pt x="213" y="344" on="0"/>
        <pt x="193" y="344" on="1"/>
        <pt x="169" y="344" on="0"/>
        <pt x="136" y="316" on="0"/>
        <pt x="136" y="292" on="1"/>
        <pt x="136" y="269" on="0"/>
        <pt x="168" y="238" on="0"/>
      </contour>
      <contour>
        <pt x="10" y="92" on="1"/>
        <pt x="10" y="113" on="0"/>
        <pt x="26" y="148" on="0"/>
        <pt x="52" y="178" on="0"/>
        <pt x="85" y="202" on="0"/>
        <pt x="102" y="210" on="1"/>
        <pt x="104" y="214" on="1"/>
        <pt x="87" y="229" on="0"/>
        <pt x="65" y="267" on="0"/>
        <pt x="65" y="290" on="1"/>
        <pt x="65" y="315" on="0"/>
        <pt x="87" y="356" on="0"/>
        <pt x="123" y="386" on="0"/>
        <pt x="172" y="402" on="0"/>
        <pt x="199" y="402" on="1"/>
        <pt x="250" y="402" on="0"/>
        <pt x="312" y="349" on="0"/>
        <pt x="312" y="304" on="1"/>
        <pt x="312" y="267" on="0"/>
        <pt x="267" y="213" on="0"/>
        <pt x="238" y="197" on="1"/>
        <pt x="238" y="193" on="1"/>
        <pt x="259" y="178" on="0"/>
        <pt x="287" y="137" on="0"/>
        <pt x="287" y="107" on="1"/>
        <pt x="287" y="81" on="0"/>
        <pt x="263" y="37" on="0"/>
        <pt x="223" y="6" on="0"/>
        <pt x="168" y="-12" on="0"/>
        <pt x="137" y="-12" on="1"/>
        <pt x="80" y="-12" on="0"/>
        <pt x="10" y="47" on="0"/>
      </contour>
    </TTGlyph>
    <TTGlyph name="eight.numr" xMin="60" yMin="258" xMax="362" yMax="672">
      <component glyphName="eight.dnom" x="50" y="270" flags="0x204"/>
    </TTGlyph>
    <TTGlyph name="eight.onum" xMin="36" yMin="-12" xMax="485" yMax="648">
      <component glyphName="eight" x="0" y="0" flags="0x204"/>
    </TTGlyph>
    <TTGlyph name="eight.pnum" xMin="36" yMin="-12" xMax="485" yMax="648">
      <component glyphName="eight" x="0" y="0" flags="0x204"/>
    </TTGlyph>
    <TTGlyph name="eight.subs" xMin="-25" yMin="-181" xMax="277" yMax="233">
      <component glyphName="eight.dnom" x="-35" y="-169" flags="0x204"/>
    </TTGlyph>
    <TTGlyph name="eight.sups" xMin="94" yMin="428" xMax="396" yMax="842">
      <component glyphName="eight.dnom" x="84" y="440" flags="0x204"/>
    </TTGlyph>
    <TTGlyph name="eight.tnum" xMin="36" yMin="-12" xMax="485" yMax="648">
      <component glyphName="eight" x="0" y="0" flags="0x204"/>
    </TTGlyph>
    <TTGlyph name="ellipsis" xMin="76" yMin="-12" xMax="865" yMax="136">
      <component glyphName="period" x="53" y="0" flags="0x4"/>
      <component glyphName="period" x="377" y="0" flags="0x4"/>
      <component glyphName="period" x="701" y="0" flags="0x4"/>
    </TTGlyph>
    <TTGlyph name="emacron" xMin="33" yMin="-12" xMax="458" yMax="668">
      <component glyphName="e" x="0" y="0" flags="0x204"/>
      <component glyphName="uni0304" x="203" y="0" flags="0x4"/>
    </TTGlyph>
    <TTGlyph name="emdash" xMin="35" yMin="216" xMax="736" yMax="288">
      <contour>
        <pt x="49" y="288" on="1"/>
        <pt x="736" y="288" on="1"/>
        <pt x="721" y="216" on="1"/>
        <pt x="35" y="216" on="1"/>
      </contour>
    </TTGlyph>
    <TTGlyph name="endash" xMin="35" yMin="216" xMax="428" yMax="288">
      <contour>
        <pt x="49" y="288" on="1"/>
        <pt x="428" y="288" on="1"/>
        <pt x="413" y="216" on="1"/>
        <pt x="35" y="216" on="1"/>
      </contour>
    </TTGlyph>
    <TTGlyph name="eogonek" xMin="33" yMin="-208" xMax="457" yMax="503">
      <contour>
        <pt x="174" y="-138" on="1"/>
        <pt x="174" y="-115" on="0"/>
        <pt x="192" y="-74" on="0"/>
        <pt x="218" y="-41" on="0"/>
        <pt x="244" y="-17" on="0"/>
        <pt x="252" y="-10" on="1"/>
        <pt x="247" y="-11" on="0"/>
        <pt x="236" y="-12" on="0"/>
        <pt x="231" y="-12" on="1"/>
        <pt x="187" y="-12" on="0"/>
        <pt x="114" y="16" on="0"/>
        <pt x="62" y="69" on="0"/>
        <pt x="33" y="146" on="0"/>
        <pt x="33" y="196" on="1"/>
        <pt x="33" y="265" on="0"/>
        <pt x="80" y="378" on="0"/>
        <pt x="157" y="459" on="0"/>
        <pt x="253" y="503" on="0"/>
        <pt x="301" y="503" on="1"/>
        <pt x="344" y="503" on="0"/>
        <pt x="403" y="475" on="0"/>
        <pt x="440" y="426" on="0"/>
        <pt x="457" y="360" on="0"/>
        <pt x="457" y="322" on="1"/>
        <pt x="457" y="290" on="0"/>
        <pt x="441" y="230" on="0"/>
        <pt x="436" y="218" on="1"/>
        <pt x="137" y="218" on="1"/>
        <pt x="133" y="179" on="0"/>
        <pt x="149" y="123" on="0"/>
        <pt x="182" y="87" on="0"/>
        <pt x="230" y="70" on="0"/>
        <pt x="258" y="70" on="1"/>
        <pt x="284" y="70" on="0"/>
        <pt x="338" y="94" on="0"/>
        <pt x="358" y="109" on="1"/>
        <pt x="398" y="40" on="1"/>
        <pt x="354" y="17" on="0"/>
        <pt x="299" y="-25" on="0"/>
        <pt x="266" y="-62" on="0"/>
        <pt x="254" y="-95" on="0"/>
        <pt x="254" y="-108" on="1"/>
        <pt x="254" y="-124" on="0"/>
        <pt x="275" y="-141" on="0"/>
        <pt x="290" y="-141" on="1"/>
        <pt x="306" y="-141" on="0"/>
        <pt x="325" y="-130" on="1"/>
        <pt x="344" y="-178" on="1"/>
        <pt x="325" y="-191" on="0"/>
        <pt x="275" y="-208" on="0"/>
        <pt x="254" y="-208" on="1"/>
        <pt x="219" y="-208" on="0"/>
        <pt x="174" y="-173" on="0"/>
      </contour>
      <contour>
        <pt x="363" y="286" on="1"/>
        <pt x="365" y="296" on="0"/>
        <pt x="368" y="317" on="0"/>
        <pt x="368" y="329" on="1"/>
        <pt x="368" y="365" on="0"/>
        <pt x="333" y="420" on="0"/>
        <pt x="288" y="420" on="1"/>
        <pt x="243" y="420" on="0"/>
        <pt x="164" y="349" on="0"/>
        <pt x="146" y="286" on="1"/>
      </contour>
    </TTGlyph>
    <TTGlyph name="equal" xMin="48" yMin="181" xMax="472" yMax="480">
      <component glyphName="minus" x="0" y="111" flags="0x204"/>
      <component glyphName="minus" x="0" y="-111" flags="0x4"/>
    </TTGlyph>
    <TTGlyph name="estimated" xMin="66" yMin="-12" xMax="774" yMax="660">
      <contour>
        <pt x="204" y="108" on="1"/>
        <pt x="245" y="61" on="0"/>
        <pt x="357" y="8" on="0"/>
        <pt x="422" y="8" on="1"/>
        <pt x="490" y="8" on="0"/>
        <pt x="608" y="69" on="0"/>
        <pt x="650" y="120" on="1"/>
        <pt x="702" y="120" on="1"/>
        <pt x="652" y="60" on="0"/>
        <pt x="506" y="-12" on="0"/>
        <pt x="420" y="-12" on="1"/>
        <pt x="346" y="-12" on="0"/>
        <pt x="217" y="41" on="0"/>
        <pt x="121" y="132" on="0"/>
        <pt x="66" y="254" on="0"/>
        <pt x="66" y="324" on="1"/>
        <pt x="66" y="394" on="0"/>
        <pt x="121" y="516" on="0"/>
        <pt x="217" y="607" on="0"/>
        <pt x="346" y="660" on="0"/>
        <pt x="420" y="660" on="1"/>
        <pt x="493" y="660" on="0"/>
        <pt x="622" y="607" on="0"/>
        <pt x="718" y="516" on="0"/>
        <pt x="774" y="394" on="0"/>
        <pt x="774" y="324" on="1"/>
        <pt x="774" y="316" on="1"/>
        <pt x="200" y="316" on="1"/>
        <pt x="196" y="316" on="0"/>
        <pt x="196" y="312" on="1"/>
        <pt x="196" y="128" on="1"/>
        <pt x="196" y="122" on="0"/>
        <pt x="201" y="113" on="0"/>
      </contour>
      <contour>
        <pt x="640" y="334" on="1"/>
        <pt x="646" y="334" on="0"/>
        <pt x="646" y="340" on="1"/>
        <pt x="646" y="524" on="1"/>
        <pt x="646" y="536" on="0"/>
        <pt x="636" y="546" on="1"/>
        <pt x="594" y="590" on="0"/>
        <pt x="484" y="640" on="0"/>
        <pt x="422" y="640" on="1"/>
        <pt x="357" y="640" on="0"/>
        <pt x="246" y="587" on="0"/>
        <pt x="204" y="542" on="1"/>
        <pt x="201" y="537" on="0"/>
        <pt x="196" y="526" on="0"/>
        <pt x="196" y="520" on="1"/>
        <pt x="196" y="340" on="1"/>
        <pt x="196" y="334" on="0"/>
        <pt x="200" y="334" on="1"/>
      </contour>
    </TTGlyph>
    <TTGlyph name="eth" xMin="38" yMin="-12" xMax="542" yMax="735">
      <contour>
        <pt x="230" y="75" on="1"/>
        <pt x="261" y="75" on="0"/>
        <pt x="313" y="110" on="0"/>
        <pt x="352" y="171" on="0"/>
        <pt x="376" y="254" on="0"/>
        <pt x="380" y="302" on="1"/>
        <pt x="364" y="328" on="0"/>
        <pt x="315" y="368" on="0"/>
        <pt x="281" y="368" on="1"/>
        <pt x="246" y="368" on="0"/>
        <pt x="193" y="336" on="0"/>
        <pt x="155" y="285" on="0"/>
        <pt x="136" y="219" on="0"/>
        <pt x="136" y="186" on="1"/>
        <pt x="136" y="141" on="0"/>
        <pt x="184" y="75" on="0"/>
      </contour>
      <contour>
        <pt x="413" y="591" on="1"/>
        <pt x="446" y="542" on="0"/>
        <pt x="482" y="424" on="0"/>
        <pt x="482" y="352" on="1"/>
        <pt x="482" y="282" on="0"/>
        <pt x="448" y="151" on="0"/>
        <pt x="382" y="49" on="0"/>
        <pt x="284" y="-12" on="0"/>
        <pt x="220" y="-12" on="1"/>
        <pt x="182" y="-12" on="0"/>
        <pt x="115" y="15" on="0"/>
        <pt x="66" y="65" on="0"/>
        <pt x="38" y="135" on="0"/>
        <pt x="38" y="177" on="1"/>
        <pt x="38" y="228" on="0"/>
        <pt x="69" y="326" on="0"/>
        <pt x="129" y="403" on="0"/>
        <pt x="214" y="451" on="0"/>
        <pt x="268" y="451" on="1"/>
        <pt x="303" y="451" on="0"/>
        <pt x="361" y="418" on="0"/>
        <pt x="380" y="387" on="1"/>
        <pt x="373" y="487" on="0"/>
        <pt x="327" y="556" on="1"/>
        <pt x="180" y="496" on="1"/>
        <pt x="159" y="549" on="1"/>
        <pt x="289" y="602" on="1"/>
        <pt x="271" y="621" on="0"/>
        <pt x="227" y="655" on="0"/>
        <pt x="201" y="672" on="1"/>
        <pt x="250" y="735" on="1"/>
        <pt x="286" y="715" on="0"/>
        <pt x="350" y="666" on="0"/>
        <pt x="376" y="637" on="1"/>
        <pt x="521" y="696" on="1"/>
        <pt x="542" y="643" on="1"/>
      </contour>
    </TTGlyph>
    <TTGlyph name="exclam" xMin="44" yMin="-12" xMax="289" yMax="671">
      <contour>
        <pt x="165" y="561" on="1"/>
        <pt x="182" y="671" on="1"/>
        <pt x="289" y="671" on="1"/>
        <pt x="265" y="561" on="1"/>
        <pt x="181" y="212" on="1"/>
        <pt x="109" y="212" on="1"/>
      </contour>
      <contour>
        <pt x="104" y="-12" on="1"/>
        <pt x="77" y="-12" on="0"/>
        <pt x="44" y="23" on="0"/>
        <pt x="44" y="50" on="1"/>
        <pt x="44" y="66" on="0"/>
        <pt x="56" y="97" on="0"/>
        <pt x="79" y="121" on="0"/>
        <pt x="109" y="136" on="0"/>
        <pt x="127" y="136" on="1"/>
        <pt x="154" y="136" on="0"/>
        <pt x="186" y="100" on="0"/>
        <pt x="186" y="73" on="1"/>
        <pt x="186" y="57" on="0"/>
        <pt x="174" y="26" on="0"/>
        <pt x="152" y="2" on="0"/>
        <pt x="122" y="-12" on="0"/>
      </contour>
    </TTGlyph>
    <TTGlyph name="exclamdown" xMin="19" yMin="-180" xMax="264" yMax="503">
      <contour>
        <pt x="143" y="-70" on="1"/>
        <pt x="126" y="-180" on="1"/>
        <pt x="19" y="-180" on="1"/>
        <pt x="43" y="-70" on="1"/>
        <pt x="128" y="280" on="1"/>
        <pt x="200" y="280" on="1"/>
      </contour>
      <contour>
        <pt x="205" y="503" on="1"/>
        <pt x="232" y="503" on="0"/>
        <pt x="264" y="468" on="0"/>
        <pt x="264" y="441" on="1"/>
        <pt x="264" y="426" on="0"/>
        <pt x="252" y="395" on="0"/>
        <pt x="230" y="370" on="0"/>
        <pt x="199" y="355" on="0"/>
        <pt x="181" y="355" on="1"/>
        <pt x="154" y="355" on="0"/>
        <pt x="123" y="391" on="0"/>
        <pt x="123" y="418" on="1"/>
        <pt x="123" y="434" on="0"/>
        <pt x="135" y="465" on="0"/>
        <pt x="156" y="489" on="0"/>
        <pt x="187" y="503" on="0"/>
      </contour>
    </TTGlyph>
    <TTGlyph name="f" xMin="40" yMin="0" xMax="420" yMax="718">
      <contour>
        <pt x="74" y="486" on="1"/>
        <pt x="139" y="491" on="1"/>
        <pt x="150" y="548" on="1"/>
        <pt x="165" y="623" on="0"/>
        <pt x="249" y="718" on="0"/>
        <pt x="323" y="718" on="1"/>
        <pt x="351" y="718" on="0"/>
        <pt x="399" y="704" on="0"/>
        <pt x="420" y="693" on="1"/>
        <pt x="384" y="617" on="1"/>
        <pt x="375" y="622" on="0"/>
        <pt x="348" y="632" on="0"/>
        <pt x="333" y="632" on="1"/>
        <pt x="303" y="632" on="0"/>
        <pt x="265" y="593" on="0"/>
        <pt x="257" y="551" on="1"/>
        <pt x="245" y="491" on="1"/>
        <pt x="338" y="491" on="1"/>
        <pt x="321" y="406" on="1"/>
        <pt x="227" y="406" on="1"/>
        <pt x="147" y="0" on="1"/>
        <pt x="40" y="0" on="1"/>
        <pt x="121" y="406" on="1"/>
        <pt x="58" y="406" on="1"/>
      </contour>
    </TTGlyph>
    <TTGlyph name="f.sups" xMin="60" yMin="264" xMax="319" yMax="742">
      <contour>
        <pt x="294" y="670" on="1"/>
        <pt x="288" y="674" on="0"/>
        <pt x="270" y="681" on="0"/>
        <pt x="260" y="681" on="1"/>
        <pt x="222" y="681" on="0"/>
        <pt x="210" y="625" on="1"/>
        <pt x="203" y="590" on="1"/>
        <pt x="266" y="590" on="1"/>
        <pt x="254" y="528" on="1"/>
        <pt x="190" y="528" on="1"/>
        <pt x="137" y="264" on="1"/>
        <pt x="60" y="264" on="1"/>
        <pt x="113" y="528" on="1"/>
        <pt x="71" y="528" on="1"/>
        <pt x="81" y="585" on="1"/>
        <pt x="126" y="590" on="1"/>
        <pt x="133" y="626" on="1"/>
        <pt x="143" y="677" on="0"/>
        <pt x="201" y="742" on="0"/>
        <pt x="253" y="742" on="1"/>
        <pt x="287" y="742" on="0"/>
        <pt x="319" y="725" on="1"/>
      </contour>
    </TTGlyph>
    <TTGlyph name="f_f" xMin="40" yMin="0" xMax="705" yMax="718">
      <contour>
        <pt x="670" y="617" on="1"/>
        <pt x="660" y="622" on="0"/>
        <pt x="634" y="632" on="0"/>
        <pt x="619" y="632" on="1"/>
        <pt x="588" y="632" on="0"/>
        <pt x="551" y="593" on="0"/>
        <pt x="543" y="551" on="1"/>
        <pt x="531" y="491" on="1"/>
        <pt x="623" y="491" on="1"/>
        <pt x="606" y="406" on="1"/>
        <pt x="514" y="406" on="1"/>
        <pt x="432" y="0" on="1"/>
        <pt x="325" y="0" on="1"/>
        <pt x="407" y="406" on="1"/>
        <pt x="228" y="406" on="1"/>
        <pt x="147" y="0" on="1"/>
        <pt x="40" y="0" on="1"/>
        <pt x="122" y="406" on="1"/>
        <pt x="58" y="406" on="1"/>
        <pt x="74" y="486" on="1"/>
        <pt x="138" y="491" on="1"/>
        <pt x="148" y="538" on="1"/>
        <pt x="164" y="613" on="0"/>
        <pt x="250" y="708" on="0"/>
        <pt x="325" y="708" on="1"/>
        <pt x="354" y="708" on="0"/>
        <pt x="403" y="695" on="0"/>
        <pt x="426" y="684" on="1"/>
        <pt x="390" y="607" on="1"/>
        <pt x="379" y="612" on="0"/>
        <pt x="352" y="622" on="0"/>
        <pt x="335" y="622" on="1"/>
        <pt x="303" y="622" on="0"/>
        <pt x="263" y="583" on="0"/>
        <pt x="255" y="541" on="1"/>
        <pt x="245" y="491" on="1"/>
        <pt x="424" y="491" on="1"/>
        <pt x="436" y="548" on="1"/>
        <pt x="451" y="623" on="0"/>
        <pt x="535" y="718" on="0"/>
        <pt x="609" y="718" on="1"/>
        <pt x="637" y="718" on="0"/>
        <pt x="684" y="705" on="0"/>
        <pt x="705" y="694" on="1"/>
      </contour>
    </TTGlyph>
    <TTGlyph name="f_t" xMin="40" yMin="-12" xMax="625" yMax="718">
      <contour>
        <pt x="438" y="162" on="1"/>
        <pt x="435" y="144" on="0"/>
        <pt x="435" y="127" on="1"/>
        <pt x="435" y="100" on="0"/>
        <pt x="461" y="73" on="0"/>
        <pt x="492" y="73" on="1"/>
        <pt x="505" y="73" on="0"/>
        <pt x="527" y="81" on="0"/>
        <pt x="538" y="86" on="1"/>
        <pt x="558" y="10" on="1"/>
        <pt x="540" y="2" on="0"/>
        <pt x="488" y="-12" on="0"/>
        <pt x="454" y="-12" on="1"/>
        <pt x="385" y="-12" on="0"/>
        <pt x="326" y="57" on="0"/>
        <pt x="326" y="108" on="1"/>
        <pt x="326" y="136" on="0"/>
        <pt x="332" y="166" on="1"/>
        <pt x="382" y="406" on="1"/>
        <pt x="228" y="406" on="1"/>
        <pt x="147" y="0" on="1"/>
        <pt x="40" y="0" on="1"/>
        <pt x="121" y="406" on="1"/>
        <pt x="58" y="406" on="1"/>
        <pt x="74" y="486" on="1"/>
        <pt x="138" y="491" on="1"/>
        <pt x="150" y="548" on="1"/>
        <pt x="165" y="623" on="0"/>
        <pt x="249" y="718" on="0"/>
        <pt x="323" y="718" on="1"/>
        <pt x="351" y="718" on="0"/>
        <pt x="398" y="705" on="0"/>
        <pt x="420" y="694" on="1"/>
        <pt x="384" y="617" on="1"/>
        <pt x="375" y="622" on="0"/>
        <pt x="348" y="632" on="0"/>
        <pt x="333" y="632" on="1"/>
        <pt x="303" y="632" on="0"/>
        <pt x="265" y="593" on="0"/>
        <pt x="257" y="551" on="1"/>
        <pt x="245" y="491" on="1"/>
        <pt x="404" y="491" on="1"/>
        <pt x="443" y="623" on="1"/>
        <pt x="533" y="623" on="1"/>
        <pt x="507" y="491" on="1"/>
        <pt x="625" y="491" on="1"/>
        <pt x="608" y="406" on="1"/>
        <pt x="488" y="406" on="1"/>
      </contour>
    </TTGlyph>
    <TTGlyph name="fi" xMin="40" yMin="0" xMax="577" yMax="718">
      <component glyphName="f" x="0" y="0" flags="0x4"/>
      <component glyphName="i" x="305" y="0" flags="0x4"/>
    </TTGlyph>
    <TTGlyph name="figuredash" xMin="35" yMin="216" xMax="460" yMax="288">
      <contour>
        <pt x="49" y="288" on="1"/>
        <pt x="460" y="288" on="1"/>
        <pt x="444" y="216" on="1"/>
        <pt x="35" y="216" on="1"/>
      </contour>
    </TTGlyph>
    <TTGlyph name="five" xMin="-6" yMin="-12" xMax="490" yMax="636">
      <contour>
        <pt x="63" y="155" on="1"/>
        <pt x="86" y="121" on="0"/>
        <pt x="148" y="75" on="0"/>
        <pt x="196" y="75" on="1"/>
        <pt x="223" y="75" on="0"/>
        <pt x="273" y="95" on="0"/>
        <pt x="310" y="133" on="0"/>
        <pt x="333" y="187" on="0"/>
        <pt x="333" y="220" on="1"/>
        <pt x="333" y="273" on="0"/>
        <pt x="279" y="325" on="0"/>
        <pt x="232" y="325" on="1"/>
        <pt x="218" y="325" on="0"/>
        <pt x="195" y="322" on="0"/>
        <pt x="173" y="314" on="0"/>
        <pt x="148" y="303" on="0"/>
        <pt x="132" y="294" on="1"/>
        <pt x="90" y="328" on="1"/>
        <pt x="169" y="636" on="1"/>
        <pt x="490" y="636" on="1"/>
        <pt x="472" y="546" on="1"/>
        <pt x="244" y="546" on="1"/>
        <pt x="201" y="390" on="1"/>
        <pt x="217" y="398" on="0"/>
        <pt x="252" y="406" on="0"/>
        <pt x="273" y="406" on="1"/>
        <pt x="309" y="406" on="0"/>
        <pt x="370" y="385" on="0"/>
        <pt x="415" y="343" on="0"/>
        <pt x="441" y="280" on="0"/>
        <pt x="441" y="238" on="1"/>
        <pt x="441" y="180" on="0"/>
        <pt x="399" y="88" on="0"/>
        <pt x="330" y="23" on="0"/>
        <pt x="241" y="-12" on="0"/>
        <pt x="193" y="-12" on="1"/>
        <pt x="130" y="-12" on="0"/>
        <pt x="30" y="46" on="0"/>
        <pt x="-6" y="99" on="1"/>
      </contour>
    </TTGlyph>
    <TTGlyph name="five.dnom" xMin="-2" yMin="-12" xMax="327" yMax="390">
      <contour>
        <pt x="52" y="106" on="1"/>
        <pt x="66" y="82" on="0"/>
        <pt x="106" y="53" on="0"/>
        <pt x="137" y="53" on="1"/>
        <pt x="152" y="53" on="0"/>
        <pt x="179" y="64" on="0"/>
        <pt x="201" y="85" on="0"/>
        <pt x="214" y="114" on="0"/>
        <pt x="214" y="132" on="1"/>
        <pt x="214" y="162" on="0"/>
        <pt x="180" y="195" on="0"/>
        <pt x="153" y="195" on="1"/>
        <pt x="135" y="195" on="0"/>
        <pt x="104" y="183" on="0"/>
        <pt x="87" y="171" on="1"/>
        <pt x="58" y="200" on="1"/>
        <pt x="111" y="390" on="1"/>
        <pt x="327" y="390" on="1"/>
        <pt x="314" y="322" on="1"/>
        <pt x="162" y="322" on="1"/>
        <pt x="138" y="241" on="1"/>
        <pt x="150" y="247" on="0"/>
        <pt x="175" y="252" on="0"/>
        <pt x="184" y="252" on="1"/>
        <pt x="232" y="252" on="0"/>
        <pt x="293" y="191" on="0"/>
        <pt x="293" y="138" on="1"/>
        <pt x="293" y="105" on="0"/>
        <pt x="268" y="50" on="0"/>
        <pt x="225" y="10" on="0"/>
        <pt x="169" y="-12" on="0"/>
        <pt x="138" y="-12" on="1"/>
        <pt x="87" y="-12" on="0"/>
        <pt x="18" y="34" on="0"/>
        <pt x="-2" y="68" on="1"/>
      </contour>
    </TTGlyph>
    <TTGlyph name="five.numr" xMin="48" yMin="258" xMax="377" yMax="660">
      <component glyphName="five.dnom" x="50" y="270" flags="0x204"/>
    </TTGlyph>
    <TTGlyph name="five.onum" xMin="-23" yMin="-88" xMax="475" yMax="576">
      <component glyphName="five.tnum" x="0" y="0" flags="0x204"/>
    </TTGlyph>
    <TTGlyph name="five.pnum" xMin="-13" yMin="-12" xMax="483" yMax="636">
      <component glyphName="five" x="-7" y="0" flags="0x4"/>
    </TTGlyph>
    <TTGlyph name="five.subs" xMin="-37" yMin="-181" xMax="292" yMax="221">
      <component glyphName="five.dnom" x="-35" y="-169" flags="0x204"/>
    </TTGlyph>
    <TTGlyph name="five.sups" xMin="82" yMin="428" xMax="411" yMax="830">
      <component glyphName="five.dnom" x="84" y="440" flags="0x204"/>
    </TTGlyph>
    <TTGlyph name="five.tnum" xMin="-23" yMin="-88" xMax="475" yMax="576">
      <contour>
        <pt x="46" y="79" on="1"/>
        <pt x="69" y="46" on="0"/>
        <pt x="131" y="0" on="0"/>
        <pt x="179" y="0" on="1"/>
        <pt x="206" y="0" on="0"/>
        <pt x="255" y="20" on="0"/>
        <pt x="293" y="58" on="0"/>
        <pt x="315" y="112" on="0"/>
        <pt x="315" y="145" on="1"/>
        <pt x="315" y="200" on="0"/>
        <pt x="261" y="256" on="0"/>
        <pt x="214" y="256" on="1"/>
        <pt x="200" y="256" on="0"/>
        <pt x="177" y="252" on="0"/>
        <pt x="155" y="245" on="0"/>
        <pt x="130" y="233" on="0"/>
        <pt x="114" y="225" on="1"/>
        <pt x="72" y="259" on="1"/>
        <pt x="154" y="576" on="1"/>
        <pt x="475" y="576" on="1"/>
        <pt x="457" y="485" on="1"/>
        <pt x="229" y="485" on="1"/>
        <pt x="183" y="321" on="1"/>
        <pt x="217" y="337" on="0"/>
        <pt x="255" y="337" on="1"/>
        <pt x="291" y="337" on="0"/>
        <pt x="353" y="315" on="0"/>
        <pt x="398" y="271" on="0"/>
        <pt x="424" y="206" on="0"/>
        <pt x="424" y="163" on="1"/>
        <pt x="424" y="105" on="0"/>
        <pt x="382" y="12" on="0"/>
        <pt x="313" y="-53" on="0"/>
        <pt x="223" y="-88" on="0"/>
        <pt x="175" y="-88" on="1"/>
        <pt x="112" y="-88" on="0"/>
        <pt x="12" y="-29" on="0"/>
        <pt x="-23" y="24" on="1"/>
      </contour>
    </TTGlyph>
    <TTGlyph name="fiveeighths" xMin="42" yMin="-12" xMax="754" yMax="672">
      <component glyphName="five.dnom" x="44" y="270" flags="0x4"/>
      <component glyphName="fraction" x="355" y="0" flags="0x4"/>
      <component glyphName="eight.dnom" x="442" y="0" flags="0x4"/>
    </TTGlyph>
    <TTGlyph name="fl" xMin="40" yMin="-12" xMax="576" yMax="718">
      <component glyphName="f" x="0" y="0" flags="0x4"/>
      <component glyphName="l" x="305" y="0" flags="0x4"/>
    </TTGlyph>
    <TTGlyph name="fl.a" xMin="40" yMin="0" xMax="576" yMax="718">
      <component glyphName="f" x="0" y="0" flags="0x4"/>
      <component glyphName="l.a" x="305" y="0" flags="0x4"/>
    </TTGlyph>
    <TTGlyph name="four" xMin="8" yMin="0" xMax="468" yMax="636">
      <contour>
        <pt x="242" y="0" on="1"/>
        <pt x="275" y="165" on="1"/>
        <pt x="8" y="165" on="1"/>
        <pt x="22" y="239" on="1"/>
        <pt x="343" y="636" on="1"/>
        <pt x="468" y="636" on="1"/>
        <pt x="390" y="249" on="1"/>
        <pt x="468" y="249" on="1"/>
        <pt x="452" y="165" on="1"/>
        <pt x="374" y="165" on="1"/>
        <pt x="341" y="0" on="1"/>
      </contour>
      <contour>
        <pt x="291" y="249" on="1"/>
        <pt x="322" y="400" on="1"/>
        <pt x="328" y="432" on="0"/>
        <pt x="345" y="500" on="0"/>
        <pt x="353" y="534" on="1"/>
        <pt x="349" y="534" on="1"/>
        <pt x="330" y="505" on="0"/>
        <pt x="293" y="449" on="0"/>
        <pt x="274" y="424" on="1"/>
        <pt x="132" y="249" on="1"/>
      </contour>
    </TTGlyph>
    <TTGlyph name="four.dnom" xMin="2" yMin="0" xMax="320" yMax="390">
      <contour>
        <pt x="193" y="152" on="1"/>
        <pt x="205" y="214" on="1"/>
        <pt x="232" y="328" on="1"/>
        <pt x="228" y="328" on="1"/>
        <pt x="164" y="244" on="1"/>
        <pt x="88" y="152" on="1"/>
      </contour>
      <contour>
        <pt x="308" y="97" on="1"/>
        <pt x="251" y="97" on="1"/>
        <pt x="232" y="0" on="1"/>
        <pt x="162" y="0" on="1"/>
        <pt x="181" y="97" on="1"/>
        <pt x="2" y="97" on="1"/>
        <pt x="10" y="140" on="1"/>
        <pt x="214" y="390" on="1"/>
        <pt x="309" y="390" on="1"/>
        <pt x="262" y="152" on="1"/>
        <pt x="320" y="152" on="1"/>
      </contour>
    </TTGlyph>
    <TTGlyph name="four.numr" xMin="52" yMin="270" xMax="370" yMax="660">
      <component glyphName="four.dnom" x="50" y="270" flags="0x204"/>
    </TTGlyph>
    <TTGlyph name="four.onum" xMin="-6" yMin="-76" xMax="462" yMax="576">
      <component glyphName="four.tnum" x="0" y="0" flags="0x204"/>
    </TTGlyph>
    <TTGlyph name="four.pnum" xMin="18" yMin="0" xMax="478" yMax="636">
      <component glyphName="four" x="10" y="0" flags="0x4"/>
    </TTGlyph>
    <TTGlyph name="four.subs" xMin="-33" yMin="-169" xMax="285" yMax="221">
      <component glyphName="four.dnom" x="-35" y="-169" flags="0x204"/>
    </TTGlyph>
    <TTGlyph name="four.sups" xMin="86" yMin="440" xMax="404" yMax="830">
      <component glyphName="four.dnom" x="84" y="440" flags="0x204"/>
    </TTGlyph>
    <TTGlyph name="four.tnum" xMin="-6" yMin="-76" xMax="462" yMax="576">
      <contour>
        <pt x="283" y="173" on="1"/>
        <pt x="316" y="340" on="1"/>
        <pt x="323" y="371" on="0"/>
        <pt x="340" y="439" on="0"/>
        <pt x="348" y="474" on="1"/>
        <pt x="344" y="474" on="1"/>
        <pt x="324" y="445" on="0"/>
        <pt x="288" y="389" on="0"/>
        <pt x="269" y="364" on="1"/>
        <pt x="118" y="173" on="1"/>
      </contour>
      <contour>
        <pt x="382" y="173" on="1"/>
        <pt x="460" y="173" on="1"/>
        <pt x="443" y="90" on="1"/>
        <pt x="365" y="90" on="1"/>
        <pt x="332" y="-76" on="1"/>
        <pt x="233" y="-76" on="1"/>
        <pt x="266" y="90" on="1"/>
        <pt x="-6" y="90" on="1"/>
        <pt x="8" y="163" on="1"/>
        <pt x="338" y="576" on="1"/>
        <pt x="462" y="576" on="1"/>
      </contour>
    </TTGlyph>
    <TTGlyph name="fraction" xMin="-213" yMin="-12" xMax="332" yMax="672">
      <contour>
        <pt x="-213" y="-12" on="1"/>
        <pt x="266" y="672" on="1"/>
        <pt x="332" y="672" on="1"/>
        <pt x="-147" y="-12" on="1"/>
      </contour>
    </TTGlyph>
    <TTGlyph name="g" xMin="-7" yMin="-218" xMax="515" yMax="503">
      <contour>
        <pt x="515" y="491" on="1"/>
        <pt x="415" y="-7" on="1"/>
        <pt x="394" y="-111" on="0"/>
        <pt x="268" y="-218" on="0"/>
        <pt x="170" y="-218" on="1"/>
        <pt x="123" y="-218" on="0"/>
        <pt x="32" y="-182" on="0"/>
        <pt x="-7" y="-150" on="1"/>
        <pt x="41" y="-78" on="1"/>
        <pt x="69" y="-101" on="0"/>
        <pt x="135" y="-132" on="0"/>
        <pt x="173" y="-132" on="1"/>
        <pt x="229" y="-132" on="0"/>
        <pt x="297" y="-67" on="0"/>
        <pt x="313" y="-8" on="1"/>
        <pt x="337" y="83" on="1"/>
        <pt x="334" y="83" on="1"/>
        <pt x="299" y="50" on="0"/>
        <pt x="222" y="10" on="0"/>
        <pt x="178" y="10" on="1"/>
        <pt x="116" y="10" on="0"/>
        <pt x="35" y="97" on="0"/>
        <pt x="35" y="183" on="1"/>
        <pt x="35" y="250" on="0"/>
        <pt x="78" y="366" on="0"/>
        <pt x="150" y="453" on="0"/>
        <pt x="243" y="503" on="0"/>
        <pt x="293" y="503" on="1"/>
        <pt x="329" y="503" on="0"/>
        <pt x="388" y="466" on="0"/>
        <pt x="404" y="434" on="1"/>
        <pt x="407" y="434" on="1"/>
        <pt x="428" y="491" on="1"/>
      </contour>
      <contour>
        <pt x="217" y="99" on="1"/>
        <pt x="246" y="99" on="0"/>
        <pt x="315" y="134" on="0"/>
        <pt x="344" y="173" on="1"/>
        <pt x="381" y="355" on="1"/>
        <pt x="364" y="387" on="0"/>
        <pt x="322" y="415" on="0"/>
        <pt x="299" y="415" on="1"/>
        <pt x="269" y="415" on="0"/>
        <pt x="214" y="380" on="0"/>
        <pt x="171" y="320" on="0"/>
        <pt x="146" y="241" on="0"/>
        <pt x="146" y="197" on="1"/>
        <pt x="146" y="147" on="0"/>
        <pt x="185" y="99" on="0"/>
      </contour>
    </TTGlyph>
    <TTGlyph name="g.a" xMin="-20" yMin="-217" xMax="518" yMax="503">
      <contour>
        <pt x="72" y="302" on="1"/>
        <pt x="72" y="345" on="0"/>
        <pt x="104" y="419" on="0"/>
        <pt x="161" y="473" on="0"/>
        <pt x="236" y="503" on="0"/>
        <pt x="280" y="503" on="1"/>
        <pt x="299" y="503" on="0"/>
        <pt x="329" y="497" on="0"/>
        <pt x="344" y="491" on="1"/>
        <pt x="518" y="491" on="1"/>
        <pt x="503" y="410" on="1"/>
        <pt x="418" y="410" on="1"/>
        <pt x="426" y="396" on="0"/>
        <pt x="434" y="365" on="0"/>
        <pt x="434" y="350" on="1"/>
        <pt x="434" y="307" on="0"/>
        <pt x="403" y="236" on="0"/>
        <pt x="348" y="185" on="0"/>
        <pt x="271" y="156" on="0"/>
        <pt x="226" y="156" on="1"/>
        <pt x="195" y="156" on="0"/>
        <pt x="177" y="163" on="1"/>
        <pt x="166" y="155" on="0"/>
        <pt x="150" y="131" on="0"/>
        <pt x="150" y="117" on="1"/>
        <pt x="150" y="95" on="0"/>
        <pt x="184" y="74" on="0"/>
        <pt x="237" y="68" on="1"/>
        <pt x="288" y="62" on="0"/>
        <pt x="356" y="42" on="0"/>
        <pt x="397" y="15" on="0"/>
        <pt x="414" y="-22" on="0"/>
        <pt x="414" y="-46" on="1"/>
        <pt x="414" y="-89" on="0"/>
        <pt x="371" y="-153" on="0"/>
        <pt x="301" y="-196" on="0"/>
        <pt x="213" y="-217" on="0"/>
        <pt x="167" y="-217" on="1"/>
        <pt x="137" y="-217" on="0"/>
        <pt x="72" y="-207" on="0"/>
        <pt x="16" y="-181" on="0"/>
        <pt x="-20" y="-135" on="0"/>
        <pt x="-20" y="-100" on="1"/>
        <pt x="-20" y="-78" on="0"/>
        <pt x="-1" y="-40" on="0"/>
        <pt x="30" y="-9" on="0"/>
        <pt x="69" y="16" on="0"/>
        <pt x="90" y="25" on="1"/>
        <pt x="90" y="28" on="1"/>
        <pt x="76" y="39" on="0"/>
        <pt x="60" y="74" on="0"/>
        <pt x="60" y="94" on="1"/>
        <pt x="60" y="121" on="0"/>
        <pt x="95" y="170" on="0"/>
        <pt x="124" y="187" on="1"/>
        <pt x="124" y="191" on="1"/>
        <pt x="101" y="211" on="0"/>
        <pt x="72" y="267" on="0"/>
      </contour>
      <contour>
        <pt x="144" y="-2" on="1"/>
        <pt x="132" y="-8" on="0"/>
        <pt x="106" y="-25" on="0"/>
        <pt x="85" y="-45" on="0"/>
        <pt x="72" y="-68" on="0"/>
        <pt x="72" y="-81" on="1"/>
        <pt x="72" y="-116" on="0"/>
        <pt x="129" y="-148" on="0"/>
        <pt x="177" y="-148" on="1"/>
        <pt x="205" y="-148" on="0"/>
        <pt x="253" y="-137" on="0"/>
        <pt x="288" y="-116" on="0"/>
        <pt x="308" y="-89" on="0"/>
        <pt x="308" y="-72" on="1"/>
        <pt x="308" y="-44" on="0"/>
        <pt x="252" y="-19" on="0"/>
        <pt x="203" y="-13" on="1"/>
        <pt x="179" y="-10" on="0"/>
      </contour>
      <contour>
        <pt x="276" y="428" on="1"/>
        <pt x="253" y="428" on="0"/>
        <pt x="214" y="407" on="0"/>
        <pt x="186" y="372" on="0"/>
        <pt x="171" y="327" on="0"/>
        <pt x="171" y="303" on="1"/>
        <pt x="171" y="266" on="0"/>
        <pt x="206" y="224" on="0"/>
        <pt x="237" y="224" on="1"/>
        <pt x="260" y="224" on="0"/>
        <pt x="298" y="245" on="0"/>
        <pt x="326" y="280" on="0"/>
        <pt x="342" y="325" on="0"/>
        <pt x="342" y="348" on="1"/>
        <pt x="342" y="386" on="0"/>
        <pt x="306" y="428" on="0"/>
      </contour>
    </TTGlyph>
    <TTGlyph name="g.supa" xMin="19" yMin="121" xMax="382" yMax="597">
      <contour>
        <pt x="81" y="463" on="1"/>
        <pt x="81" y="491" on="0"/>
        <pt x="103" y="540" on="0"/>
        <pt x="140" y="576" on="0"/>
        <pt x="191" y="597" on="0"/>
        <pt x="220" y="597" on="1"/>
        <pt x="244" y="597" on="0"/>
        <pt x="265" y="589" on="1"/>
        <pt x="382" y="589" on="1"/>
        <pt x="371" y="531" on="1"/>
        <pt x="318" y="531" on="1"/>
        <pt x="326" y="516" on="0"/>
        <pt x="326" y="494" on="1"/>
        <pt x="326" y="437" on="0"/>
        <pt x="248" y="365" on="0"/>
        <pt x="185" y="365" on="1"/>
        <pt x="176" y="365" on="0"/>
        <pt x="159" y="367" on="0"/>
        <pt x="154" y="369" on="1"/>
        <pt x="147" y="364" on="0"/>
        <pt x="136" y="350" on="0"/>
        <pt x="136" y="342" on="1"/>
        <pt x="136" y="328" on="0"/>
        <pt x="156" y="315" on="0"/>
        <pt x="193" y="310" on="1"/>
        <pt x="263" y="300" on="0"/>
        <pt x="314" y="265" on="0"/>
        <pt x="314" y="234" on="1"/>
        <pt x="314" y="205" on="0"/>
        <pt x="283" y="163" on="0"/>
        <pt x="234" y="135" on="0"/>
        <pt x="171" y="121" on="0"/>
        <pt x="140" y="121" on="1"/>
        <pt x="122" y="121" on="0"/>
        <pt x="80" y="126" on="0"/>
        <pt x="43" y="143" on="0"/>
        <pt x="19" y="173" on="0"/>
        <pt x="19" y="198" on="1"/>
        <pt x="19" y="227" on="0"/>
        <pt x="62" y="266" on="0"/>
        <pt x="90" y="278" on="1"/>
        <pt x="90" y="282" on="1"/>
        <pt x="82" y="288" on="0"/>
        <pt x="72" y="311" on="0"/>
        <pt x="72" y="325" on="1"/>
        <pt x="72" y="344" on="0"/>
        <pt x="96" y="375" on="0"/>
        <pt x="115" y="386" on="1"/>
        <pt x="115" y="389" on="1"/>
        <pt x="99" y="403" on="0"/>
        <pt x="81" y="439" on="0"/>
      </contour>
      <contour>
        <pt x="131" y="260" on="1"/>
        <pt x="114" y="252" on="0"/>
        <pt x="86" y="227" on="0"/>
        <pt x="86" y="211" on="1"/>
        <pt x="86" y="190" on="0"/>
        <pt x="118" y="171" on="0"/>
        <pt x="147" y="171" on="1"/>
        <pt x="186" y="171" on="0"/>
        <pt x="237" y="196" on="0"/>
        <pt x="237" y="216" on="1"/>
        <pt x="237" y="233" on="0"/>
        <pt x="202" y="249" on="0"/>
        <pt x="170" y="252" on="1"/>
        <pt x="162" y="253" on="0"/>
        <pt x="144" y="257" on="0"/>
      </contour>
      <contour>
        <pt x="218" y="543" on="1"/>
        <pt x="203" y="543" on="0"/>
        <pt x="179" y="529" on="0"/>
        <pt x="161" y="507" on="0"/>
        <pt x="151" y="479" on="0"/>
        <pt x="151" y="464" on="1"/>
        <pt x="151" y="414" on="0"/>
        <pt x="193" y="414" on="1"/>
        <pt x="208" y="414" on="0"/>
        <pt x="232" y="428" on="0"/>
        <pt x="250" y="450" on="0"/>
        <pt x="260" y="479" on="0"/>
        <pt x="260" y="494" on="1"/>
        <pt x="260" y="543" on="0"/>
      </contour>
    </TTGlyph>
    <TTGlyph name="g.sups" xMin="30" yMin="115" xMax="385" yMax="598">
      <contour>
        <pt x="385" y="590" on="1"/>
        <pt x="319" y="260" on="1"/>
        <pt x="305" y="189" on="0"/>
        <pt x="220" y="115" on="0"/>
        <pt x="154" y="115" on="1"/>
        <pt x="125" y="115" on="0"/>
        <pt x="59" y="137" on="0"/>
        <pt x="30" y="160" on="1"/>
        <pt x="63" y="212" on="1"/>
        <pt x="83" y="198" on="0"/>
        <pt x="131" y="176" on="0"/>
        <pt x="157" y="176" on="1"/>
        <pt x="190" y="176" on="0"/>
        <pt x="235" y="220" on="0"/>
        <pt x="246" y="258" on="1"/>
        <pt x="260" y="309" on="1"/>
        <pt x="256" y="309" on="1"/>
        <pt x="232" y="290" on="0"/>
        <pt x="181" y="269" on="0"/>
        <pt x="152" y="269" on="1"/>
        <pt x="108" y="269" on="0"/>
        <pt x="58" y="328" on="0"/>
        <pt x="58" y="382" on="1"/>
        <pt x="58" y="426" on="0"/>
        <pt x="87" y="505" on="0"/>
        <pt x="136" y="564" on="0"/>
        <pt x="199" y="598" on="0"/>
        <pt x="234" y="598" on="1"/>
        <pt x="257" y="598" on="0"/>
        <pt x="293" y="574" on="0"/>
        <pt x="304" y="552" on="1"/>
        <pt x="308" y="552" on="1"/>
        <pt x="323" y="590" on="1"/>
      </contour>
      <contour>
        <pt x="182" y="332" on="1"/>
        <pt x="202" y="332" on="0"/>
        <pt x="246" y="352" on="0"/>
        <pt x="265" y="374" on="1"/>
        <pt x="288" y="496" on="1"/>
        <pt x="278" y="517" on="0"/>
        <pt x="252" y="534" on="0"/>
        <pt x="238" y="534" on="1"/>
        <pt x="218" y="534" on="0"/>
        <pt x="182" y="511" on="0"/>
        <pt x="154" y="472" on="0"/>
        <pt x="137" y="420" on="0"/>
        <pt x="137" y="392" on="1"/>
        <pt x="137" y="361" on="0"/>
        <pt x="162" y="332" on="0"/>
      </contour>
    </TTGlyph>
    <TTGlyph name="gbreve" xMin="-7" yMin="-218" xMax="515" yMax="706">
      <component glyphName="g" x="0" y="0" flags="0x204"/>
      <component glyphName="uni0306" x="209" y="0" flags="0x4"/>
    </TTGlyph>
    <TTGlyph name="gbreve.a" xMin="-20" yMin="-217" xMax="518" yMax="706">
      <component glyphName="g.a" x="0" y="0" flags="0x204"/>
      <component glyphName="uni0306" x="177" y="0" flags="0x4"/>
    </TTGlyph>
    <TTGlyph name="gcaron" xMin="-7" yMin="-218" xMax="515" yMax="717">
      <component glyphName="g" x="0" y="0" flags="0x204"/>
      <component glyphName="uni030C" x="209" y="0" flags="0x4"/>
    </TTGlyph>
    <TTGlyph name="gcaron.a" xMin="-20" yMin="-217" xMax="518" yMax="717">
      <component glyphName="g.a" x="0" y="0" flags="0x204"/>
      <component glyphName="uni030C" x="177" y="0" flags="0x4"/>
    </TTGlyph>
    <TTGlyph name="gcircumflex" xMin="-7" yMin="-218" xMax="515" yMax="717">
      <component glyphName="g" x="0" y="0" flags="0x204"/>
      <component glyphName="uni0302" x="209" y="0" flags="0x4"/>
    </TTGlyph>
    <TTGlyph name="gcircumflex.a" xMin="-20" yMin="-217" xMax="518" yMax="717">
      <component glyphName="g.a" x="0" y="0" flags="0x204"/>
      <component glyphName="uni0302" x="177" y="0" flags="0x4"/>
    </TTGlyph>
    <TTGlyph name="gdotaccent" xMin="-7" yMin="-218" xMax="515" yMax="704">
      <component glyphName="g" x="0" y="0" flags="0x204"/>
      <component glyphName="uni0307" x="209" y="0" flags="0x4"/>
    </TTGlyph>
    <TTGlyph name="gdotaccent.a" xMin="-20" yMin="-217" xMax="518" yMax="704">
      <component glyphName="g.a" x="0" y="0" flags="0x204"/>
      <component glyphName="uni0307" x="177" y="0" flags="0x4"/>
    </TTGlyph>
    <TTGlyph name="germandbls" xMin="22" yMin="-12" xMax="533" yMax="718">
      <contour>
        <pt x="126" y="515" on="1"/>
        <pt x="135" y="557" on="0"/>
        <pt x="173" y="631" on="0"/>
        <pt x="230" y="686" on="0"/>
        <pt x="306" y="718" on="0"/>
        <pt x="353" y="718" on="1"/>
        <pt x="386" y="718" on="0"/>
        <pt x="445" y="701" on="0"/>
        <pt x="491" y="667" on="0"/>
        <pt x="518" y="614" on="0"/>
        <pt x="518" y="578" on="1"/>
        <pt x="518" y="533" on="0"/>
        <pt x="480" y="475" on="0"/>
        <pt x="433" y="430" on="0"/>
        <pt x="395" y="390" on="0"/>
        <pt x="395" y="364" on="1"/>
        <pt x="395" y="347" on="0"/>
        <pt x="415" y="319" on="0"/>
        <pt x="446" y="293" on="0"/>
        <pt x="482" y="264" on="0"/>
        <pt x="513" y="229" on="0"/>
        <pt x="533" y="184" on="0"/>
        <pt x="533" y="154" on="1"/>
        <pt x="533" y="119" on="0"/>
        <pt x="506" y="59" on="0"/>
        <pt x="459" y="14" on="0"/>
        <pt x="394" y="-12" on="0"/>
        <pt x="357" y="-12" on="1"/>
        <pt x="319" y="-12" on="0"/>
        <pt x="245" y="11" on="0"/>
        <pt x="213" y="35" on="1"/>
        <pt x="259" y="106" on="1"/>
        <pt x="281" y="90" on="0"/>
        <pt x="328" y="69" on="0"/>
        <pt x="356" y="69" on="1"/>
        <pt x="389" y="69" on="0"/>
        <pt x="433" y="110" on="0"/>
        <pt x="433" y="142" on="1"/>
        <pt x="433" y="162" on="0"/>
        <pt x="412" y="194" on="0"/>
        <pt x="380" y="222" on="0"/>
        <pt x="343" y="249" on="0"/>
        <pt x="311" y="281" on="0"/>
        <pt x="290" y="319" on="0"/>
        <pt x="290" y="345" on="1"/>
        <pt x="290" y="382" on="0"/>
        <pt x="329" y="432" on="0"/>
        <pt x="375" y="477" on="0"/>
        <pt x="414" y="527" on="0"/>
        <pt x="414" y="563" on="1"/>
        <pt x="414" y="594" on="0"/>
        <pt x="383" y="632" on="0"/>
        <pt x="348" y="632" on="1"/>
        <pt x="325" y="632" on="0"/>
        <pt x="287" y="610" on="0"/>
        <pt x="256" y="573" on="0"/>
        <pt x="234" y="522" on="0"/>
        <pt x="228" y="493" on="1"/>
        <pt x="130" y="0" on="1"/>
        <pt x="22" y="0" on="1"/>
      </contour>
    </TTGlyph>
    <TTGlyph name="grave" xMin="238" yMin="572" xMax="397" yMax="717">
      <component glyphName="uni0300" x="218" y="0" flags="0x4"/>
    </TTGlyph>
    <TTGlyph name="greater" xMin="48" yMin="121" xMax="474" yMax="540">
      <contour>
        <pt x="48" y="212" on="1"/>
        <pt x="235" y="282" on="1"/>
        <pt x="362" y="329" on="1"/>
        <pt x="362" y="333" on="1"/>
        <pt x="235" y="381" on="1"/>
        <pt x="48" y="451" on="1"/>
        <pt x="48" y="540" on="1"/>
        <pt x="474" y="369" on="1"/>
        <pt x="474" y="292" on="1"/>
        <pt x="48" y="121" on="1"/>
      </contour>
    </TTGlyph>
    <TTGlyph name="greaterequal" xMin="48" yMin="0" xMax="474" yMax="540">
      <contour>
        <pt x="48" y="0" on="1"/>
        <pt x="48" y="78" on="1"/>
        <pt x="472" y="78" on="1"/>
        <pt x="472" y="0" on="1"/>
      </contour>
      <contour>
        <pt x="48" y="244" on="1"/>
        <pt x="234" y="306" on="1"/>
        <pt x="363" y="345" on="1"/>
        <pt x="363" y="349" on="1"/>
        <pt x="234" y="388" on="1"/>
        <pt x="48" y="451" on="1"/>
        <pt x="48" y="540" on="1"/>
        <pt x="474" y="392" on="1"/>
        <pt x="474" y="303" on="1"/>
        <pt x="48" y="154" on="1"/>
      </contour>
    </TTGlyph>
    <TTGlyph name="guillemotleft" xMin="40" yMin="62" xMax="418" yMax="440">
      <component glyphName="guilsinglleft" x="0" y="0" flags="0x4"/>
      <component glyphName="guilsinglleft" x="174" y="0" flags="0x4"/>
    </TTGlyph>
    <TTGlyph name="guillemotright" xMin="25" yMin="62" xMax="403" yMax="440">
      <component glyphName="guilsinglright" x="0" y="0" flags="0x4"/>
      <component glyphName="guilsinglright" x="174" y="0" flags="0x4"/>
    </TTGlyph>
    <TTGlyph name="guilsinglleft" xMin="40" yMin="62" xMax="244" yMax="440">
      <contour>
        <pt x="40" y="216" on="1"/>
        <pt x="54" y="296" on="1"/>
        <pt x="209" y="440" on="1"/>
        <pt x="244" y="402" on="1"/>
        <pt x="107" y="248" on="1"/>
        <pt x="188" y="91" on="1"/>
        <pt x="143" y="62" on="1"/>
      </contour>
    </TTGlyph>
    <TTGlyph name="guilsinglright" xMin="25" yMin="62" xMax="229" yMax="440">
      <contour>
        <pt x="229" y="286" on="1"/>
        <pt x="214" y="206" on="1"/>
        <pt x="60" y="62" on="1"/>
        <pt x="25" y="100" on="1"/>
        <pt x="162" y="254" on="1"/>
        <pt x="80" y="411" on="1"/>
        <pt x="126" y="440" on="1"/>
      </contour>
    </TTGlyph>
    <TTGlyph name="h" xMin="22" yMin="0" xMax="491" yMax="706">
      <contour>
        <pt x="164" y="706" on="1"/>
        <pt x="271" y="706" on="1"/>
        <pt x="228" y="498" on="1"/>
        <pt x="209" y="427" on="1"/>
        <pt x="213" y="427" on="1"/>
        <pt x="251" y="459" on="0"/>
        <pt x="330" y="503" on="0"/>
        <pt x="375" y="503" on="1"/>
        <pt x="437" y="503" on="0"/>
        <pt x="491" y="439" on="0"/>
        <pt x="491" y="379" on="1"/>
        <pt x="491" y="362" on="0"/>
        <pt x="488" y="330" on="0"/>
        <pt x="483" y="310" on="1"/>
        <pt x="421" y="0" on="1"/>
        <pt x="314" y="0" on="1"/>
        <pt x="374" y="296" on="1"/>
        <pt x="377" y="313" on="0"/>
        <pt x="382" y="337" on="0"/>
        <pt x="382" y="348" on="1"/>
        <pt x="382" y="411" on="0"/>
        <pt x="320" y="411" on="1"/>
        <pt x="294" y="411" on="0"/>
        <pt x="235" y="375" on="0"/>
        <pt x="196" y="335" on="1"/>
        <pt x="130" y="0" on="1"/>
        <pt x="22" y="0" on="1"/>
      </contour>
    </TTGlyph>
    <TTGlyph name="h.sups" xMin="49" yMin="264" xMax="368" yMax="730">
      <contour>
        <pt x="142" y="730" on="1"/>
        <pt x="220" y="730" on="1"/>
        <pt x="198" y="619" on="1"/>
        <pt x="180" y="549" on="1"/>
        <pt x="183" y="549" on="1"/>
        <pt x="206" y="569" on="0"/>
        <pt x="260" y="598" on="0"/>
        <pt x="290" y="598" on="1"/>
        <pt x="332" y="598" on="0"/>
        <pt x="368" y="553" on="0"/>
        <pt x="368" y="513" on="1"/>
        <pt x="368" y="502" on="0"/>
        <pt x="364" y="479" on="0"/>
        <pt x="362" y="469" on="1"/>
        <pt x="321" y="264" on="1"/>
        <pt x="244" y="264" on="1"/>
        <pt x="282" y="459" on="1"/>
        <pt x="285" y="470" on="0"/>
        <pt x="288" y="484" on="0"/>
        <pt x="288" y="491" on="1"/>
        <pt x="288" y="532" on="0"/>
        <pt x="252" y="532" on="1"/>
        <pt x="217" y="532" on="0"/>
        <pt x="170" y="482" on="1"/>
        <pt x="127" y="264" on="1"/>
        <pt x="49" y="264" on="1"/>
      </contour>
    </TTGlyph>
    <TTGlyph name="hbar" xMin="22" yMin="0" xMax="487" yMax="706">
      <contour>
        <pt x="209" y="407" on="1"/>
        <pt x="247" y="439" on="0"/>
        <pt x="326" y="483" on="0"/>
        <pt x="371" y="483" on="1"/>
        <pt x="433" y="483" on="0"/>
        <pt x="487" y="419" on="0"/>
        <pt x="487" y="359" on="1"/>
        <pt x="487" y="342" on="0"/>
        <pt x="484" y="310" on="0"/>
        <pt x="479" y="290" on="1"/>
        <pt x="421" y="0" on="1"/>
        <pt x="314" y="0" on="1"/>
        <pt x="370" y="276" on="1"/>
        <pt x="373" y="293" on="0"/>
        <pt x="378" y="317" on="0"/>
        <pt x="378" y="328" on="1"/>
        <pt x="378" y="391" on="0"/>
        <pt x="316" y="391" on="1"/>
        <pt x="290" y="391" on="0"/>
        <pt x="231" y="355" on="0"/>
        <pt x="192" y="315" on="1"/>
        <pt x="130" y="0" on="1"/>
        <pt x="22" y="0" on="1"/>
        <pt x="136" y="565" on="1"/>
        <pt x="66" y="565" on="1"/>
        <pt x="76" y="616" on="1"/>
        <pt x="147" y="621" on="1"/>
        <pt x="164" y="706" on="1"/>
        <pt x="271" y="706" on="1"/>
        <pt x="253" y="621" on="1"/>
        <pt x="422" y="621" on="1"/>
        <pt x="410" y="565" on="1"/>
        <pt x="242" y="565" on="1"/>
        <pt x="224" y="478" on="1"/>
        <pt x="205" y="407" on="1"/>
      </contour>
    </TTGlyph>
    <TTGlyph name="hcircumflex" xMin="22" yMin="0" xMax="491" yMax="868">
      <component glyphName="h" x="0" y="0" flags="0x204"/>
      <component glyphName="uni0302.cap" x="100" y="50" flags="0x4"/>
    </TTGlyph>
    <TTGlyph name="hungarumlaut" xMin="219" yMin="572" xMax="564" yMax="718">
      <component glyphName="uni030B" x="218" y="0" flags="0x4"/>
    </TTGlyph>
    <TTGlyph name="hyphen" xMin="34" yMin="213" xMax="277" yMax="292">
      <contour>
        <pt x="50" y="292" on="1"/>
        <pt x="277" y="292" on="1"/>
        <pt x="260" y="213" on="1"/>
        <pt x="34" y="213" on="1"/>
      </contour>
    </TTGlyph>
    <TTGlyph name="i" xMin="22" yMin="0" xMax="272" yMax="704">
      <contour>
        <pt x="121" y="491" on="1"/>
        <pt x="228" y="491" on="1"/>
        <pt x="130" y="0" on="1"/>
        <pt x="22" y="0" on="1"/>
      </contour>
      <contour>
        <pt x="200" y="578" on="1"/>
        <pt x="177" y="578" on="0"/>
        <pt x="139" y="607" on="0"/>
        <pt x="139" y="634" on="1"/>
        <pt x="139" y="663" on="0"/>
        <pt x="181" y="704" on="0"/>
        <pt x="211" y="704" on="1"/>
        <pt x="234" y="704" on="0"/>
        <pt x="272" y="675" on="0"/>
        <pt x="272" y="648" on="1"/>
        <pt x="272" y="618" on="0"/>
        <pt x="230" y="578" on="0"/>
      </contour>
    </TTGlyph>
    <TTGlyph name="i.sups" xMin="49" yMin="264" xMax="220" yMax="732">
      <contour>
        <pt x="114" y="590" on="1"/>
        <pt x="191" y="590" on="1"/>
        <pt x="127" y="264" on="1"/>
        <pt x="49" y="264" on="1"/>
      </contour>
      <contour>
        <pt x="169" y="644" on="1"/>
        <pt x="152" y="644" on="0"/>
        <pt x="125" y="664" on="0"/>
        <pt x="125" y="684" on="1"/>
        <pt x="125" y="703" on="0"/>
        <pt x="155" y="732" on="0"/>
        <pt x="176" y="732" on="1"/>
        <pt x="193" y="732" on="0"/>
        <pt x="220" y="712" on="0"/>
        <pt x="220" y="692" on="1"/>
        <pt x="220" y="672" on="0"/>
        <pt x="190" y="644" on="0"/>
      </contour>
    </TTGlyph>
    <TTGlyph name="iacute" xMin="22" yMin="0" xMax="339" yMax="717">
      <component glyphName="dotlessi" x="0" y="0" flags="0x204"/>
      <component glyphName="uni0301" x="75" y="0" flags="0x4"/>
    </TTGlyph>
    <TTGlyph name="icircumflex" xMin="22" yMin="0" xMax="322" yMax="717">
      <component glyphName="dotlessi" x="0" y="0" flags="0x204"/>
      <component glyphName="uni0302" x="75" y="0" flags="0x4"/>
    </TTGlyph>
    <TTGlyph name="idieresis" xMin="22" yMin="0" xMax="346" yMax="695">
      <component glyphName="dotlessi" x="0" y="0" flags="0x204"/>
      <component glyphName="uni0308" x="75" y="0" flags="0x4"/>
    </TTGlyph>
    <TTGlyph name="igrave" xMin="22" yMin="0" xMax="254" yMax="717">
      <component glyphName="dotlessi" x="0" y="0" flags="0x204"/>
      <component glyphName="uni0300" x="75" y="0" flags="0x4"/>
    </TTGlyph>
    <TTGlyph name="imacron" xMin="22" yMin="0" xMax="330" yMax="668">
      <component glyphName="dotlessi" x="0" y="0" flags="0x204"/>
      <component glyphName="uni0304" x="75" y="0" flags="0x4"/>
    </TTGlyph>
    <TTGlyph name="infinity" xMin="38" yMin="135" xMax="731" yMax="520">
      <contour>
        <pt x="194" y="155" on="1"/>
        <pt x="159" y="155" on="0"/>
        <pt x="102" y="181" on="0"/>
        <pt x="61" y="228" on="0"/>
        <pt x="38" y="291" on="0"/>
        <pt x="38" y="328" on="1"/>
        <pt x="38" y="366" on="0"/>
        <pt x="62" y="431" on="0"/>
        <pt x="105" y="478" on="0"/>
        <pt x="165" y="505" on="0"/>
        <pt x="201" y="505" on="1"/>
        <pt x="231" y="505" on="0"/>
        <pt x="281" y="487" on="0"/>
        <pt x="322" y="458" on="0"/>
        <pt x="355" y="423" on="0"/>
        <pt x="368" y="405" on="1"/>
        <pt x="372" y="405" on="1"/>
        <pt x="410" y="456" on="0"/>
        <pt x="493" y="520" on="0"/>
        <pt x="551" y="520" on="1"/>
        <pt x="589" y="520" on="0"/>
        <pt x="655" y="494" on="0"/>
        <pt x="703" y="444" on="0"/>
        <pt x="731" y="374" on="0"/>
        <pt x="731" y="331" on="1"/>
        <pt x="731" y="289" on="0"/>
        <pt x="703" y="217" on="0"/>
        <pt x="655" y="164" on="0"/>
        <pt x="589" y="135" on="0"/>
        <pt x="552" y="135" on="1"/>
        <pt x="491" y="135" on="0"/>
        <pt x="400" y="195" on="0"/>
        <pt x="355" y="254" on="1"/>
        <pt x="351" y="254" on="1"/>
        <pt x="339" y="237" on="0"/>
        <pt x="307" y="202" on="0"/>
        <pt x="268" y="173" on="0"/>
        <pt x="221" y="155" on="0"/>
      </contour>
      <contour>
        <pt x="406" y="342" on="1"/>
        <pt x="441" y="292" on="0"/>
        <pt x="510" y="234" on="0"/>
        <pt x="553" y="234" on="1"/>
        <pt x="598" y="234" on="0"/>
        <pt x="650" y="294" on="0"/>
        <pt x="650" y="338" on="1"/>
        <pt x="650" y="384" on="0"/>
        <pt x="594" y="441" on="0"/>
        <pt x="547" y="441" on="1"/>
        <pt x="509" y="441" on="0"/>
        <pt x="438" y="389" on="0"/>
      </contour>
      <contour>
        <pt x="203" y="234" on="1"/>
        <pt x="238" y="234" on="0"/>
        <pt x="295" y="283" on="0"/>
        <pt x="318" y="318" on="1"/>
        <pt x="292" y="356" on="0"/>
        <pt x="232" y="407" on="0"/>
        <pt x="200" y="407" on="1"/>
        <pt x="162" y="407" on="0"/>
        <pt x="118" y="360" on="0"/>
        <pt x="118" y="322" on="1"/>
        <pt x="118" y="286" on="0"/>
        <pt x="165" y="234" on="0"/>
      </contour>
    </TTGlyph>
    <TTGlyph name="integral" xMin="-29" yMin="-158" xMax="427" yMax="790">
      <contour>
        <pt x="-7" y="-73" on="1"/>
        <pt x="-1" y="-75" on="0"/>
        <pt x="15" y="-77" on="0"/>
        <pt x="26" y="-77" on="1"/>
        <pt x="66" y="-77" on="0"/>
        <pt x="105" y="0" on="0"/>
        <pt x="120" y="76" on="1"/>
        <pt x="131" y="132" on="0"/>
        <pt x="143" y="252" on="0"/>
        <pt x="154" y="374" on="0"/>
        <pt x="166" y="496" on="0"/>
        <pt x="177" y="554" on="1"/>
        <pt x="187" y="604" on="0"/>
        <pt x="215" y="691" on="0"/>
        <pt x="260" y="754" on="0"/>
        <pt x="325" y="790" on="0"/>
        <pt x="373" y="790" on="1"/>
        <pt x="408" y="790" on="0"/>
        <pt x="427" y="783" on="1"/>
        <pt x="406" y="704" on="1"/>
        <pt x="400" y="706" on="0"/>
        <pt x="380" y="708" on="0"/>
        <pt x="368" y="708" on="1"/>
        <pt x="329" y="708" on="0"/>
        <pt x="288" y="630" on="0"/>
        <pt x="274" y="555" on="1"/>
        <pt x="263" y="499" on="0"/>
        <pt x="251" y="379" on="0"/>
        <pt x="240" y="257" on="0"/>
        <pt x="228" y="136" on="0"/>
        <pt x="217" y="78" on="1"/>
        <pt x="207" y="27" on="0"/>
        <pt x="178" y="-60" on="0"/>
        <pt x="133" y="-123" on="0"/>
        <pt x="67" y="-158" on="0"/>
        <pt x="20" y="-158" on="1"/>
        <pt x="5" y="-158" on="0"/>
        <pt x="-21" y="-155" on="0"/>
        <pt x="-29" y="-151" on="1"/>
        <pt x="-7" y="-73" on="1"/>
      </contour>
    </TTGlyph>
</ttFont>
